<svg width="560" height="787" viewBox="0 0 560 787" fill="none" xmlns="http://www.w3.org/2000/svg">
<mask id="path-1-inside-1_2_164" fill="white">
<path d="M469.536 83.6276C474.025 81.5769 479.977 79.5151 485.113 77.7359L485.115 77.7353C485.117 77.7348 485.118 77.7342 485.12 77.7336L485.122 77.7331C486.508 77.2529 487.835 76.7932 489.057 76.36C491.57 75.4688 494.33 74.3989 497.261 73.2627C512.211 67.4681 531.604 59.9511 545.197 65.6502C574.717 78.0276 551.402 105.982 531.463 112.467C508.277 120.007 486.412 118.998 463.759 117.952C454.489 117.524 445.086 117.09 435.407 117.233C388.557 117.938 335.736 125.397 297.422 153.898C286.782 161.813 277.399 172.048 271.966 183.965C269.665 189.083 267.976 194.445 266.933 199.943C266.826 200.514 266.763 201.215 266.696 201.965C266.472 204.488 266.198 207.563 263.986 208.083C236.406 214.567 182.163 210.539 181.578 173.059C181.106 142.895 217.925 114.262 242.42 101.827C294.969 75.1505 355.818 74.8534 412.29 88.02C417.395 89.1945 422.872 90.5899 428.5 92.0238C441.586 95.3581 455.489 98.9003 467.438 100.357C487.391 104.516 512.482 108.003 531.037 97.8634C529.12 97.8564 526.584 98.2234 523.993 98.5983C521.73 98.9258 519.424 99.2595 517.452 99.3554C504.8 99.9698 495.019 97.978 483.195 94.5193C476.544 91.8523 473.003 90.3958 469.536 83.6276Z"/>
<path d="M378.226 0.0468388C384.248 -0.217005 387.748 0.679055 391.347 1.60046C394.302 2.35706 397.325 3.13075 401.864 3.29335C404.092 3.1187 406.368 2.54002 408.616 1.96854C409.998 1.61733 411.369 1.26884 412.711 1.01851C428.867 -1.99649 435.36 14.059 440.386 26.4871C440.838 27.6034 441.278 28.6905 441.711 29.7319L452.176 54.8468C452.525 55.6822 453.088 56.9975 453.779 58.6156C453.781 58.62 453.783 58.6243 453.785 58.6287C456.96 66.0553 462.852 79.8359 463.361 82.8884C463.303 83.0259 463.254 83.1506 463.209 83.2658C462.993 83.8147 462.862 84.1475 462.284 84.6153C456.811 89.0455 430.05 81.5051 412.902 76.6731C407.767 75.2263 403.494 74.0223 400.912 73.4551C391.747 71.4409 382.482 70.1518 373.167 69.0069C333.896 65.3454 314.797 66.7699 277.568 78.2082C277.681 76.3355 277.759 74.242 277.842 72.013C278.24 61.2824 278.756 47.4116 283.85 39.9155C291.459 28.7167 305.368 26.2322 318.974 23.8017C325.644 22.6104 332.241 21.432 337.988 19.2468C343.982 16.9678 349.481 13.7567 354.946 10.5654C362.381 6.22356 369.753 1.9183 378.226 0.0468388ZM339.039 45.2019C329.526 47.0098 326.912 46.9186 317.396 46.2876C324.259 49.1876 335.039 50.7698 339.039 50.6934C343.039 50.6169 379.57 42.9397 383.335 23.878C383.856 21.2402 385.155 11.7137 381.291 11.0527C379.843 12.3689 378.97 16.6453 377.453 19.1216C369.006 32.9153 354.266 40.9551 339.039 45.2019Z"/>
<path d="M302.066 573.206C384.193 591.407 393.284 686.521 347.317 743.516C338.811 754.067 356.145 755.839 362.925 755.247C366.781 754.912 370.826 754.617 374.739 754.331C375.102 754.305 375.463 754.278 375.823 754.252C376.246 754.221 376.667 754.19 377.085 754.16C381.38 753.83 385.691 753.752 389.996 753.927C403.868 754.635 416.54 760.057 422.006 773.549C423.871 778.155 425.007 784.771 418.227 785.513C411.118 786.287 403.904 786.223 396.705 786.159C396.704 786.159 396.702 786.159 396.701 786.159C394.911 786.144 393.121 786.128 391.335 786.125L282.852 786.076C280.132 786.074 277.177 786.141 274.108 786.21C264.468 786.428 253.707 786.67 245.596 784.878C238.844 783.383 235.286 780.192 231.411 776.717C229.448 774.956 227.404 773.123 224.821 771.399C221.017 768.861 216.318 767.885 211.764 767.997C204.925 768.163 197.735 770.218 190.841 772.188C188.487 772.861 186.168 773.523 183.909 774.098C172.379 777.029 160.694 779.752 148.943 781.698C114.516 787.396 37.3579 790.949 8.08778 770.225C4.59957 767.754 0.611922 764.177 0.0608912 759.775C-0.319027 756.742 1.12624 753.927 3.07592 751.665C7.60518 746.409 14.0965 743.783 20.7183 742.05C40.0216 736.998 59.2065 739.643 78.4411 742.296C83.6143 743.009 88.791 743.723 93.9746 744.288C103.138 745.287 112.437 745.909 121.644 745.181C134.221 744.186 149.991 740.623 158.367 730.513C160.783 727.601 161.994 724.388 161.196 720.646C160.144 715.707 157.488 710.774 154.877 705.923C153.295 702.984 151.729 700.075 150.546 697.214C142.1 676.474 136.656 654.682 134.371 632.473C130.473 592.883 136.098 555.603 148.411 517.843C158.499 486.227 175.735 458.033 193.768 430.115C196.753 425.495 199.926 420.848 203.135 416.15C217.101 395.7 231.737 374.269 234.375 349.726C234.724 346.484 234.912 343.401 235.095 340.386C235.509 333.602 235.902 327.159 238.056 320.019C241.152 309.764 246.838 301.086 252.535 292.39C257.523 284.777 262.52 277.151 265.794 268.44C269.964 256.386 271.466 244.544 272.938 232.935C275.507 212.683 277.986 193.141 294.382 174.424C322.761 142.024 381.564 129.004 423.315 124.296C444.132 121.949 467.229 123.779 484.326 135.72C486.677 137.361 488.863 138.944 490.995 140.488C496.41 144.41 501.476 148.078 507.998 151.796C513.474 154.864 518.999 157.841 524.579 160.725C525.644 161.264 526.811 161.757 527.994 162.257C532.69 164.242 537.652 166.339 537.608 171.846C537.554 178.999 534.36 183.908 529.777 189.083L529.816 189.472C530.803 200.237 524.951 211.545 516.252 218.138C516.006 218.373 514.854 218.967 513.58 219.625C511.718 220.585 509.594 221.682 509.65 221.992C511.009 229.458 504.418 233.839 497.732 238.28C491.204 242.617 482.555 245.016 474.081 247.367C469.446 248.653 464.863 249.924 460.707 251.49C447.782 256.36 438.145 266.447 435.383 280.023C432.45 293.195 437.492 306.535 442.204 319.004C442.833 320.667 443.455 322.315 444.052 323.944C452.266 346.388 454.86 369.98 451.13 393.617C448.66 409.289 444.196 426.077 437.882 440.817C431.236 435.309 419.511 419.355 414.502 411.764C413.555 410.327 412.208 407.818 410.936 405.45C410.095 403.884 409.287 402.379 408.649 401.286C407.881 398.857 407.035 396.616 406.196 394.392C404.571 390.088 402.971 385.849 402.003 380.442C401.666 378.575 401.458 376.524 401.262 374.59C401.071 372.708 400.891 370.936 400.615 369.55C398.753 372.733 399.088 383.4 399.24 388.242C399.25 388.533 399.258 388.804 399.265 389.05C402.16 418.944 418.748 436.566 434.872 453.695C451.769 471.646 468.156 489.054 467.74 519.478C467.631 527.545 464.749 537.441 459.383 543.789C456.372 547.347 447.152 555.229 442.46 552.642C442.211 551.642 442.794 550.204 443.442 548.605C444.37 546.317 445.431 543.699 444.38 541.562C443.424 541.334 442.245 541.416 440.928 541.508C437.157 541.772 432.249 542.114 428.191 535.5C425.45 531.03 425.447 526.635 425.444 522.346C425.44 516.059 425.437 510.002 416.803 504.277C413.495 502.083 409.373 499.797 405.495 498.438C402.337 496.943 398.975 495.799 395.643 494.666C395.64 494.664 395.636 494.663 395.633 494.662C395.629 494.661 395.626 494.66 395.622 494.658C395.046 494.463 394.472 494.267 393.899 494.07L391.677 493.531C390.058 493.028 388.452 492.532 386.857 492.04C354.884 482.172 327.936 473.854 309.971 441.322C309.402 440.294 308.305 437.716 307.229 435.189C306.024 432.358 304.846 429.591 304.468 429.135C302.914 438.696 311.534 458.426 317.545 466.434C336.896 492.216 366.382 500.054 396.751 505.335C396.87 505.356 397.05 505.386 397.279 505.424C399.472 505.789 406.125 506.896 406.224 508.043C407.917 527.332 413.234 545.626 418.606 564.112C419.591 567.502 420.578 570.898 421.545 574.308C429.441 602.172 431.98 632.06 425.245 660.404C417.984 690.972 391.498 733.333 359.83 744.472C360.637 743.359 361.458 742.234 362.286 741.099C367.237 734.313 372.446 727.175 376.381 720.069C390.432 694.675 397.287 666.073 392.228 637.409C388.116 613.762 374.581 592.684 354.593 578.798C333.524 564.601 307.522 559.248 282.389 563.922C282.295 563.938 282.202 563.955 282.108 563.971C280.651 564.228 279.294 564.468 277.855 564.883C268.876 565.883 254.66 570.935 246.89 575.56C249.445 575.177 251.946 574.67 254.447 574.162L254.448 574.161L254.45 574.161C256.83 573.678 259.211 573.194 261.64 572.818C275.043 570.741 288.707 570.872 302.066 573.206ZM440.6 164.928C444.94 164.003 448.486 163.072 450.996 158.989C452.514 156.486 452.886 153.474 452.023 150.689C450.158 144.557 443.918 141.078 437.595 141.261C419.749 146.05 421.867 164.617 440.6 164.928Z"/>
<path d="M456.248 416.123C456.936 416.703 459.068 419.493 461.21 422.295L461.21 422.296L461.211 422.297C462.991 424.625 464.776 426.962 465.746 428.048C468.058 430.635 470.356 433.15 472.642 435.652C472.643 435.653 472.644 435.654 472.645 435.655C477.152 440.587 481.61 445.466 486.022 450.733C499.894 467.303 504.199 492.017 495.282 511.771C492.985 516.857 489.518 520.201 485.124 523.516C482.079 525.493 480.093 526.033 476.836 526.919C476.639 526.972 476.438 527.027 476.231 527.084C476.445 526.423 476.739 525.68 477.047 524.903C477.705 523.243 478.424 521.43 478.542 519.939C478.655 518.542 478.089 518.241 477.46 517.905C476.783 517.544 476.033 517.144 475.968 515.304C475.932 514.265 475.903 513.239 475.873 512.22C475.873 512.218 475.873 512.216 475.873 512.214C475.752 507.963 475.634 503.848 475.026 499.535C472.049 478.469 459.757 465.137 445.921 450.13C445.858 450.063 445.796 449.995 445.734 449.927C449.245 441.129 452.073 431.022 454.732 421.518L454.732 421.515C454.734 421.509 454.736 421.502 454.738 421.495C455.246 419.678 455.749 417.883 456.248 416.123Z"/>
<path d="M411.665 740.225C415.777 740.031 419.893 739.944 424.01 739.968C439.777 740.143 457.587 741.686 464.685 758.436C466.173 761.94 468.36 768.254 465.186 771.244C462.036 772.579 455.87 772.333 451.346 772.152C450.442 772.116 449.604 772.082 448.868 772.064C448.057 772.06 447.245 772.057 446.433 772.054C442.086 772.038 437.728 772.023 433.399 771.749C432.987 770.771 432.617 769.838 432.259 768.936L432.258 768.934C430.887 765.479 429.698 762.48 427.055 759.198C417.354 747.151 406.591 745.127 392.352 743.021C398.928 741.099 404.855 740.623 411.665 740.225Z"/>
<path fill-rule="evenodd" clip-rule="evenodd" d="M485.115 77.7353L485.12 77.7336L485.122 77.7331C486.508 77.2529 487.835 76.7932 489.057 76.36C491.57 75.4688 494.33 74.3989 497.261 73.2627C512.211 67.4681 531.604 59.9511 545.197 65.6502C574.717 78.0276 551.402 105.982 531.463 112.467C508.277 120.007 486.412 118.998 463.759 117.952C454.489 117.524 445.086 117.09 435.407 117.233C388.557 117.938 335.736 125.397 297.422 153.898C286.782 161.813 277.399 172.048 271.966 183.965C269.665 189.083 267.976 194.445 266.933 199.943C266.826 200.514 266.763 201.215 266.696 201.965C266.472 204.488 266.198 207.563 263.986 208.083C236.406 214.567 182.163 210.539 181.578 173.059C181.106 142.895 217.925 114.262 242.42 101.827C294.969 75.1505 355.818 74.8534 412.29 88.02C417.395 89.1945 422.872 90.5899 428.5 92.0238C441.586 95.3581 455.489 98.9003 467.438 100.357C487.391 104.516 512.482 108.003 531.037 97.8634C529.12 97.8564 526.584 98.2234 523.993 98.5983C521.73 98.9258 519.424 99.2595 517.452 99.3554C504.8 99.9698 495.019 97.978 483.195 94.5193C476.544 91.8523 473.003 90.3958 469.536 83.6276C474.025 81.5769 479.977 79.5151 485.113 77.7359L485.115 77.7353ZM391.347 1.60046C394.302 2.35706 397.325 3.13075 401.864 3.29335C404.092 3.1187 406.368 2.54002 408.616 1.96854C409.998 1.61733 411.369 1.26884 412.711 1.01851C428.867 -1.99649 435.36 14.059 440.386 26.4871C440.838 27.6034 441.278 28.6905 441.711 29.7319L452.176 54.8468C452.525 55.6822 453.088 56.9975 453.779 58.6156L453.785 58.6287C456.96 66.0553 462.852 79.8359 463.361 82.8884C463.303 83.0259 463.254 83.1506 463.209 83.2658C462.993 83.8147 462.862 84.1475 462.284 84.6153C456.811 89.0455 430.05 81.5051 412.902 76.6731C407.767 75.2263 403.494 74.0223 400.912 73.4551C391.747 71.4409 382.482 70.1518 373.167 69.0069C333.896 65.3454 314.797 66.7699 277.568 78.2082C277.681 76.3355 277.759 74.242 277.842 72.013C278.24 61.2824 278.756 47.4116 283.85 39.9155C291.459 28.7167 305.368 26.2322 318.974 23.8017C325.644 22.6104 332.241 21.432 337.988 19.2468C343.982 16.9678 349.481 13.7567 354.946 10.5654C362.381 6.22356 369.753 1.9183 378.226 0.0468388C384.248 -0.217005 387.748 0.679055 391.347 1.60046ZM302.066 573.206C384.193 591.407 393.284 686.521 347.317 743.516C338.811 754.067 356.145 755.839 362.925 755.247C366.781 754.912 370.826 754.617 374.739 754.331L375.823 754.252C376.246 754.221 376.667 754.19 377.085 754.16C381.38 753.83 385.691 753.752 389.996 753.927C403.868 754.635 416.54 760.057 422.006 773.549C423.871 778.155 425.007 784.771 418.227 785.513C411.118 786.287 403.904 786.223 396.705 786.159H396.701C394.911 786.144 393.121 786.128 391.335 786.125L282.852 786.076C280.132 786.074 277.177 786.141 274.108 786.21C264.468 786.428 253.707 786.67 245.596 784.878C238.844 783.383 235.286 780.192 231.411 776.717C229.448 774.956 227.404 773.123 224.821 771.399C221.017 768.861 216.318 767.885 211.764 767.997C204.925 768.163 197.735 770.218 190.841 772.188C188.487 772.861 186.168 773.523 183.909 774.098C172.379 777.029 160.694 779.752 148.943 781.698C114.516 787.396 37.3579 790.949 8.08778 770.225C4.59957 767.754 0.611922 764.177 0.0608912 759.775C-0.319027 756.742 1.12624 753.927 3.07592 751.665C7.60518 746.409 14.0965 743.783 20.7183 742.05C40.0216 736.998 59.2065 739.643 78.4411 742.296C83.6143 743.009 88.791 743.723 93.9746 744.288C103.138 745.287 112.437 745.909 121.644 745.181C134.221 744.186 149.991 740.623 158.367 730.513C160.783 727.601 161.994 724.388 161.196 720.646C160.144 715.707 157.488 710.774 154.877 705.923C153.295 702.984 151.729 700.075 150.546 697.214C142.1 676.474 136.656 654.682 134.371 632.473C130.473 592.883 136.098 555.603 148.411 517.843C158.499 486.227 175.735 458.033 193.768 430.115C196.753 425.495 199.926 420.848 203.135 416.15C217.101 395.7 231.737 374.269 234.375 349.726C234.724 346.484 234.912 343.401 235.095 340.386C235.509 333.602 235.902 327.159 238.056 320.019C241.152 309.764 246.838 301.086 252.535 292.39C257.523 284.777 262.52 277.151 265.794 268.44C269.964 256.386 271.466 244.544 272.938 232.935C275.507 212.683 277.986 193.141 294.382 174.424C322.761 142.024 381.564 129.004 423.315 124.296C444.132 121.949 467.229 123.779 484.326 135.72C486.677 137.361 488.863 138.944 490.995 140.488C496.41 144.41 501.476 148.078 507.998 151.796C513.474 154.864 518.999 157.841 524.579 160.725C525.644 161.264 526.811 161.757 527.994 162.257C532.69 164.242 537.652 166.339 537.608 171.846C537.554 178.999 534.36 183.908 529.777 189.083L529.816 189.472C530.803 200.237 524.951 211.545 516.252 218.138C516.006 218.373 514.854 218.967 513.58 219.625C511.718 220.585 509.594 221.682 509.65 221.992C511.009 229.458 504.418 233.839 497.732 238.28C491.204 242.617 482.555 245.016 474.081 247.367C469.446 248.653 464.863 249.924 460.707 251.49C447.782 256.36 438.145 266.447 435.383 280.023C432.45 293.195 437.492 306.535 442.204 319.004C442.833 320.667 443.455 322.315 444.052 323.944C452.266 346.388 454.86 369.98 451.13 393.617C448.66 409.289 444.196 426.077 437.882 440.817C431.236 435.309 419.511 419.355 414.502 411.764C413.555 410.327 412.208 407.818 410.936 405.45C410.095 403.884 409.287 402.379 408.649 401.286C407.881 398.857 407.035 396.616 406.196 394.392C404.571 390.088 402.971 385.849 402.003 380.442C401.666 378.575 401.458 376.524 401.262 374.59C401.071 372.708 400.891 370.936 400.615 369.55C398.753 372.733 399.088 383.4 399.24 388.242C399.25 388.533 399.258 388.804 399.265 389.05C402.16 418.944 418.748 436.566 434.872 453.695C451.769 471.646 468.156 489.054 467.74 519.478C467.631 527.545 464.749 537.441 459.383 543.789C456.372 547.347 447.152 555.229 442.46 552.642C442.211 551.642 442.794 550.204 443.442 548.605C444.37 546.317 445.431 543.699 444.38 541.562C443.424 541.334 442.245 541.416 440.928 541.508C437.157 541.772 432.249 542.114 428.191 535.5C425.45 531.03 425.447 526.635 425.444 522.346C425.44 516.059 425.437 510.002 416.803 504.277C413.495 502.083 409.373 499.797 405.495 498.438C402.337 496.943 398.975 495.799 395.643 494.666L395.633 494.662L395.622 494.658C395.046 494.463 394.472 494.267 393.899 494.07L391.677 493.531C390.058 493.028 388.452 492.532 386.857 492.04C354.884 482.172 327.936 473.854 309.971 441.322C309.402 440.294 308.305 437.716 307.229 435.189C306.024 432.358 304.846 429.591 304.468 429.135C302.914 438.696 311.534 458.426 317.545 466.434C336.896 492.216 366.382 500.054 396.751 505.335C396.87 505.356 397.05 505.386 397.279 505.424C399.472 505.789 406.125 506.896 406.224 508.043C407.917 527.332 413.234 545.626 418.606 564.112C419.591 567.502 420.578 570.898 421.545 574.308C429.441 602.172 431.98 632.06 425.245 660.404C417.984 690.972 391.498 733.333 359.83 744.472C360.637 743.359 361.458 742.234 362.286 741.099C367.237 734.313 372.446 727.175 376.381 720.069C390.432 694.675 397.287 666.073 392.228 637.409C388.116 613.762 374.581 592.684 354.593 578.798C333.524 564.601 307.522 559.248 282.389 563.922L282.108 563.971C280.651 564.228 279.294 564.468 277.855 564.883C268.876 565.883 254.66 570.935 246.89 575.56C249.445 575.177 251.946 574.67 254.447 574.162L254.448 574.161L254.45 574.161C256.83 573.678 259.211 573.194 261.64 572.818C275.043 570.741 288.707 570.872 302.066 573.206ZM461.21 422.295L461.21 422.296L461.211 422.297C462.991 424.625 464.776 426.962 465.746 428.048C468.058 430.635 470.356 433.15 472.642 435.652L472.645 435.655C477.152 440.587 481.61 445.466 486.022 450.733C499.894 467.303 504.199 492.017 495.282 511.771C492.985 516.857 489.518 520.201 485.124 523.516C482.079 525.493 480.093 526.033 476.836 526.919C476.639 526.972 476.438 527.027 476.231 527.084C476.445 526.423 476.739 525.68 477.047 524.903C477.705 523.243 478.424 521.43 478.542 519.939C478.655 518.542 478.089 518.241 477.46 517.905C476.783 517.544 476.033 517.144 475.968 515.304C475.932 514.265 475.903 513.239 475.873 512.22L475.873 512.214C475.752 507.963 475.634 503.848 475.026 499.535C472.049 478.469 459.757 465.137 445.921 450.13L445.734 449.927C449.245 441.129 452.073 431.022 454.732 421.518L454.732 421.515L454.738 421.495C455.246 419.678 455.749 417.883 456.248 416.123C456.936 416.703 459.068 419.493 461.21 422.295ZM411.665 740.225C415.777 740.031 419.893 739.944 424.01 739.968C439.777 740.143 457.587 741.686 464.685 758.436C466.173 761.94 468.36 768.254 465.186 771.244C462.036 772.579 455.87 772.333 451.346 772.152C450.442 772.116 449.604 772.082 448.868 772.064C448.057 772.06 447.245 772.057 446.433 772.054C442.086 772.038 437.728 772.023 433.399 771.749C432.987 770.771 432.617 769.838 432.259 768.936L432.258 768.934C430.887 765.479 429.698 762.48 427.055 759.198C417.354 747.151 406.591 745.127 392.352 743.021C398.928 741.099 404.855 740.623 411.665 740.225ZM450.996 158.989C448.486 163.072 444.94 164.003 440.6 164.928C421.867 164.617 419.749 146.05 437.595 141.261C443.918 141.078 450.158 144.557 452.023 150.689C452.886 153.474 452.514 156.486 450.996 158.989Z"/>
</mask>
<path d="M469.536 83.6276C474.025 81.5769 479.977 79.5151 485.113 77.7359L485.115 77.7353C485.117 77.7348 485.118 77.7342 485.12 77.7336L485.122 77.7331C486.508 77.2529 487.835 76.7932 489.057 76.36C491.57 75.4688 494.33 74.3989 497.261 73.2627C512.211 67.4681 531.604 59.9511 545.197 65.6502C574.717 78.0276 551.402 105.982 531.463 112.467C508.277 120.007 486.412 118.998 463.759 117.952C454.489 117.524 445.086 117.09 435.407 117.233C388.557 117.938 335.736 125.397 297.422 153.898C286.782 161.813 277.399 172.048 271.966 183.965C269.665 189.083 267.976 194.445 266.933 199.943C266.826 200.514 266.763 201.215 266.696 201.965C266.472 204.488 266.198 207.563 263.986 208.083C236.406 214.567 182.163 210.539 181.578 173.059C181.106 142.895 217.925 114.262 242.42 101.827C294.969 75.1505 355.818 74.8534 412.29 88.02C417.395 89.1945 422.872 90.5899 428.5 92.0238C441.586 95.3581 455.489 98.9003 467.438 100.357C487.391 104.516 512.482 108.003 531.037 97.8634C529.12 97.8564 526.584 98.2234 523.993 98.5983C521.73 98.9258 519.424 99.2595 517.452 99.3554C504.8 99.9698 495.019 97.978 483.195 94.5193C476.544 91.8523 473.003 90.3958 469.536 83.6276Z" fill="black"/>
<path d="M378.226 0.0468388C384.248 -0.217005 387.748 0.679055 391.347 1.60046C394.302 2.35706 397.325 3.13075 401.864 3.29335C404.092 3.1187 406.368 2.54002 408.616 1.96854C409.998 1.61733 411.369 1.26884 412.711 1.01851C428.867 -1.99649 435.36 14.059 440.386 26.4871C440.838 27.6034 441.278 28.6905 441.711 29.7319L452.176 54.8468C452.525 55.6822 453.088 56.9975 453.779 58.6156C453.781 58.62 453.783 58.6243 453.785 58.6287C456.96 66.0553 462.852 79.8359 463.361 82.8884C463.303 83.0259 463.254 83.1506 463.209 83.2658C462.993 83.8147 462.862 84.1475 462.284 84.6153C456.811 89.0455 430.05 81.5051 412.902 76.6731C407.767 75.2263 403.494 74.0223 400.912 73.4551C391.747 71.4409 382.482 70.1518 373.167 69.0069C333.896 65.3454 314.797 66.7699 277.568 78.2082C277.681 76.3355 277.759 74.242 277.842 72.013C278.24 61.2824 278.756 47.4116 283.85 39.9155C291.459 28.7167 305.368 26.2322 318.974 23.8017C325.644 22.6104 332.241 21.432 337.988 19.2468C343.982 16.9678 349.481 13.7567 354.946 10.5654C362.381 6.22356 369.753 1.9183 378.226 0.0468388ZM339.039 45.2019C329.526 47.0098 326.912 46.9186 317.396 46.2876C324.259 49.1876 335.039 50.7698 339.039 50.6934C343.039 50.6169 379.57 42.9397 383.335 23.878C383.856 21.2402 385.155 11.7137 381.291 11.0527C379.843 12.3689 378.97 16.6453 377.453 19.1216C369.006 32.9153 354.266 40.9551 339.039 45.2019Z" fill="black"/>
<path d="M302.066 573.206C384.193 591.407 393.284 686.521 347.317 743.516C338.811 754.067 356.145 755.839 362.925 755.247C366.781 754.912 370.826 754.617 374.739 754.331C375.102 754.305 375.463 754.278 375.823 754.252C376.246 754.221 376.667 754.19 377.085 754.16C381.38 753.83 385.691 753.752 389.996 753.927C403.868 754.635 416.54 760.057 422.006 773.549C423.871 778.155 425.007 784.771 418.227 785.513C411.118 786.287 403.904 786.223 396.705 786.159C396.704 786.159 396.702 786.159 396.701 786.159C394.911 786.144 393.121 786.128 391.335 786.125L282.852 786.076C280.132 786.074 277.177 786.141 274.108 786.21C264.468 786.428 253.707 786.67 245.596 784.878C238.844 783.383 235.286 780.192 231.411 776.717C229.448 774.956 227.404 773.123 224.821 771.399C221.017 768.861 216.318 767.885 211.764 767.997C204.925 768.163 197.735 770.218 190.841 772.188C188.487 772.861 186.168 773.523 183.909 774.098C172.379 777.029 160.694 779.752 148.943 781.698C114.516 787.396 37.3579 790.949 8.08778 770.225C4.59957 767.754 0.611922 764.177 0.0608912 759.775C-0.319027 756.742 1.12624 753.927 3.07592 751.665C7.60518 746.409 14.0965 743.783 20.7183 742.05C40.0216 736.998 59.2065 739.643 78.4411 742.296C83.6143 743.009 88.791 743.723 93.9746 744.288C103.138 745.287 112.437 745.909 121.644 745.181C134.221 744.186 149.991 740.623 158.367 730.513C160.783 727.601 161.994 724.388 161.196 720.646C160.144 715.707 157.488 710.774 154.877 705.923C153.295 702.984 151.729 700.075 150.546 697.214C142.1 676.474 136.656 654.682 134.371 632.473C130.473 592.883 136.098 555.603 148.411 517.843C158.499 486.227 175.735 458.033 193.768 430.115C196.753 425.495 199.926 420.848 203.135 416.15C217.101 395.7 231.737 374.269 234.375 349.726C234.724 346.484 234.912 343.401 235.095 340.386C235.509 333.602 235.902 327.159 238.056 320.019C241.152 309.764 246.838 301.086 252.535 292.39C257.523 284.777 262.52 277.151 265.794 268.44C269.964 256.386 271.466 244.544 272.938 232.935C275.507 212.683 277.986 193.141 294.382 174.424C322.761 142.024 381.564 129.004 423.315 124.296C444.132 121.949 467.229 123.779 484.326 135.72C486.677 137.361 488.863 138.944 490.995 140.488C496.41 144.41 501.476 148.078 507.998 151.796C513.474 154.864 518.999 157.841 524.579 160.725C525.644 161.264 526.811 161.757 527.994 162.257C532.69 164.242 537.652 166.339 537.608 171.846C537.554 178.999 534.36 183.908 529.777 189.083L529.816 189.472C530.803 200.237 524.951 211.545 516.252 218.138C516.006 218.373 514.854 218.967 513.58 219.625C511.718 220.585 509.594 221.682 509.65 221.992C511.009 229.458 504.418 233.839 497.732 238.28C491.204 242.617 482.555 245.016 474.081 247.367C469.446 248.653 464.863 249.924 460.707 251.49C447.782 256.36 438.145 266.447 435.383 280.023C432.45 293.195 437.492 306.535 442.204 319.004C442.833 320.667 443.455 322.315 444.052 323.944C452.266 346.388 454.86 369.98 451.13 393.617C448.66 409.289 444.196 426.077 437.882 440.817C431.236 435.309 419.511 419.355 414.502 411.764C413.555 410.327 412.208 407.818 410.936 405.45C410.095 403.884 409.287 402.379 408.649 401.286C407.881 398.857 407.035 396.616 406.196 394.392C404.571 390.088 402.971 385.849 402.003 380.442C401.666 378.575 401.458 376.524 401.262 374.59C401.071 372.708 400.891 370.936 400.615 369.55C398.753 372.733 399.088 383.4 399.24 388.242C399.25 388.533 399.258 388.804 399.265 389.05C402.16 418.944 418.748 436.566 434.872 453.695C451.769 471.646 468.156 489.054 467.74 519.478C467.631 527.545 464.749 537.441 459.383 543.789C456.372 547.347 447.152 555.229 442.46 552.642C442.211 551.642 442.794 550.204 443.442 548.605C444.37 546.317 445.431 543.699 444.38 541.562C443.424 541.334 442.245 541.416 440.928 541.508C437.157 541.772 432.249 542.114 428.191 535.5C425.45 531.03 425.447 526.635 425.444 522.346C425.44 516.059 425.437 510.002 416.803 504.277C413.495 502.083 409.373 499.797 405.495 498.438C402.337 496.943 398.975 495.799 395.643 494.666C395.64 494.664 395.636 494.663 395.633 494.662C395.629 494.661 395.626 494.66 395.622 494.658C395.046 494.463 394.472 494.267 393.899 494.07L391.677 493.531C390.058 493.028 388.452 492.532 386.857 492.04C354.884 482.172 327.936 473.854 309.971 441.322C309.402 440.294 308.305 437.716 307.229 435.189C306.024 432.358 304.846 429.591 304.468 429.135C302.914 438.696 311.534 458.426 317.545 466.434C336.896 492.216 366.382 500.054 396.751 505.335C396.87 505.356 397.05 505.386 397.279 505.424C399.472 505.789 406.125 506.896 406.224 508.043C407.917 527.332 413.234 545.626 418.606 564.112C419.591 567.502 420.578 570.898 421.545 574.308C429.441 602.172 431.98 632.06 425.245 660.404C417.984 690.972 391.498 733.333 359.83 744.472C360.637 743.359 361.458 742.234 362.286 741.099C367.237 734.313 372.446 727.175 376.381 720.069C390.432 694.675 397.287 666.073 392.228 637.409C388.116 613.762 374.581 592.684 354.593 578.798C333.524 564.601 307.522 559.248 282.389 563.922C282.295 563.938 282.202 563.955 282.108 563.971C280.651 564.228 279.294 564.468 277.855 564.883C268.876 565.883 254.66 570.935 246.89 575.56C249.445 575.177 251.946 574.67 254.447 574.162L254.448 574.161L254.45 574.161C256.83 573.678 259.211 573.194 261.64 572.818C275.043 570.741 288.707 570.872 302.066 573.206ZM440.6 164.928C444.94 164.003 448.486 163.072 450.996 158.989C452.514 156.486 452.886 153.474 452.023 150.689C450.158 144.557 443.918 141.078 437.595 141.261C419.749 146.05 421.867 164.617 440.6 164.928Z" fill="black"/>
<path d="M456.248 416.123C456.936 416.703 459.068 419.493 461.21 422.295L461.21 422.296L461.211 422.297C462.991 424.625 464.776 426.962 465.746 428.048C468.058 430.635 470.356 433.15 472.642 435.652C472.643 435.653 472.644 435.654 472.645 435.655C477.152 440.587 481.61 445.466 486.022 450.733C499.894 467.303 504.199 492.017 495.282 511.771C492.985 516.857 489.518 520.201 485.124 523.516C482.079 525.493 480.093 526.033 476.836 526.919C476.639 526.972 476.438 527.027 476.231 527.084C476.445 526.423 476.739 525.68 477.047 524.903C477.705 523.243 478.424 521.43 478.542 519.939C478.655 518.542 478.089 518.241 477.46 517.905C476.783 517.544 476.033 517.144 475.968 515.304C475.932 514.265 475.903 513.239 475.873 512.22C475.873 512.218 475.873 512.216 475.873 512.214C475.752 507.963 475.634 503.848 475.026 499.535C472.049 478.469 459.757 465.137 445.921 450.13C445.858 450.063 445.796 449.995 445.734 449.927C449.245 441.129 452.073 431.022 454.732 421.518L454.732 421.515C454.734 421.509 454.736 421.502 454.738 421.495C455.246 419.678 455.749 417.883 456.248 416.123Z" fill="black"/>
<path d="M411.665 740.225C415.777 740.031 419.893 739.944 424.01 739.968C439.777 740.143 457.587 741.686 464.685 758.436C466.173 761.94 468.36 768.254 465.186 771.244C462.036 772.579 455.87 772.333 451.346 772.152C450.442 772.116 449.604 772.082 448.868 772.064C448.057 772.06 447.245 772.057 446.433 772.054C442.086 772.038 437.728 772.023 433.399 771.749C432.987 770.771 432.617 769.838 432.259 768.936L432.258 768.934C430.887 765.479 429.698 762.48 427.055 759.198C417.354 747.151 406.591 745.127 392.352 743.021C398.928 741.099 404.855 740.623 411.665 740.225Z" fill="black"/>
<path fill-rule="evenodd" clip-rule="evenodd" d="M485.115 77.7353L485.12 77.7336L485.122 77.7331C486.508 77.2529 487.835 76.7932 489.057 76.36C491.57 75.4688 494.33 74.3989 497.261 73.2627C512.211 67.4681 531.604 59.9511 545.197 65.6502C574.717 78.0276 551.402 105.982 531.463 112.467C508.277 120.007 486.412 118.998 463.759 117.952C454.489 117.524 445.086 117.09 435.407 117.233C388.557 117.938 335.736 125.397 297.422 153.898C286.782 161.813 277.399 172.048 271.966 183.965C269.665 189.083 267.976 194.445 266.933 199.943C266.826 200.514 266.763 201.215 266.696 201.965C266.472 204.488 266.198 207.563 263.986 208.083C236.406 214.567 182.163 210.539 181.578 173.059C181.106 142.895 217.925 114.262 242.42 101.827C294.969 75.1505 355.818 74.8534 412.29 88.02C417.395 89.1945 422.872 90.5899 428.5 92.0238C441.586 95.3581 455.489 98.9003 467.438 100.357C487.391 104.516 512.482 108.003 531.037 97.8634C529.12 97.8564 526.584 98.2234 523.993 98.5983C521.73 98.9258 519.424 99.2595 517.452 99.3554C504.8 99.9698 495.019 97.978 483.195 94.5193C476.544 91.8523 473.003 90.3958 469.536 83.6276C474.025 81.5769 479.977 79.5151 485.113 77.7359L485.115 77.7353ZM391.347 1.60046C394.302 2.35706 397.325 3.13075 401.864 3.29335C404.092 3.1187 406.368 2.54002 408.616 1.96854C409.998 1.61733 411.369 1.26884 412.711 1.01851C428.867 -1.99649 435.36 14.059 440.386 26.4871C440.838 27.6034 441.278 28.6905 441.711 29.7319L452.176 54.8468C452.525 55.6822 453.088 56.9975 453.779 58.6156L453.785 58.6287C456.96 66.0553 462.852 79.8359 463.361 82.8884C463.303 83.0259 463.254 83.1506 463.209 83.2658C462.993 83.8147 462.862 84.1475 462.284 84.6153C456.811 89.0455 430.05 81.5051 412.902 76.6731C407.767 75.2263 403.494 74.0223 400.912 73.4551C391.747 71.4409 382.482 70.1518 373.167 69.0069C333.896 65.3454 314.797 66.7699 277.568 78.2082C277.681 76.3355 277.759 74.242 277.842 72.013C278.24 61.2824 278.756 47.4116 283.85 39.9155C291.459 28.7167 305.368 26.2322 318.974 23.8017C325.644 22.6104 332.241 21.432 337.988 19.2468C343.982 16.9678 349.481 13.7567 354.946 10.5654C362.381 6.22356 369.753 1.9183 378.226 0.0468388C384.248 -0.217005 387.748 0.679055 391.347 1.60046ZM302.066 573.206C384.193 591.407 393.284 686.521 347.317 743.516C338.811 754.067 356.145 755.839 362.925 755.247C366.781 754.912 370.826 754.617 374.739 754.331L375.823 754.252C376.246 754.221 376.667 754.19 377.085 754.16C381.38 753.83 385.691 753.752 389.996 753.927C403.868 754.635 416.54 760.057 422.006 773.549C423.871 778.155 425.007 784.771 418.227 785.513C411.118 786.287 403.904 786.223 396.705 786.159H396.701C394.911 786.144 393.121 786.128 391.335 786.125L282.852 786.076C280.132 786.074 277.177 786.141 274.108 786.21C264.468 786.428 253.707 786.67 245.596 784.878C238.844 783.383 235.286 780.192 231.411 776.717C229.448 774.956 227.404 773.123 224.821 771.399C221.017 768.861 216.318 767.885 211.764 767.997C204.925 768.163 197.735 770.218 190.841 772.188C188.487 772.861 186.168 773.523 183.909 774.098C172.379 777.029 160.694 779.752 148.943 781.698C114.516 787.396 37.3579 790.949 8.08778 770.225C4.59957 767.754 0.611922 764.177 0.0608912 759.775C-0.319027 756.742 1.12624 753.927 3.07592 751.665C7.60518 746.409 14.0965 743.783 20.7183 742.05C40.0216 736.998 59.2065 739.643 78.4411 742.296C83.6143 743.009 88.791 743.723 93.9746 744.288C103.138 745.287 112.437 745.909 121.644 745.181C134.221 744.186 149.991 740.623 158.367 730.513C160.783 727.601 161.994 724.388 161.196 720.646C160.144 715.707 157.488 710.774 154.877 705.923C153.295 702.984 151.729 700.075 150.546 697.214C142.1 676.474 136.656 654.682 134.371 632.473C130.473 592.883 136.098 555.603 148.411 517.843C158.499 486.227 175.735 458.033 193.768 430.115C196.753 425.495 199.926 420.848 203.135 416.15C217.101 395.7 231.737 374.269 234.375 349.726C234.724 346.484 234.912 343.401 235.095 340.386C235.509 333.602 235.902 327.159 238.056 320.019C241.152 309.764 246.838 301.086 252.535 292.39C257.523 284.777 262.52 277.151 265.794 268.44C269.964 256.386 271.466 244.544 272.938 232.935C275.507 212.683 277.986 193.141 294.382 174.424C322.761 142.024 381.564 129.004 423.315 124.296C444.132 121.949 467.229 123.779 484.326 135.72C486.677 137.361 488.863 138.944 490.995 140.488C496.41 144.41 501.476 148.078 507.998 151.796C513.474 154.864 518.999 157.841 524.579 160.725C525.644 161.264 526.811 161.757 527.994 162.257C532.69 164.242 537.652 166.339 537.608 171.846C537.554 178.999 534.36 183.908 529.777 189.083L529.816 189.472C530.803 200.237 524.951 211.545 516.252 218.138C516.006 218.373 514.854 218.967 513.58 219.625C511.718 220.585 509.594 221.682 509.65 221.992C511.009 229.458 504.418 233.839 497.732 238.28C491.204 242.617 482.555 245.016 474.081 247.367C469.446 248.653 464.863 249.924 460.707 251.49C447.782 256.36 438.145 266.447 435.383 280.023C432.45 293.195 437.492 306.535 442.204 319.004C442.833 320.667 443.455 322.315 444.052 323.944C452.266 346.388 454.86 369.98 451.13 393.617C448.66 409.289 444.196 426.077 437.882 440.817C431.236 435.309 419.511 419.355 414.502 411.764C413.555 410.327 412.208 407.818 410.936 405.45C410.095 403.884 409.287 402.379 408.649 401.286C407.881 398.857 407.035 396.616 406.196 394.392C404.571 390.088 402.971 385.849 402.003 380.442C401.666 378.575 401.458 376.524 401.262 374.59C401.071 372.708 400.891 370.936 400.615 369.55C398.753 372.733 399.088 383.4 399.24 388.242C399.25 388.533 399.258 388.804 399.265 389.05C402.16 418.944 418.748 436.566 434.872 453.695C451.769 471.646 468.156 489.054 467.74 519.478C467.631 527.545 464.749 537.441 459.383 543.789C456.372 547.347 447.152 555.229 442.46 552.642C442.211 551.642 442.794 550.204 443.442 548.605C444.37 546.317 445.431 543.699 444.38 541.562C443.424 541.334 442.245 541.416 440.928 541.508C437.157 541.772 432.249 542.114 428.191 535.5C425.45 531.03 425.447 526.635 425.444 522.346C425.44 516.059 425.437 510.002 416.803 504.277C413.495 502.083 409.373 499.797 405.495 498.438C402.337 496.943 398.975 495.799 395.643 494.666L395.633 494.662L395.622 494.658C395.046 494.463 394.472 494.267 393.899 494.07L391.677 493.531C390.058 493.028 388.452 492.532 386.857 492.04C354.884 482.172 327.936 473.854 309.971 441.322C309.402 440.294 308.305 437.716 307.229 435.189C306.024 432.358 304.846 429.591 304.468 429.135C302.914 438.696 311.534 458.426 317.545 466.434C336.896 492.216 366.382 500.054 396.751 505.335C396.87 505.356 397.05 505.386 397.279 505.424C399.472 505.789 406.125 506.896 406.224 508.043C407.917 527.332 413.234 545.626 418.606 564.112C419.591 567.502 420.578 570.898 421.545 574.308C429.441 602.172 431.98 632.06 425.245 660.404C417.984 690.972 391.498 733.333 359.83 744.472C360.637 743.359 361.458 742.234 362.286 741.099C367.237 734.313 372.446 727.175 376.381 720.069C390.432 694.675 397.287 666.073 392.228 637.409C388.116 613.762 374.581 592.684 354.593 578.798C333.524 564.601 307.522 559.248 282.389 563.922L282.108 563.971C280.651 564.228 279.294 564.468 277.855 564.883C268.876 565.883 254.66 570.935 246.89 575.56C249.445 575.177 251.946 574.67 254.447 574.162L254.448 574.161L254.45 574.161C256.83 573.678 259.211 573.194 261.64 572.818C275.043 570.741 288.707 570.872 302.066 573.206ZM461.21 422.295L461.21 422.296L461.211 422.297C462.991 424.625 464.776 426.962 465.746 428.048C468.058 430.635 470.356 433.15 472.642 435.652L472.645 435.655C477.152 440.587 481.61 445.466 486.022 450.733C499.894 467.303 504.199 492.017 495.282 511.771C492.985 516.857 489.518 520.201 485.124 523.516C482.079 525.493 480.093 526.033 476.836 526.919C476.639 526.972 476.438 527.027 476.231 527.084C476.445 526.423 476.739 525.68 477.047 524.903C477.705 523.243 478.424 521.43 478.542 519.939C478.655 518.542 478.089 518.241 477.46 517.905C476.783 517.544 476.033 517.144 475.968 515.304C475.932 514.265 475.903 513.239 475.873 512.22L475.873 512.214C475.752 507.963 475.634 503.848 475.026 499.535C472.049 478.469 459.757 465.137 445.921 450.13L445.734 449.927C449.245 441.129 452.073 431.022 454.732 421.518L454.732 421.515L454.738 421.495C455.246 419.678 455.749 417.883 456.248 416.123C456.936 416.703 459.068 419.493 461.21 422.295ZM411.665 740.225C415.777 740.031 419.893 739.944 424.01 739.968C439.777 740.143 457.587 741.686 464.685 758.436C466.173 761.94 468.36 768.254 465.186 771.244C462.036 772.579 455.87 772.333 451.346 772.152C450.442 772.116 449.604 772.082 448.868 772.064C448.057 772.06 447.245 772.057 446.433 772.054C442.086 772.038 437.728 772.023 433.399 771.749C432.987 770.771 432.617 769.838 432.259 768.936L432.258 768.934C430.887 765.479 429.698 762.48 427.055 759.198C417.354 747.151 406.591 745.127 392.352 743.021C398.928 741.099 404.855 740.623 411.665 740.225ZM450.996 158.989C448.486 163.072 444.94 164.003 440.6 164.928C421.867 164.617 419.749 146.05 437.595 141.261C443.918 141.078 450.158 144.557 452.023 150.689C452.886 153.474 452.514 156.486 450.996 158.989Z" fill="black"/>
<path d="M469.536 83.6276L468.912 82.2632L467.485 82.9151L468.201 84.3115L469.536 83.6276ZM489.057 76.36L489.558 77.7738L489.559 77.7737L489.057 76.36ZM545.197 65.6502L544.617 67.0335L544.617 67.0336L545.197 65.6502ZM531.463 112.467L531.927 113.894L531.927 113.894L531.463 112.467ZM435.407 117.233L435.385 115.733L435.385 115.733L435.407 117.233ZM297.422 153.898L296.527 152.694L296.527 152.694L297.422 153.898ZM271.966 183.965L270.601 183.343L270.597 183.35L271.966 183.965ZM266.933 199.943L265.46 199.663L265.459 199.665L266.933 199.943ZM263.986 208.083L263.643 206.623L263.643 206.623L263.986 208.083ZM181.578 173.059L183.078 173.035L183.078 173.035L181.578 173.059ZM242.42 101.827L241.741 100.489L241.741 100.489L242.42 101.827ZM412.29 88.02L411.949 89.4809L411.954 89.4819L412.29 88.02ZM467.438 100.357L467.744 98.8882L467.682 98.8753L467.619 98.8677L467.438 100.357ZM531.037 97.8634L531.756 99.1797L531.042 96.3634L531.037 97.8634ZM517.452 99.3554L517.525 100.854L517.525 100.854L517.452 99.3554ZM483.195 94.5193L482.636 95.9116L482.704 95.9386L482.774 95.959L483.195 94.5193ZM378.226 0.0468388L378.161 -1.45172L378.03 -1.44601L377.903 -1.41786L378.226 0.0468388ZM401.864 3.29335L401.811 4.79239L401.896 4.79546L401.982 4.78876L401.864 3.29335ZM412.711 1.01851L412.986 2.49309L412.987 2.49305L412.711 1.01851ZM441.711 29.7319L440.327 30.3086L440.327 30.3088L441.711 29.7319ZM452.176 54.8468L450.792 55.4238L450.792 55.4248L452.176 54.8468ZM463.361 82.8884L464.744 83.4685L464.911 83.0691L464.84 82.6419L463.361 82.8884ZM462.284 84.6153L461.341 83.4492L461.341 83.4493L462.284 84.6153ZM400.912 73.4551L400.59 74.9202L400.59 74.9202L400.912 73.4551ZM373.167 69.0069L373.35 67.5181L373.328 67.5154L373.306 67.5134L373.167 69.0069ZM277.568 78.2082L276.071 78.118L275.941 80.2774L278.009 79.642L277.568 78.2082ZM283.85 39.9155L285.09 40.7585L285.09 40.7585L283.85 39.9155ZM337.988 19.2468L337.455 17.8447L337.454 17.8448L337.988 19.2468ZM302.066 573.206L302.391 571.742L302.358 571.735L302.325 571.729L302.066 573.206ZM347.317 743.516L346.149 742.574L346.149 742.574L347.317 743.516ZM362.925 755.247L362.795 753.752L362.795 753.753L362.925 755.247ZM377.085 754.16L377.195 755.656L377.2 755.655L377.085 754.16ZM389.996 753.927L390.072 752.429L390.064 752.428L390.056 752.428L389.996 753.927ZM422.006 773.549L423.396 772.986L423.396 772.986L422.006 773.549ZM418.227 785.513L418.389 787.005L418.39 787.004L418.227 785.513ZM391.335 786.125L391.337 784.625L391.335 784.625L391.335 786.125ZM282.852 786.076L282.85 787.576L282.851 787.576L282.852 786.076ZM245.596 784.878L245.272 786.342L245.272 786.342L245.596 784.878ZM224.821 771.399L225.654 770.152L225.654 770.152L224.821 771.399ZM211.764 767.997L211.8 769.497L211.801 769.497L211.764 767.997ZM183.909 774.098L184.278 775.552L184.278 775.552L183.909 774.098ZM148.943 781.698L149.188 783.178L149.188 783.178L148.943 781.698ZM8.08778 770.225L7.22084 771.449L7.22099 771.449L8.08778 770.225ZM0.0608912 759.775L1.54928 759.589L1.54926 759.589L0.0608912 759.775ZM3.07592 751.665L4.21206 752.644L4.21226 752.644L3.07592 751.665ZM20.7183 742.05L21.098 743.501L21.0982 743.501L20.7183 742.05ZM93.9746 744.288L94.1373 742.797L94.1371 742.796L93.9746 744.288ZM121.644 745.181L121.762 746.676L121.762 746.676L121.644 745.181ZM158.367 730.513L157.213 729.556L157.212 729.556L158.367 730.513ZM161.196 720.646L162.663 720.334L162.663 720.334L161.196 720.646ZM150.546 697.214L149.157 697.779L149.16 697.787L150.546 697.214ZM134.371 632.473L132.878 632.62L132.878 632.626L134.371 632.473ZM148.411 517.843L149.837 518.308L149.84 518.298L148.411 517.843ZM193.768 430.115L195.028 430.929L195.028 430.929L193.768 430.115ZM234.375 349.726L232.884 349.565L232.884 349.565L234.375 349.726ZM238.056 320.019L239.492 320.453L239.493 320.453L238.056 320.019ZM265.794 268.44L267.198 268.968L267.205 268.949L267.212 268.931L265.794 268.44ZM294.382 174.424L295.51 175.412L295.51 175.412L294.382 174.424ZM423.315 124.296L423.147 122.805L423.147 122.805L423.315 124.296ZM484.326 135.72L483.467 136.949L483.467 136.95L484.326 135.72ZM507.998 151.796L507.256 153.099L507.265 153.105L507.998 151.796ZM524.579 160.725L523.89 162.058L523.902 162.064L524.579 160.725ZM537.608 171.846L536.108 171.834L536.108 171.834L537.608 171.846ZM529.777 189.083L528.654 188.089L528.218 188.581L528.285 189.235L529.777 189.083ZM529.816 189.472L531.31 189.335L531.31 189.327L531.309 189.32L529.816 189.472ZM516.252 218.138L515.346 216.942L515.276 216.995L515.214 217.055L516.252 218.138ZM509.65 221.992L508.174 222.258L508.174 222.261L509.65 221.992ZM497.732 238.28L496.902 237.03L496.902 237.03L497.732 238.28ZM460.707 251.49L461.236 252.894L461.236 252.894L460.707 251.49ZM435.383 280.023L436.847 280.349L436.85 280.335L436.852 280.322L435.383 280.023ZM444.052 323.944L445.461 323.428L445.461 323.428L444.052 323.944ZM451.13 393.617L449.648 393.383L449.648 393.384L451.13 393.617ZM437.882 440.817L436.925 441.972L438.471 443.253L439.261 441.408L437.882 440.817ZM414.502 411.764L413.249 412.589L413.25 412.591L414.502 411.764ZM408.649 401.286L407.219 401.738L407.27 401.897L407.354 402.041L408.649 401.286ZM402.003 380.442L403.48 380.177L403.479 380.175L402.003 380.442ZM400.615 369.55L402.086 369.257L401.313 365.385L399.32 368.793L400.615 369.55ZM399.265 389.05L397.766 389.094L397.768 389.145L397.772 389.194L399.265 389.05ZM467.74 519.478L466.24 519.458L466.24 519.458L467.74 519.478ZM459.383 543.789L460.528 544.758L460.528 544.758L459.383 543.789ZM442.46 552.642L441.004 553.004L441.163 553.64L441.736 553.956L442.46 552.642ZM444.38 541.562L445.726 540.9L445.414 540.266L444.727 540.102L444.38 541.562ZM428.191 535.5L426.912 536.284L426.912 536.284L428.191 535.5ZM416.803 504.277L415.974 505.527L415.974 505.527L416.803 504.277ZM405.495 498.438L404.853 499.794L404.924 499.828L404.999 499.854L405.495 498.438ZM393.899 494.07L394.387 492.652L394.321 492.629L394.252 492.612L393.899 494.07ZM391.677 493.531L391.232 494.964L391.277 494.978L391.323 494.989L391.677 493.531ZM309.971 441.322L311.284 440.597L311.283 440.596L309.971 441.322ZM304.468 429.135L305.624 428.178L303.518 425.634L302.988 428.894L304.468 429.135ZM317.545 466.434L316.345 467.335L316.345 467.335L317.545 466.434ZM396.751 505.335L397.013 503.858L397.008 503.857L396.751 505.335ZM406.224 508.043L404.73 508.172L404.73 508.174L406.224 508.043ZM421.545 574.308L422.988 573.899L422.988 573.899L421.545 574.308ZM425.245 660.404L423.785 660.058L423.785 660.058L425.245 660.404ZM359.83 744.472L358.616 743.592L355.799 747.48L360.328 745.887L359.83 744.472ZM376.381 720.069L377.693 720.795L377.694 720.795L376.381 720.069ZM392.228 637.409L390.75 637.666L390.75 637.669L392.228 637.409ZM354.593 578.798L355.449 577.566L355.44 577.56L355.431 577.554L354.593 578.798ZM277.855 564.883L278.021 566.373L278.148 566.359L278.271 566.324L277.855 564.883ZM246.89 575.56L246.123 574.272L247.112 577.044L246.89 575.56ZM261.64 572.818L261.869 574.301L261.869 574.3L261.64 572.818ZM440.6 164.928L440.575 166.427L440.746 166.43L440.913 166.395L440.6 164.928ZM450.996 158.989L452.274 159.774L452.278 159.767L450.996 158.989ZM452.023 150.689L450.587 151.125L450.59 151.133L452.023 150.689ZM437.595 141.261L437.551 139.762L437.375 139.767L437.206 139.812L437.595 141.261ZM456.248 416.123L457.216 414.976L455.44 413.478L454.805 415.713L456.248 416.123ZM465.746 428.048L464.628 429.047L464.628 429.047L465.746 428.048ZM486.022 450.733L487.172 449.77L487.172 449.77L486.022 450.733ZM495.282 511.771L496.649 512.388L496.649 512.388L495.282 511.771ZM485.124 523.516L485.941 524.774L485.985 524.746L486.027 524.714L485.124 523.516ZM476.231 527.084L474.804 526.622L473.951 529.261L476.626 528.531L476.231 527.084ZM478.542 519.939L477.047 519.819L477.047 519.821L478.542 519.939ZM475.968 515.304L477.467 515.252L477.467 515.252L475.968 515.304ZM475.026 499.535L476.511 499.326L476.511 499.325L475.026 499.535ZM411.665 740.225L411.594 738.727L411.586 738.727L411.577 738.728L411.665 740.225ZM424.01 739.968L424.026 738.468L424.019 738.468L424.01 739.968ZM464.685 758.436L463.304 759.021L463.304 759.022L464.685 758.436ZM465.186 771.244L465.771 772.625L466.019 772.52L466.214 772.336L465.186 771.244ZM448.868 772.064L448.904 770.565L448.89 770.564L448.877 770.564L448.868 772.064ZM433.399 771.749L432.016 772.331L432.377 773.187L433.304 773.246L433.399 771.749ZM427.055 759.198L428.223 758.257L428.223 758.257L427.055 759.198ZM392.352 743.021L391.931 741.581L392.132 744.505L392.352 743.021ZM485.122 77.7331L485.609 79.1516L485.613 79.1505L485.122 77.7331ZM497.261 73.2627L496.719 71.8641L496.719 71.8641L497.261 73.2627ZM463.759 117.952L463.829 116.454L463.829 116.454L463.759 117.952ZM266.696 201.965L268.191 202.098L268.191 202.098L266.696 201.965ZM428.5 92.0238L428.13 93.4774L428.13 93.4774L428.5 92.0238ZM523.993 98.5983L523.778 97.1138L523.778 97.1138L523.993 98.5983ZM485.113 77.7359L484.633 76.3149L484.622 76.3185L485.113 77.7359ZM391.347 1.60046L391.719 0.147322L391.719 0.147321L391.347 1.60046ZM408.616 1.96854L408.986 3.42231L408.986 3.42231L408.616 1.96854ZM440.386 26.4871L441.777 25.9247L441.777 25.9247L440.386 26.4871ZM463.209 83.2658L464.605 83.8141L464.605 83.814L463.209 83.2658ZM412.902 76.6731L412.495 78.1169L412.495 78.1169L412.902 76.6731ZM277.842 72.013L276.343 71.9573L276.343 71.9573L277.842 72.013ZM318.974 23.8017L318.711 22.3251L318.711 22.3251L318.974 23.8017ZM354.946 10.5654L354.189 9.27012L354.189 9.27012L354.946 10.5654ZM274.108 786.21L274.142 787.71L274.142 787.71L274.108 786.21ZM231.411 776.717L230.41 777.833L230.41 777.833L231.411 776.717ZM190.841 772.188L190.428 770.746L190.428 770.746L190.841 772.188ZM78.4411 742.296L78.2362 743.782L78.2362 743.782L78.4411 742.296ZM154.877 705.923L156.198 705.212L156.198 705.212L154.877 705.923ZM203.135 416.15L204.373 416.996L204.373 416.996L203.135 416.15ZM235.095 340.386L236.593 340.478L236.593 340.477L235.095 340.386ZM252.535 292.39L253.789 293.213L253.789 293.213L252.535 292.39ZM272.938 232.935L271.45 232.746L271.45 232.746L272.938 232.935ZM490.995 140.488L491.875 139.274L491.875 139.274L490.995 140.488ZM527.994 162.257L527.41 163.639L527.41 163.639L527.994 162.257ZM513.58 219.625L512.893 218.292L512.892 218.292L513.58 219.625ZM474.081 247.367L473.68 245.922L473.68 245.922L474.081 247.367ZM442.204 319.004L443.607 318.474L443.607 318.474L442.204 319.004ZM410.936 405.45L412.258 404.74L412.258 404.74L410.936 405.45ZM406.196 394.392L407.599 393.862L407.599 393.862L406.196 394.392ZM401.262 374.59L402.754 374.438L402.754 374.438L401.262 374.59ZM399.24 388.242L400.74 388.195L400.74 388.195L399.24 388.242ZM434.872 453.695L433.779 454.723L433.779 454.723L434.872 453.695ZM443.442 548.605L442.052 548.041L442.052 548.041L443.442 548.605ZM440.928 541.508L441.032 543.005L441.032 543.005L440.928 541.508ZM425.444 522.346L423.944 522.347L423.944 522.347L425.444 522.346ZM386.857 492.04L387.3 490.607L386.857 492.04ZM307.229 435.189L305.849 435.776L305.849 435.776L307.229 435.189ZM397.279 505.424L397.033 506.904L397.033 506.904L397.279 505.424ZM418.606 564.112L417.165 564.53L417.165 564.53L418.606 564.112ZM362.286 741.099L363.498 741.983L363.498 741.983L362.286 741.099ZM254.447 574.162L254.21 572.68L254.179 572.685L254.149 572.692L254.447 574.162ZM254.448 574.161L254.685 575.643L254.722 575.637L254.757 575.629L254.448 574.161ZM254.45 574.161L254.152 572.691L254.141 572.693L254.45 574.161ZM461.21 422.295L460.018 423.206L460.028 423.219L460.038 423.232L461.21 422.295ZM461.21 422.296L462.399 421.382L462.391 421.37L462.382 421.359L461.21 422.296ZM461.211 422.297L462.403 421.386L462.4 421.383L461.211 422.297ZM476.836 526.919L477.23 528.366L477.23 528.366L476.836 526.919ZM477.047 524.903L478.442 525.456L478.442 525.456L477.047 524.903ZM477.46 517.905L478.165 516.581L478.165 516.581L477.46 517.905ZM454.732 421.518L456.176 421.922L456.178 421.915L456.18 421.908L454.732 421.518ZM451.346 772.152L451.286 773.65L451.286 773.65L451.346 772.152ZM446.433 772.054L446.439 770.554L446.439 770.554L446.433 772.054ZM432.259 768.936L433.653 768.383L433.643 768.358L433.633 768.334L432.259 768.936ZM432.258 768.934L430.864 769.487L430.873 769.512L430.884 769.535L432.258 768.934ZM545.197 65.6502L544.617 67.0336C551.758 70.0277 555.439 73.8487 556.902 77.7964C558.368 81.7512 557.731 86.166 555.533 90.6024C551.104 99.5418 540.636 107.906 530.999 111.041L531.463 112.467L531.927 113.894C542.229 110.543 553.388 101.688 558.221 91.9344C560.654 87.0244 561.558 81.7244 559.715 76.7539C557.871 71.7764 553.396 67.4615 545.777 64.2669L545.197 65.6502ZM435.407 117.233L435.385 115.733C388.463 116.44 335.235 123.9 296.527 152.694L297.422 153.898L298.317 155.101C336.236 126.894 388.652 119.437 435.43 118.733L435.407 117.233ZM297.422 153.898L296.527 152.694C285.743 160.716 276.165 171.137 270.601 183.343L271.966 183.965L273.33 184.587C278.632 172.959 287.822 162.909 298.317 155.101L297.422 153.898ZM271.966 183.965L270.597 183.35C268.249 188.575 266.524 194.049 265.46 199.663L266.933 199.943L268.407 200.222C269.428 194.84 271.081 189.591 273.334 184.58L271.966 183.965ZM263.986 208.083L263.643 206.623C250.065 209.815 229.872 210.417 213.071 205.616C204.681 203.218 197.24 199.502 191.879 194.19C186.55 188.911 183.218 182.002 183.078 173.035L181.578 173.059L180.078 173.082C180.231 182.856 183.898 190.506 189.767 196.321C195.603 202.103 203.556 206.016 212.247 208.5C229.609 213.462 250.328 212.835 264.33 209.543L263.986 208.083ZM181.578 173.059L183.078 173.035C182.851 158.556 191.597 144.228 203.709 131.843C215.782 119.497 230.97 109.322 243.099 103.164L242.42 101.827L241.741 100.489C229.375 106.767 213.906 117.126 201.564 129.746C189.26 142.328 179.833 157.398 180.078 173.082L181.578 173.059ZM242.42 101.827L243.099 103.164C295.229 76.7002 355.688 76.3634 411.949 89.4809L412.29 88.02L412.631 86.5592C355.948 73.3434 294.708 73.6007 241.741 100.489L242.42 101.827ZM467.438 100.357L467.131 101.825C477.138 103.911 488.512 105.846 499.745 105.972C510.973 106.098 522.17 104.418 531.756 99.1797L531.037 97.8634L530.317 96.5472C521.349 101.448 510.723 103.095 499.778 102.972C488.839 102.85 477.691 100.962 467.744 98.8882L467.438 100.357ZM517.452 99.3554L517.379 97.8572C504.958 98.4604 495.357 96.514 483.616 93.0797L483.195 94.5193L482.774 95.959C494.681 99.4419 504.641 101.479 517.525 100.854L517.452 99.3554ZM483.195 94.5193L483.753 93.1271C480.386 91.7768 478.02 90.8102 476.046 89.3929C474.13 88.0176 472.521 86.165 470.871 82.9438L469.536 83.6276L468.201 84.3115C470.017 87.8584 471.912 90.1182 474.296 91.8299C476.622 93.4997 479.353 94.5948 482.636 95.9116L483.195 94.5193ZM441.711 29.7319L440.327 30.3088L450.792 55.4238L452.176 54.8468L453.561 54.2699L443.096 29.1549L441.711 29.7319ZM400.912 73.4551L401.234 71.9901C391.997 69.9602 382.675 68.6644 373.35 67.5181L373.167 69.0069L372.984 70.4957C382.288 71.6393 391.496 72.9216 400.59 74.9202L400.912 73.4551ZM373.167 69.0069L373.306 67.5134C353.636 65.6794 338.937 65.1107 324.463 66.4515C309.984 67.7929 295.794 71.0392 277.128 76.7743L277.568 78.2082L278.009 79.642C296.571 73.9389 310.544 70.7538 324.74 69.4387C338.941 68.1231 353.427 68.6729 373.028 70.5004L373.167 69.0069ZM336.073 50.9696L336.206 49.4755C328.852 48.8186 324.704 47.7473 317.979 44.9059L317.396 46.2876L316.812 47.6694C323.814 50.6279 328.265 51.7781 335.94 52.4636L336.073 50.9696ZM302.066 573.206L301.742 574.671C342.181 583.633 364.573 611.468 371.257 644.114C377.957 676.837 368.863 714.411 346.149 742.574L347.317 743.516L348.484 744.458C371.738 715.626 381.082 677.146 374.196 643.513C367.295 609.803 344.078 580.981 302.391 571.742L302.066 573.206ZM347.317 743.516L346.149 742.574C343.891 745.376 343.021 747.998 343.788 750.348C344.53 752.626 346.63 754.051 348.82 754.948C353.244 756.762 359.54 757.048 363.056 756.741L362.925 755.247L362.795 753.753C359.53 754.038 353.769 753.734 349.958 752.172C348.03 751.382 346.967 750.422 346.64 749.419C346.336 748.487 346.49 746.932 348.485 744.457L347.317 743.516ZM377.085 754.16L377.2 755.655C381.437 755.33 385.688 755.253 389.935 755.425L389.996 753.927L390.056 752.428C385.693 752.251 381.324 752.33 376.97 752.664L377.085 754.16ZM389.996 753.927L389.919 755.425C403.485 756.118 415.457 761.376 420.616 774.113L422.006 773.549L423.396 772.986C417.624 758.737 404.251 753.153 390.072 752.429L389.996 753.927ZM422.006 773.549L420.616 774.112C421.521 776.349 422.146 778.849 421.873 780.769C421.742 781.689 421.417 782.394 420.893 782.904C420.371 783.413 419.512 783.864 418.063 784.022L418.227 785.513L418.39 787.004C420.331 786.792 421.873 786.137 422.986 785.053C424.098 783.97 424.644 782.593 424.843 781.191C425.231 778.466 424.356 775.356 423.396 772.986L422.006 773.549ZM224.821 771.399L225.654 770.152C221.527 767.398 216.5 766.38 211.727 766.497L211.764 767.997L211.801 769.497C216.136 769.39 220.507 770.324 223.989 772.647L224.821 771.399ZM183.909 774.098L183.539 772.644C172.026 775.571 160.388 778.282 148.698 780.219L148.943 781.698L149.188 783.178C161 781.222 172.732 778.487 184.278 775.552L183.909 774.098ZM148.943 781.698L148.698 780.219C131.582 783.051 103.786 785.357 76.6361 784.371C63.0637 783.878 49.6893 782.563 37.9112 780.094C26.1099 777.62 16.0297 774.01 8.95457 769.001L8.08778 770.225L7.22099 771.449C14.7809 776.802 25.3218 780.52 37.2956 783.03C49.2928 785.545 62.8478 786.872 76.5271 787.369C103.881 788.363 131.877 786.043 149.188 783.178L148.943 781.698ZM8.08778 770.225L8.95471 769.001C7.25879 767.8 5.50057 766.37 4.11211 764.749C2.72044 763.124 1.77538 761.395 1.54928 759.589L0.0608912 759.775L-1.42749 759.961C-1.10257 762.557 0.221715 764.818 1.83368 766.7C3.44885 768.586 5.42856 770.179 7.22084 771.449L8.08778 770.225ZM0.0608912 759.775L1.54926 759.589C1.24492 757.159 2.39072 754.757 4.21206 752.644L3.07592 751.665L1.93979 750.686C-0.13825 753.096 -1.88298 756.325 -1.42748 759.962L0.0608912 759.775ZM3.07592 751.665L4.21226 752.644C8.43947 747.738 14.5663 745.21 21.098 743.501L20.7183 742.05L20.3386 740.599C13.6268 742.355 6.7709 745.079 1.93958 750.686L3.07592 751.665ZM93.9746 744.288L93.8119 745.779C103.009 746.782 112.417 747.415 121.762 746.676L121.644 745.181L121.525 743.685C112.458 744.402 103.266 743.793 94.1373 742.797L93.9746 744.288ZM121.644 745.181L121.762 746.676C128.131 746.172 135.353 745.016 142.073 742.682C148.784 740.351 155.098 736.81 159.522 731.47L158.367 730.513L157.212 729.556C153.26 734.326 147.501 737.621 141.089 739.848C134.685 742.072 127.734 743.194 121.525 743.685L121.644 745.181ZM158.367 730.513L159.522 731.471C162.143 728.311 163.582 724.644 162.663 720.334L161.196 720.646L159.729 720.959C160.406 724.133 159.423 726.891 157.213 729.556L158.367 730.513ZM150.546 697.214L151.935 696.648C143.543 676.04 138.133 654.387 135.863 632.319L134.371 632.473L132.878 632.626C135.178 654.978 140.658 676.909 149.157 697.779L150.546 697.214ZM134.371 632.473L135.863 632.326C131.99 592.981 137.575 555.912 149.837 518.308L148.411 517.843L146.985 517.377C134.621 555.294 128.956 592.784 132.878 632.62L134.371 632.473ZM148.411 517.843L149.84 518.298C159.861 486.892 176.996 458.845 195.028 430.929L193.768 430.115L192.508 429.302C174.474 457.22 157.136 485.562 146.982 517.387L148.411 517.843ZM294.382 174.424L295.51 175.412C309.447 159.501 330.953 148.255 354.312 140.397C377.646 132.549 402.672 128.134 423.483 125.787L423.315 124.296L423.147 122.805C402.208 125.167 376.957 129.616 353.356 137.554C329.781 145.484 307.696 156.947 293.253 173.435L294.382 174.424ZM423.315 124.296L423.483 125.787C444.157 123.456 466.811 125.317 483.467 136.949L484.326 135.72L485.184 134.49C467.647 122.241 444.106 120.443 423.147 122.805L423.315 124.296ZM507.998 151.796L507.265 153.105C512.755 156.181 518.295 159.165 523.89 162.057L524.579 160.725L525.268 159.393C519.703 156.516 514.193 153.547 508.732 150.487L507.998 151.796ZM537.608 171.846L536.108 171.834C536.058 178.447 533.149 183.012 528.654 188.089L529.777 189.083L530.9 190.077C535.57 184.803 539.05 179.551 539.108 171.857L537.608 171.846ZM529.777 189.083L528.285 189.235L528.324 189.624L529.816 189.472L531.309 189.32L531.269 188.931L529.777 189.083ZM529.816 189.472L528.323 189.609C529.255 199.778 523.701 210.61 515.346 216.942L516.252 218.138L517.157 219.333C526.201 212.48 532.352 200.697 531.31 189.335L529.816 189.472ZM509.65 221.992L508.174 222.261C508.749 225.416 507.688 227.927 505.59 230.269C503.43 232.682 500.289 234.78 496.902 237.03L497.732 238.28L498.562 239.529C501.86 237.338 505.358 235.026 507.825 232.271C510.355 229.446 511.91 226.034 511.126 221.724L509.65 221.992ZM460.707 251.49L460.178 250.087C446.836 255.113 436.791 265.577 433.913 279.724L435.383 280.023L436.852 280.322C439.499 267.317 448.727 257.607 461.236 252.894L460.707 251.49ZM444.052 323.944L442.644 324.46C450.774 346.676 453.336 370.01 449.648 393.383L451.13 393.617L452.611 393.851C456.383 369.949 453.757 346.099 445.461 323.428L444.052 323.944ZM451.13 393.617L449.648 393.384C447.194 408.954 442.76 425.62 436.503 440.227L437.882 440.817L439.261 441.408C445.632 426.535 450.126 409.624 452.612 393.851L451.13 393.617ZM437.882 440.817L438.839 439.663C435.656 437.024 431.153 431.779 426.761 426.149C422.396 420.553 418.235 414.699 415.754 410.938L414.502 411.764L413.25 412.591C415.778 416.421 419.984 422.339 424.395 427.994C428.78 433.616 433.462 439.102 436.925 441.972L437.882 440.817ZM467.74 519.478L466.24 519.458C466.135 527.267 463.327 536.8 458.237 542.821L459.383 543.789L460.528 544.758C466.171 538.082 469.127 527.822 469.24 519.498L467.74 519.478ZM459.383 543.789L458.238 542.82C456.825 544.49 453.88 547.249 450.743 549.257C449.176 550.26 447.633 551.029 446.264 551.404C444.88 551.783 443.875 551.709 443.184 551.329L442.46 552.642L441.736 553.956C443.391 554.868 445.298 554.779 447.057 554.297C448.83 553.811 450.66 552.872 452.361 551.783C455.76 549.607 458.93 546.647 460.528 544.758L459.383 543.789ZM416.803 504.277L417.632 503.027C414.263 500.793 410.027 498.437 405.991 497.023L405.495 498.438L404.999 499.854C408.72 501.157 412.727 503.374 415.974 505.527L416.803 504.277ZM393.899 494.07L394.252 492.612L392.03 492.074L391.677 493.531L391.323 494.989L393.546 495.528L393.899 494.07ZM304.468 429.135L302.988 428.894C302.557 431.546 302.842 434.778 303.542 438.173C304.245 441.591 305.392 445.283 306.768 448.9C309.512 456.113 313.23 463.184 316.345 467.335L317.545 466.434L318.744 465.534C315.849 461.676 312.252 454.878 309.572 447.834C308.236 444.322 307.143 440.788 306.48 437.568C305.812 434.324 305.603 431.505 305.949 429.376L304.468 429.135ZM317.545 466.434L316.345 467.335C336.077 493.623 366.107 501.529 396.494 506.813L396.751 505.335L397.008 503.857C366.658 498.58 337.716 490.809 318.744 465.534L317.545 466.434ZM421.545 574.308L420.102 574.717C427.947 602.403 430.447 632.023 423.785 660.058L425.245 660.404L426.704 660.751C433.513 632.097 430.934 601.941 422.988 573.899L421.545 574.308ZM425.245 660.404L423.785 660.058C420.206 675.127 411.862 693.179 400.477 708.842C389.078 724.523 374.763 737.63 359.333 743.057L359.83 744.472L360.328 745.887C376.566 740.176 391.327 726.532 402.903 710.606C414.493 694.661 423.023 676.25 426.704 660.751L425.245 660.404ZM376.381 720.069L377.694 720.795C391.872 695.171 398.836 666.222 393.705 637.148L392.228 637.409L390.75 637.669C395.737 665.925 388.992 694.179 375.069 719.342L376.381 720.069ZM392.228 637.409L393.705 637.152C389.524 613.104 375.761 591.677 355.449 577.566L354.593 578.798L353.737 580.03C373.401 593.69 386.708 614.421 390.75 637.666L392.228 637.409ZM354.593 578.798L355.431 577.554C334.033 563.136 307.632 557.702 282.115 562.447L282.389 563.922L282.664 565.396C307.413 560.794 333.014 566.067 353.755 580.042L354.593 578.798ZM277.855 564.883L277.689 563.392C268.475 564.418 254.056 569.549 246.123 574.272L246.89 575.56L247.657 576.849C255.263 572.321 269.277 567.347 278.021 566.373L277.855 564.883ZM261.64 572.818L261.869 574.3C275.111 572.248 288.61 572.378 301.808 574.684L302.066 573.206L302.325 571.729C288.804 569.366 274.976 569.234 261.41 571.336L261.64 572.818ZM440.6 164.928L440.913 166.395C445.26 165.468 449.404 164.444 452.274 159.774L450.996 158.989L449.718 158.203C447.569 161.7 444.62 162.538 440.288 163.461L440.6 164.928ZM450.996 158.989L452.278 159.767C454.018 156.898 454.446 153.441 453.455 150.245L452.023 150.689L450.59 151.133C451.325 153.506 451.009 156.074 449.713 158.211L450.996 158.989ZM452.023 150.689L453.458 150.252C451.35 143.324 444.381 139.563 437.551 139.762L437.595 141.261L437.638 142.76C443.456 142.592 448.965 145.79 450.587 151.125L452.023 150.689ZM437.595 141.261L437.206 139.812C427.836 142.327 423.131 148.683 423.891 154.954C424.653 161.234 430.752 166.265 440.575 166.427L440.6 164.928L440.625 163.428C431.715 163.28 427.389 158.871 426.87 154.593C426.349 150.306 429.508 144.984 437.983 142.71L437.595 141.261ZM486.022 450.733L484.872 451.696C498.406 467.862 502.576 491.968 493.914 511.154L495.282 511.771L496.649 512.388C505.823 492.066 501.383 466.744 487.172 449.77L486.022 450.733ZM495.282 511.771L493.914 511.154C491.767 515.911 488.525 519.072 484.221 522.319L485.124 523.516L486.027 524.714C490.512 521.331 494.204 517.803 496.649 512.388L495.282 511.771ZM411.665 740.225L411.736 741.724C415.821 741.531 419.911 741.444 424.001 741.468L424.01 739.968L424.019 738.468C419.875 738.444 415.732 738.532 411.594 738.727L411.665 740.225ZM424.01 739.968L423.993 741.468C431.87 741.555 440.05 741.989 447.113 744.405C454.107 746.799 459.954 751.116 463.304 759.021L464.685 758.436L466.066 757.85C462.318 749.005 455.711 744.177 448.084 741.567C440.525 738.981 431.917 738.556 424.026 738.468L424.01 739.968ZM464.685 758.436L463.304 759.022C464.034 760.742 464.89 763.05 465.198 765.241C465.515 767.493 465.197 769.173 464.157 770.152L465.186 771.244L466.214 772.336C468.349 770.325 468.525 767.353 468.169 764.824C467.805 762.234 466.823 759.634 466.066 757.849L464.685 758.436ZM427.055 759.198L428.223 758.257C418.132 745.726 406.837 743.647 392.571 741.537L392.352 743.021L392.132 744.505C406.345 746.607 416.576 748.577 425.887 760.138L427.055 759.198ZM392.352 743.021L392.772 744.461C399.174 742.59 404.954 742.12 411.752 741.723L411.665 740.225L411.577 738.728C404.756 739.127 398.683 739.608 391.931 741.581L392.352 743.021ZM391.335 786.125L391.335 784.625L282.852 784.576L282.852 786.076L282.851 787.576L391.334 787.625L391.335 786.125ZM277.855 564.883L278.271 566.324C279.622 565.934 280.902 565.707 282.369 565.449L282.108 563.971L281.848 562.494C280.4 562.749 278.967 563.001 277.439 563.441L277.855 564.883ZM445.921 450.13L444.818 451.147C458.692 466.195 470.638 479.205 473.541 499.745L475.026 499.535L476.511 499.325C473.459 477.732 460.822 464.079 447.024 449.114L445.921 450.13ZM485.12 77.7336L485.608 79.1521L485.609 79.1516L485.122 77.7331L484.634 76.3146L484.632 76.3151L485.12 77.7336ZM485.122 77.7331L485.613 79.1505C486.998 78.6707 488.33 78.2092 489.558 77.7738L489.057 76.36L488.556 74.9461C487.34 75.3773 486.018 75.8351 484.631 76.3157L485.122 77.7331ZM489.057 76.36L489.559 77.7737C492.095 76.8739 494.877 75.7955 497.803 74.6613L497.261 73.2627L496.719 71.8641C493.783 73.0023 491.044 74.0638 488.556 74.9463L489.057 76.36ZM497.261 73.2627L497.803 74.6613C505.298 71.7565 513.779 68.4723 522.067 66.6098C530.38 64.7418 538.252 64.365 544.617 67.0335L545.197 65.6502L545.777 64.2669C538.549 61.2363 529.928 61.7684 521.409 63.6828C512.865 65.6027 504.175 68.9743 496.719 71.8641L497.261 73.2627ZM531.463 112.467L530.999 111.041C508.11 118.484 486.511 117.501 463.829 116.454L463.759 117.952L463.69 119.45C486.313 120.495 508.444 121.53 531.927 113.894L531.463 112.467ZM463.759 117.952L463.829 116.454C454.565 116.026 445.117 115.589 435.385 115.733L435.407 117.233L435.43 118.733C445.056 118.591 454.413 119.022 463.69 119.45L463.759 117.952ZM266.933 199.943L265.459 199.665C265.335 200.323 265.267 201.106 265.202 201.833L266.696 201.965L268.191 202.098C268.259 201.324 268.316 200.704 268.407 200.221L266.933 199.943ZM266.696 201.965L265.202 201.832C265.086 203.138 264.97 204.356 264.66 205.312C264.352 206.26 263.994 206.54 263.643 206.623L263.986 208.083L264.33 209.543C266.191 209.106 267.075 207.589 267.513 206.238C267.949 204.897 268.082 203.316 268.191 202.098L266.696 201.965ZM412.29 88.02L411.954 89.4819C417.039 90.6517 422.498 92.0425 428.13 93.4774L428.5 92.0238L428.87 90.5703C423.246 89.1374 417.752 87.7374 412.626 86.5582L412.29 88.02ZM428.5 92.0238L428.13 93.4774C441.19 96.8049 455.193 100.375 467.256 101.846L467.438 100.357L467.619 98.8677C455.786 97.4254 441.983 93.9112 428.87 90.5703L428.5 92.0238ZM531.037 97.8634L531.042 96.3634C528.99 96.3559 526.328 96.7449 523.778 97.1138L523.993 98.5983L524.208 100.083C526.841 99.7018 529.251 99.3569 531.031 99.3634L531.037 97.8634ZM523.993 98.5983L523.778 97.1138C521.495 97.4442 519.266 97.7654 517.379 97.8572L517.452 99.3554L517.525 100.854C519.583 100.754 521.965 100.407 524.208 100.083L523.993 98.5983ZM469.536 83.6276L470.159 84.992C474.57 82.9772 480.447 80.9397 485.604 79.1532L485.113 77.7359L484.622 76.3185C479.507 78.0904 473.48 80.1767 468.912 82.2632L469.536 83.6276ZM485.113 77.7359L485.594 79.1568L485.596 79.1563L485.115 77.7353L484.634 76.3144L484.633 76.3149L485.113 77.7359ZM391.347 1.60046L390.975 3.0536C393.95 3.81525 397.102 4.62374 401.811 4.79239L401.864 3.29335L401.918 1.79431C397.547 1.63777 394.655 0.898874 391.719 0.147322L391.347 1.60046ZM401.864 3.29335L401.982 4.78876C404.36 4.60229 406.763 3.98733 408.986 3.42231L408.616 1.96854L408.247 0.514771C405.973 1.09271 403.824 1.63511 401.747 1.79794L401.864 3.29335ZM408.616 1.96854L408.986 3.42231C410.377 3.06877 411.7 2.73297 412.986 2.49309L412.711 1.01851L412.436 -0.456066C411.038 -0.1953 409.619 0.165891 408.247 0.514771L408.616 1.96854ZM412.711 1.01851L412.987 2.49305C416.755 1.78975 419.886 2.20707 422.551 3.35583C425.233 4.5117 427.535 6.44792 429.564 8.91473C433.662 13.8942 436.462 20.7833 438.996 27.0494L440.386 26.4871L441.777 25.9247C439.285 19.7628 436.326 12.4101 431.881 7.00855C429.64 4.28485 426.975 1.99576 423.738 0.600818C420.485 -0.801241 416.746 -1.26023 412.436 -0.456032L412.711 1.01851ZM440.386 26.4871L438.996 27.0494C439.447 28.1644 439.889 29.2588 440.327 30.3086L441.711 29.7319L443.096 29.1551C442.666 28.1222 442.229 27.0425 441.777 25.9247L440.386 26.4871ZM452.176 54.8468L450.792 55.4248C451.144 56.2676 451.71 57.5902 452.4 59.2053L453.779 58.6156L455.159 58.0259C454.466 56.4047 453.906 55.0968 453.561 54.2688L452.176 54.8468ZM453.785 58.6287L452.406 59.2184C453.994 62.9338 456.256 68.2233 458.183 72.9638C459.147 75.3349 460.023 77.5573 460.688 79.3707C461.371 81.2337 461.781 82.5343 461.881 83.135L463.361 82.8884L464.84 82.6419C464.686 81.7163 464.169 80.1496 463.505 78.3381C462.822 76.4771 461.932 74.2178 460.962 71.8338C459.023 67.0643 456.751 61.7502 455.164 58.039L453.785 58.6287ZM463.361 82.8884L461.977 82.3083C461.912 82.4636 461.857 82.6032 461.813 82.7175L463.209 83.2658L464.605 83.814C464.651 83.6979 464.694 83.5881 464.744 83.4685L463.361 82.8884ZM463.209 83.2658L461.813 82.7174C461.695 83.0172 461.656 83.1029 461.612 83.174C461.586 83.2157 461.53 83.2961 461.341 83.4492L462.284 84.6153L463.228 85.7813C463.617 85.4667 463.916 85.1468 464.153 84.7679C464.372 84.4185 464.507 84.0633 464.605 83.8141L463.209 83.2658ZM462.284 84.6153L461.341 83.4493C460.949 83.7662 460.23 84.0735 459.055 84.2634C457.904 84.4494 456.455 84.5015 454.738 84.4243C451.307 84.2701 447.001 83.6095 442.27 82.6476C432.817 80.7254 421.895 77.6488 413.309 75.2293L412.902 76.6731L412.495 78.1169C421.057 80.5294 432.09 83.639 441.672 85.5875C446.46 86.5608 450.942 87.2567 454.603 87.4213C456.433 87.5036 458.106 87.4557 459.534 87.2249C460.937 86.9981 462.251 86.5719 463.228 85.7812L462.284 84.6153ZM412.902 76.6731L413.309 75.2293C408.198 73.7892 403.87 72.5691 401.234 71.9901L400.912 73.4551L400.59 74.9202C403.118 75.4754 407.336 76.6634 412.495 78.1169L412.902 76.6731ZM277.568 78.2082L279.065 78.2983C279.179 76.405 279.258 74.2932 279.341 72.0688L277.842 72.013L276.343 71.9573C276.26 74.1908 276.182 76.2659 276.071 78.118L277.568 78.2082ZM277.842 72.013L279.341 72.0688C279.54 66.6895 279.768 60.6178 280.57 54.9621C281.378 49.273 282.743 44.2137 285.09 40.7585L283.85 39.9155L282.609 39.0724C279.863 43.1134 278.424 48.7376 277.6 54.5405C276.772 60.3769 276.542 66.606 276.343 71.9573L277.842 72.013ZM283.85 39.9155L285.09 40.7585C288.669 35.4916 293.752 32.2273 299.695 29.973C305.67 27.7068 312.405 26.4989 319.238 25.2783L318.974 23.8017L318.711 22.3251C311.937 23.5351 304.915 24.7847 298.631 27.168C292.316 29.5632 286.64 33.1406 282.609 39.0724L283.85 39.9155ZM318.974 23.8017L319.238 25.2783C325.875 24.0929 332.618 22.8934 338.521 20.6489L337.988 19.2468L337.454 17.8448C331.863 19.9707 325.413 21.1279 318.711 22.3251L318.974 23.8017ZM337.988 19.2468L338.521 20.6489C344.65 18.3185 350.255 15.0418 355.702 11.8607L354.946 10.5654L354.189 9.27012C348.707 12.4716 343.314 15.6172 337.455 17.8447L337.988 19.2468ZM354.946 10.5654L355.702 11.8607C363.171 7.49894 370.344 3.32393 378.55 1.51154L378.226 0.0468388L377.903 -1.41786C369.162 0.512666 361.59 4.94818 354.189 9.27012L354.946 10.5654ZM378.226 0.0468388L378.292 1.5454C384.092 1.29126 387.423 2.14414 390.975 3.0536L391.347 1.60046L391.719 0.147321C388.073 -0.78603 384.404 -1.72527 378.161 -1.45172L378.226 0.0468388ZM362.925 755.247L363.055 756.741C366.899 756.407 370.933 756.113 374.848 755.827L374.739 754.331L374.63 752.835C370.719 753.12 366.663 753.416 362.795 753.752L362.925 755.247ZM375.823 754.252L375.932 755.748C376.355 755.717 376.776 755.686 377.195 755.656L377.085 754.16L376.975 752.664C376.557 752.694 376.136 752.725 375.714 752.756L375.823 754.252ZM418.227 785.513L418.064 784.022C411.058 784.784 403.932 784.723 396.718 784.659L396.705 786.159L396.691 787.659C403.875 787.723 411.178 787.789 418.389 787.005L418.227 785.513ZM396.701 786.159L396.715 784.659C394.925 784.644 393.13 784.628 391.337 784.625L391.335 786.125L391.332 787.625C393.113 787.628 394.897 787.643 396.688 787.659L396.701 786.159ZM282.852 786.076L282.853 784.576C280.112 784.574 277.139 784.641 274.074 784.71L274.108 786.21L274.142 787.71C277.215 787.64 280.151 787.574 282.85 787.576L282.852 786.076ZM274.108 786.21L274.074 784.71C264.373 784.929 253.816 785.158 245.92 783.413L245.596 784.878L245.272 786.342C253.598 788.183 264.563 787.926 274.142 787.71L274.108 786.21ZM245.596 784.878L245.92 783.413C239.576 782.009 236.268 779.057 232.413 775.6L231.411 776.717L230.41 777.833C234.305 781.327 238.111 784.757 245.272 786.342L245.596 784.878ZM231.411 776.717L232.413 775.6C230.455 773.844 228.337 771.942 225.654 770.152L224.821 771.399L223.989 772.647C226.471 774.303 228.442 776.068 230.41 777.833L231.411 776.717ZM211.764 767.997L211.727 766.497C204.661 766.669 197.28 768.788 190.428 770.746L190.841 772.188L191.253 773.63C198.189 771.648 205.188 769.657 211.8 769.497L211.764 767.997ZM190.841 772.188L190.428 770.746C188.071 771.42 185.773 772.076 183.539 772.644L183.909 774.098L184.278 775.552C186.562 774.971 188.903 774.302 191.253 773.63L190.841 772.188ZM20.7183 742.05L21.0982 743.501C40.0661 738.536 58.9534 741.122 78.2362 743.782L78.4411 742.296L78.646 740.81C59.4596 738.164 39.977 735.459 20.3385 740.599L20.7183 742.05ZM78.4411 742.296L78.2362 743.782C83.4058 744.494 88.6037 745.211 93.8122 745.779L93.9746 744.288L94.1371 742.796C88.9783 742.234 83.8227 741.524 78.646 740.81L78.4411 742.296ZM161.196 720.646L162.663 720.334C161.558 715.145 158.784 710.016 156.198 705.212L154.877 705.923L153.556 706.634C156.193 711.532 158.73 716.27 159.729 720.959L161.196 720.646ZM154.877 705.923L156.198 705.212C154.608 702.259 153.081 699.419 151.932 696.64L150.546 697.214L149.16 697.787C150.378 700.732 151.982 703.71 153.556 706.634L154.877 705.923ZM193.768 430.115L195.028 430.929C198 426.328 201.163 421.697 204.373 416.996L203.135 416.15L201.896 415.304C198.689 419.999 195.505 424.662 192.508 429.302L193.768 430.115ZM203.135 416.15L204.373 416.996C218.293 396.614 233.181 374.871 235.867 349.886L234.375 349.726L232.884 349.565C230.293 373.668 215.909 394.785 201.896 415.304L203.135 416.15ZM234.375 349.726L235.867 349.886C236.22 346.605 236.409 343.488 236.593 340.478L235.095 340.386L233.598 340.295C233.414 343.314 233.228 346.364 232.884 349.565L234.375 349.726ZM235.095 340.386L236.593 340.477C237.007 333.68 237.395 327.402 239.492 320.453L238.056 320.019L236.62 319.586C234.408 326.915 234.011 333.524 233.598 340.295L235.095 340.386ZM238.056 320.019L239.493 320.453C242.515 310.438 248.074 301.935 253.789 293.213L252.535 292.39L251.28 291.568C245.601 300.236 239.788 309.09 236.62 319.586L238.056 320.019ZM252.535 292.39L253.789 293.213C258.763 285.621 263.856 277.859 267.198 268.968L265.794 268.44L264.39 267.912C261.183 276.442 256.282 283.933 251.28 291.568L252.535 292.39ZM265.794 268.44L267.212 268.931C271.44 256.707 272.956 244.714 274.426 233.124L272.938 232.935L271.45 232.746C269.975 244.373 268.488 256.064 264.376 267.95L265.794 268.44ZM272.938 232.935L274.426 233.124C276.997 212.855 279.448 193.749 295.51 175.412L294.382 174.424L293.253 173.435C276.523 192.534 274.017 212.51 271.45 232.746L272.938 232.935ZM484.326 135.72L483.467 136.95C485.806 138.582 487.982 140.158 490.115 141.703L490.995 140.488L491.875 139.274C489.744 137.73 487.547 136.14 485.184 134.49L484.326 135.72ZM490.995 140.488L490.115 141.703C495.527 145.623 500.653 149.336 507.256 153.099L507.998 151.796L508.741 150.493C502.298 146.821 497.293 143.197 491.875 139.274L490.995 140.488ZM524.579 160.725L523.902 162.064C525.021 162.63 526.237 163.143 527.41 163.639L527.994 162.257L528.578 160.875C527.385 160.371 526.267 159.898 525.256 159.386L524.579 160.725ZM527.994 162.257L527.41 163.639C529.807 164.652 532.012 165.596 533.64 166.901C535.185 168.14 536.126 169.635 536.108 171.834L537.608 171.846L539.108 171.858C539.134 168.55 537.616 166.243 535.517 164.56C533.501 162.944 530.877 161.847 528.578 160.875L527.994 162.257ZM516.252 218.138L515.214 217.055C515.284 216.987 515.297 216.993 515.128 217.096C514.997 217.177 514.815 217.28 514.584 217.406C514.124 217.656 513.535 217.96 512.893 218.292L513.58 219.625L514.268 220.958C514.9 220.632 515.523 220.31 516.019 220.04C516.266 219.906 516.498 219.775 516.691 219.657C516.847 219.562 517.096 219.406 517.289 219.221L516.252 218.138ZM513.58 219.625L512.892 218.292C511.971 218.767 510.942 219.298 510.151 219.75C509.761 219.973 509.383 220.203 509.092 220.416C508.954 220.518 508.776 220.658 508.62 220.828C508.543 220.912 508.426 221.052 508.329 221.243C508.237 221.422 508.09 221.791 508.174 222.258L509.65 221.992L511.126 221.726C511.203 222.155 511.066 222.478 511 222.607C510.929 222.747 510.853 222.831 510.833 222.854C510.79 222.9 510.783 222.896 510.865 222.836C511.015 222.727 511.274 222.564 511.641 222.354C512.363 221.941 513.328 221.443 514.268 220.958L513.58 219.625ZM497.732 238.28L496.902 237.03C490.612 241.21 482.217 243.554 473.68 245.922L474.081 247.367L474.482 248.813C482.893 246.479 491.796 244.025 498.562 239.529L497.732 238.28ZM474.081 247.367L473.68 245.922C469.059 247.204 464.408 248.493 460.178 250.087L460.707 251.49L461.236 252.894C465.317 251.356 469.833 250.102 474.482 248.813L474.081 247.367ZM435.383 280.023L433.918 279.697C430.872 293.383 436.125 307.162 440.801 319.535L442.204 319.004L443.607 318.474C438.858 305.907 434.029 293.006 436.847 280.349L435.383 280.023ZM442.204 319.004L440.801 319.534C441.43 321.199 442.05 322.839 442.644 324.46L444.052 323.944L445.461 323.428C444.861 321.79 444.235 320.136 443.607 318.474L442.204 319.004ZM414.502 411.764L415.755 410.939C414.855 409.572 413.546 407.138 412.258 404.74L410.936 405.45L409.615 406.16C410.871 408.498 412.256 411.081 413.249 412.589L414.502 411.764ZM410.936 405.45L412.258 404.74C411.422 403.183 410.599 401.651 409.945 400.53L408.649 401.286L407.354 402.041C407.975 403.107 408.769 404.585 409.615 406.16L410.936 405.45ZM408.649 401.286L410.079 400.833C409.297 398.36 408.436 396.082 407.599 393.862L406.196 394.392L404.792 394.922C405.633 397.15 406.465 399.354 407.219 401.738L408.649 401.286ZM406.196 394.392L407.599 393.862C405.973 389.555 404.421 385.433 403.48 380.177L402.003 380.442L400.527 380.706C401.522 386.265 403.169 390.621 404.792 394.922L406.196 394.392ZM402.003 380.442L403.479 380.175C403.155 378.376 402.952 376.385 402.754 374.438L401.262 374.59L399.769 374.741C399.965 376.663 400.178 378.774 400.527 380.708L402.003 380.442ZM401.262 374.59L402.754 374.438C402.566 372.582 402.379 370.728 402.086 369.257L400.615 369.55L399.143 369.843C399.403 371.143 399.576 372.835 399.769 374.741L401.262 374.59ZM400.615 369.55L399.32 368.793C398.701 369.851 398.342 371.357 398.109 372.91C397.87 374.512 397.739 376.358 397.673 378.221C397.541 381.948 397.665 385.873 397.741 388.289L399.24 388.242L400.74 388.195C400.663 385.768 400.543 381.939 400.671 378.327C400.735 376.52 400.86 374.799 401.076 373.354C401.3 371.861 401.597 370.841 401.909 370.307L400.615 369.55ZM399.24 388.242L397.741 388.289C397.75 388.581 397.759 388.85 397.766 389.094L399.265 389.05L400.765 389.005C400.757 388.757 400.749 388.486 400.74 388.195L399.24 388.242ZM399.265 389.05L397.772 389.194C400.721 419.652 417.67 437.61 433.779 454.723L434.872 453.695L435.964 452.667C419.825 435.522 403.598 418.236 400.758 388.905L399.265 389.05ZM434.872 453.695L433.779 454.723C450.7 472.698 466.647 489.703 466.24 519.458L467.74 519.478L469.24 519.499C469.665 488.405 452.838 470.593 435.964 452.667L434.872 453.695ZM442.46 552.642L443.916 552.28C443.889 552.173 443.88 551.879 444.057 551.26C444.226 550.668 444.5 549.989 444.832 549.168L443.442 548.605L442.052 548.041C441.736 548.82 441.395 549.659 441.172 550.436C440.958 551.186 440.782 552.111 441.004 553.004L442.46 552.642ZM443.442 548.605L444.832 549.168C445.285 548.05 445.839 546.695 446.122 545.33C446.407 543.952 446.456 542.384 445.726 540.9L444.38 541.562L443.033 542.224C443.354 542.876 443.398 543.686 443.184 544.723C442.967 545.773 442.526 546.871 442.052 548.041L443.442 548.605ZM444.38 541.562L444.727 540.102C443.5 539.81 442.063 539.926 440.823 540.012L440.928 541.508L441.032 543.005C442.428 542.907 443.348 542.858 444.032 543.021L444.38 541.562ZM440.928 541.508L440.823 540.012C438.908 540.146 437.018 540.263 435.125 539.655C433.304 539.07 431.335 537.757 429.469 534.715L428.191 535.5L426.912 536.284C429.104 539.857 431.619 541.68 434.208 542.511C436.727 543.32 439.176 543.134 441.032 543.005L440.928 541.508ZM428.191 535.5L429.47 534.715C426.975 530.648 426.947 526.659 426.944 522.345L425.444 522.346L423.944 522.347C423.947 526.61 423.924 531.412 426.912 536.284L428.191 535.5ZM425.444 522.346L426.944 522.345C426.942 519.243 426.954 515.895 425.772 512.595C424.565 509.226 422.172 506.037 417.632 503.027L416.803 504.277L415.974 505.527C420.068 508.242 421.994 510.944 422.948 513.607C423.927 516.339 423.942 519.163 423.944 522.347L425.444 522.346ZM405.495 498.438L406.137 497.083C402.889 495.544 399.444 494.374 396.126 493.246L395.643 494.666L395.16 496.086C398.506 497.224 401.786 498.341 404.853 499.794L405.495 498.438ZM395.622 494.658L396.105 493.238C395.529 493.042 394.957 492.848 394.387 492.652L393.899 494.07L393.411 495.488C393.986 495.686 394.564 495.883 395.139 496.078L395.622 494.658ZM391.677 493.531L392.122 492.099C390.502 491.595 388.894 491.099 387.3 490.607L386.857 492.04L386.415 493.474C388.009 493.966 389.615 494.461 391.232 494.964L391.677 493.531ZM386.857 492.04L387.3 490.607C355.287 480.726 328.925 472.542 311.284 440.597L309.971 441.322L308.658 442.047C326.947 475.167 354.481 483.617 386.415 493.474L386.857 492.04ZM309.971 441.322L311.283 440.596C310.763 439.656 309.707 437.18 308.609 434.601L307.229 435.189L305.849 435.776C306.903 438.253 308.042 440.933 308.658 442.048L309.971 441.322ZM307.229 435.189L308.609 434.601C308.008 433.19 307.407 431.777 306.908 430.66C306.659 430.102 306.429 429.604 306.233 429.209C306.068 428.875 305.849 428.451 305.624 428.178L304.468 429.135L303.313 430.092C303.276 430.047 303.347 430.14 303.546 430.542C303.715 430.883 303.926 431.338 304.169 431.883C304.655 432.971 305.245 434.357 305.849 435.776L307.229 435.189ZM396.751 505.335L396.489 506.812C396.618 506.835 396.808 506.866 397.033 506.904L397.279 505.424L397.526 503.945C397.292 503.906 397.122 503.877 397.013 503.858L396.751 505.335ZM397.279 505.424L397.033 506.904C398.135 507.087 400.297 507.448 402.188 507.899C403.143 508.127 403.966 508.364 404.532 508.593C404.823 508.71 404.972 508.796 405.025 508.834C405.15 508.924 404.777 508.721 404.73 508.172L406.224 508.043L407.718 507.915C407.646 507.078 407.044 506.591 406.777 506.399C406.439 506.156 406.035 505.964 405.654 505.81C404.877 505.497 403.881 505.219 402.885 504.982C400.877 504.502 398.616 504.126 397.526 503.945L397.279 505.424ZM406.224 508.043L404.73 508.174C406.438 527.634 411.8 546.068 417.165 564.53L418.606 564.112L420.046 563.693C414.667 545.185 409.397 527.031 407.718 507.912L406.224 508.043ZM418.606 564.112L417.165 564.53C418.151 567.921 419.136 571.313 420.102 574.717L421.545 574.308L422.988 573.899C422.019 570.483 421.031 567.082 420.046 563.693L418.606 564.112ZM359.83 744.472L361.045 745.352C361.85 744.241 362.669 743.118 363.498 741.983L362.286 741.099L361.074 740.215C360.246 741.349 359.424 742.476 358.616 743.592L359.83 744.472ZM362.286 741.099L363.498 741.983C368.437 735.214 373.705 727.998 377.693 720.795L376.381 720.069L375.069 719.342C371.188 726.351 366.038 733.412 361.074 740.215L362.286 741.099ZM246.89 575.56L247.112 577.044C249.712 576.654 252.25 576.138 254.746 575.632L254.447 574.162L254.149 572.692C251.641 573.201 249.178 573.701 246.667 574.077L246.89 575.56ZM254.447 574.162L254.684 575.643L254.685 575.643L254.448 574.161L254.211 572.68L254.21 572.68L254.447 574.162ZM254.448 574.161L254.757 575.629L254.759 575.629L254.45 574.161L254.141 572.693L254.139 572.694L254.448 574.161ZM254.45 574.161L254.749 575.631C257.134 575.147 259.481 574.67 261.869 574.301L261.64 572.818L261.41 571.336C258.941 571.718 256.526 572.209 254.152 572.691L254.45 574.161ZM461.21 422.295L460.038 423.232L460.039 423.233L461.21 422.296L462.382 421.359L462.381 421.358L461.21 422.295ZM461.21 422.296L460.021 423.211L460.022 423.212L461.211 422.297L462.4 421.383L462.399 421.382L461.21 422.296ZM461.211 422.297L460.02 423.208C461.777 425.507 463.609 427.907 464.628 429.047L465.746 428.048L466.865 427.048C465.944 426.018 464.204 423.743 462.403 421.386L461.211 422.297ZM465.746 428.048L464.628 429.047C466.946 431.641 469.25 434.163 471.535 436.664L472.642 435.652L473.75 434.64C471.463 432.137 469.17 429.628 466.865 427.048L465.746 428.048ZM472.645 435.655L471.538 436.667C476.047 441.602 480.484 446.458 484.872 451.696L486.022 450.733L487.172 449.77C482.736 444.474 478.256 439.572 473.753 434.643L472.645 435.655ZM485.124 523.516L484.307 522.258C481.469 524.101 479.674 524.593 476.443 525.471L476.836 526.919L477.23 528.366C480.512 527.474 482.69 526.886 485.941 524.774L485.124 523.516ZM476.836 526.919L476.443 525.471C476.246 525.525 476.044 525.58 475.836 525.637L476.231 527.084L476.626 528.531C476.832 528.474 477.033 528.42 477.23 528.366L476.836 526.919ZM476.231 527.084L477.659 527.545C477.854 526.94 478.129 526.245 478.442 525.456L477.047 524.903L475.653 524.35C475.35 525.114 475.035 525.906 474.804 526.622L476.231 527.084ZM477.047 524.903L478.442 525.456C479.071 523.869 479.898 521.823 480.038 520.058L478.542 519.939L477.047 519.821C476.951 521.038 476.34 522.617 475.653 524.35L477.047 524.903ZM478.542 519.939L480.038 520.06C480.11 519.162 479.986 518.341 479.505 517.659C479.061 517.03 478.428 516.722 478.165 516.581L477.46 517.905L476.754 519.229C476.926 519.32 476.999 519.361 477.053 519.399C477.093 519.427 477.078 519.423 477.054 519.389C476.985 519.291 477.087 519.319 477.047 519.819L478.542 519.939ZM477.46 517.905L478.165 516.581C477.808 516.391 477.741 516.336 477.686 516.262C477.645 516.207 477.493 515.976 477.467 515.252L475.968 515.304L474.469 515.356C474.508 516.472 474.763 517.362 475.283 518.057C475.788 518.733 476.434 519.058 476.754 519.229L477.46 517.905ZM475.968 515.304L477.467 515.252C477.431 514.218 477.402 513.197 477.373 512.177L475.873 512.22L474.374 512.263C474.403 513.281 474.433 514.312 474.469 515.357L475.968 515.304ZM475.873 512.214L477.373 512.171C477.251 507.931 477.133 503.735 476.511 499.326L475.026 499.535L473.541 499.744C474.135 503.962 474.252 507.994 474.374 512.257L475.873 512.214ZM445.734 449.927L447.127 450.483C450.674 441.596 453.522 431.408 456.176 421.922L454.732 421.518L453.287 421.113C450.623 430.635 447.817 440.661 444.34 449.371L445.734 449.927ZM454.732 421.518L456.18 421.908L456.181 421.905L454.732 421.515L453.284 421.125L453.283 421.128L454.732 421.518ZM454.738 421.495L456.182 421.899C456.691 420.082 457.192 418.289 457.691 416.532L456.248 416.123L454.805 415.713C454.305 417.476 453.802 419.274 453.293 421.091L454.738 421.495ZM456.248 416.123L455.281 417.269C455.347 417.325 455.536 417.519 455.871 417.911C456.184 418.278 456.569 418.752 457.008 419.307C457.885 420.415 458.945 421.802 460.018 423.206L461.21 422.295L462.402 421.384C461.333 419.986 460.256 418.577 459.36 417.445C458.912 416.879 458.501 416.372 458.154 415.965C457.829 415.583 457.494 415.211 457.216 414.976L456.248 416.123ZM465.186 771.244L464.6 769.863C463.301 770.413 461.216 770.685 458.732 770.767C456.295 770.848 453.678 770.744 451.405 770.653L451.346 772.152L451.286 773.65C453.538 773.741 456.266 773.85 458.831 773.765C461.347 773.682 463.92 773.41 465.771 772.625L465.186 771.244ZM451.346 772.152L451.405 770.653C450.505 770.617 449.654 770.583 448.904 770.565L448.868 772.064L448.832 773.564C449.553 773.581 450.379 773.614 451.286 773.65L451.346 772.152ZM448.868 772.064L448.877 770.564C448.064 770.56 447.251 770.557 446.439 770.554L446.433 772.054L446.428 773.554C447.24 773.557 448.05 773.56 448.86 773.564L448.868 772.064ZM446.433 772.054L446.439 770.554C442.084 770.538 437.771 770.522 433.493 770.252L433.399 771.749L433.304 773.246C437.686 773.523 442.088 773.538 446.428 773.554L446.433 772.054ZM433.399 771.749L434.781 771.167C434.376 770.206 434.012 769.286 433.653 768.383L432.259 768.936L430.864 769.489C431.222 770.389 431.597 771.337 432.016 772.331L433.399 771.749ZM432.259 768.936L433.633 768.334L433.632 768.333L432.258 768.934L430.884 769.535L430.885 769.537L432.259 768.936ZM432.258 768.934L433.652 768.381C432.282 764.928 431.023 761.735 428.223 758.257L427.055 759.198L425.887 760.138C428.372 763.225 429.492 766.03 430.864 769.487L432.258 768.934ZM339.039 45.2019L339.599 48.1492L339.723 48.1256L339.845 48.0916L339.039 45.2019ZM317.396 46.2876L317.594 43.2942L316.228 49.0511L317.396 46.2876ZM383.335 23.878L386.278 24.4593L386.278 24.4591L383.335 23.878ZM381.291 11.0527L381.797 8.09562L380.356 7.849L379.274 8.83259L381.291 11.0527ZM377.453 19.1216L374.895 17.5539L374.894 17.555L377.453 19.1216ZM282.389 563.922L282.912 566.876L281.868 560.967L282.389 563.922ZM445.734 449.927L447.939 447.894L443.528 451.961L445.734 449.927ZM282.108 563.971L281.587 561.017L282.629 566.926L282.108 563.971ZM445.921 450.13L443.715 452.164L448.126 448.097L445.921 450.13ZM485.115 77.7353L484.133 74.9006L486.095 80.5709L485.115 77.7353ZM485.12 77.7336L486.102 80.5683L484.14 74.898L485.12 77.7336ZM453.779 58.6156L456.538 57.4362L451.019 59.7915L453.779 58.6156ZM453.785 58.6287L451.027 59.8081L456.545 57.4528L453.785 58.6287ZM374.739 754.331L374.521 751.339L374.957 757.323L374.739 754.331ZM375.823 754.252L376.042 757.244L375.605 751.26L375.823 754.252ZM396.705 786.159V789.159L396.731 783.159L396.705 786.159ZM396.701 786.159V783.159L396.675 789.159L396.701 786.159ZM395.643 494.666L394.677 497.506L396.614 491.827L395.643 494.666ZM395.622 494.658L396.588 491.818L394.651 497.497L395.622 494.658ZM472.642 435.652L474.856 433.628L470.428 437.676L472.642 435.652ZM472.645 435.655L470.431 437.68L474.86 433.632L472.645 435.655ZM475.873 512.22L472.875 512.311L478.872 512.134L475.873 512.22ZM475.873 512.214L478.872 512.123L472.874 512.3L475.873 512.214ZM454.732 421.515L451.843 420.707L457.62 422.327L454.732 421.515ZM454.738 421.495L457.627 422.304L451.85 420.684L454.738 421.495ZM339.039 45.2019L338.479 42.2547C333.772 43.1491 330.909 43.5465 328.096 43.6619C325.252 43.7785 322.382 43.6116 317.594 43.2942L317.396 46.2876L317.197 49.2811C321.926 49.5946 325.121 49.7889 328.342 49.6568C331.593 49.5236 334.793 49.0626 339.599 48.1492L339.039 45.2019ZM317.396 46.2876L316.228 49.0511C319.943 50.6208 324.592 51.7895 328.746 52.5568C332.879 53.3199 336.802 53.7367 339.096 53.6928L339.039 50.6934L338.982 47.6939C337.277 47.7265 333.81 47.3904 329.836 46.6566C325.885 45.9268 321.712 44.8545 318.563 43.5242L317.396 46.2876ZM339.039 50.6934L339.096 53.6928C340.477 53.6664 343.81 53.0879 347.857 52.0593C352.017 51.0022 357.228 49.394 362.453 47.1644C367.659 44.9425 372.999 42.0532 377.327 38.3882C381.651 34.7262 385.16 30.1197 386.278 24.4593L383.335 23.878L380.392 23.2968C379.627 27.1672 377.158 30.6685 373.449 33.8094C369.744 36.9473 364.994 39.5562 360.098 41.6459C355.219 43.7278 350.312 45.2446 346.379 46.2442C342.334 47.2722 339.601 47.6821 338.982 47.6939L339.039 50.6934ZM383.335 23.878L386.278 24.4591C386.561 23.023 387.059 19.7345 386.956 16.6242C386.905 15.0935 386.703 13.3503 386.097 11.8446C385.481 10.3138 384.2 8.50676 381.797 8.09562L381.291 11.0527L380.785 14.0097C380.314 13.9291 380.32 13.5607 380.531 14.0845C380.752 14.6334 380.917 15.5606 380.959 16.8238C381.041 19.3015 380.629 22.0952 380.392 23.297L383.335 23.878ZM381.291 11.0527L379.274 8.83259C378.487 9.54716 377.961 10.4713 377.605 11.1897C377.227 11.9545 376.891 12.8082 376.595 13.5824C375.945 15.2851 375.468 16.619 374.895 17.5539L377.453 19.1216L380.01 20.6893C380.955 19.1479 381.673 17.1055 382.201 15.7218C382.494 14.9529 382.743 14.3359 382.983 13.8513C383.245 13.3203 383.371 13.2163 383.309 13.2727L381.291 11.0527ZM377.453 19.1216L374.894 17.555C366.998 30.4506 353.074 38.1729 338.233 42.3122L339.039 45.2019L339.845 48.0916C355.457 43.7373 371.015 35.38 380.011 20.6883L377.453 19.1216ZM282.108 563.971L282.63 566.926L282.911 566.876L282.389 563.922L281.868 560.967L281.587 561.017L282.108 563.971ZM445.734 449.927L443.528 451.961L443.715 452.164L445.921 450.13L448.126 448.097L447.939 447.894L445.734 449.927ZM445.921 450.13L448.126 448.097C448.061 448.026 448.004 447.965 447.939 447.894L445.734 449.927L443.528 451.961C443.588 452.026 443.656 452.1 443.715 452.164L445.921 450.13ZM282.389 563.922L281.867 560.968C281.773 560.984 281.68 561.001 281.587 561.017L282.108 563.971L282.629 566.926C282.723 566.909 282.817 566.893 282.912 566.876L282.389 563.922ZM485.115 77.7353L486.095 80.5709L486.1 80.5692L485.12 77.7336L484.14 74.898L484.135 74.8998L485.115 77.7353ZM453.779 58.6156L451.019 59.7915L451.025 59.8046L453.785 58.6287L456.545 57.4528L456.539 57.4397L453.779 58.6156ZM374.739 754.331L374.958 757.323L376.041 757.244L375.823 754.252L375.605 751.26L374.521 751.339L374.739 754.331ZM396.705 786.159V783.159H396.701V786.159V789.159H396.705V786.159ZM395.643 494.666L396.614 491.827L396.603 491.823L395.633 494.662L394.662 497.501L394.673 497.504L395.643 494.666ZM395.633 494.662L396.603 491.823L396.592 491.82L395.622 494.658L394.651 497.497L394.662 497.501L395.633 494.662ZM472.642 435.652L470.428 437.676L470.431 437.68L472.645 435.655L474.859 433.631L474.856 433.628L472.642 435.652ZM475.873 512.22L478.872 512.129L478.872 512.123L475.873 512.214L472.875 512.305L472.875 512.311L475.873 512.22ZM454.732 421.515L457.62 422.327L457.626 422.307L454.738 421.495L451.85 420.684L451.844 420.703L454.732 421.515ZM472.642 435.652L470.428 437.676C470.429 437.677 470.43 437.678 470.43 437.678C470.43 437.679 470.431 437.679 470.431 437.679L472.645 435.655L474.86 433.632C474.859 433.63 474.858 433.629 474.858 433.629C474.857 433.628 474.857 433.628 474.857 433.628L472.642 435.652ZM374.739 754.331L374.957 757.323C375.32 757.297 375.681 757.27 376.042 757.244L375.823 754.252L375.605 751.26C375.245 751.286 374.883 751.313 374.521 751.339L374.739 754.331ZM454.732 421.515L457.621 422.323C457.621 422.324 457.621 422.323 457.622 422.323C457.622 422.322 457.622 422.321 457.623 422.319C457.623 422.316 457.625 422.31 457.627 422.304L454.738 421.495L451.849 420.687C451.849 420.687 451.849 420.687 451.848 420.688C451.848 420.689 451.848 420.69 451.847 420.692C451.847 420.694 451.845 420.701 451.843 420.707L454.732 421.515ZM475.873 512.22L478.872 512.134C478.872 512.129 478.872 512.124 478.872 512.124C478.872 512.122 478.872 512.125 478.872 512.128L475.873 512.214L472.874 512.3C472.875 512.305 472.875 512.31 472.875 512.31C472.875 512.312 472.875 512.309 472.875 512.306L475.873 512.22ZM395.643 494.666L396.61 491.826C396.612 491.826 396.613 491.827 396.611 491.826C396.609 491.826 396.604 491.824 396.599 491.822L395.633 494.662L394.667 497.502C394.664 497.502 394.663 497.501 394.665 497.502C394.667 497.502 394.672 497.504 394.677 497.506L395.643 494.666ZM395.633 494.662L396.599 491.822C396.601 491.823 396.602 491.823 396.6 491.822C396.599 491.822 396.594 491.82 396.588 491.818L395.622 494.658L394.656 497.499C394.654 497.498 394.652 497.497 394.655 497.498C394.656 497.499 394.661 497.5 394.667 497.502L395.633 494.662ZM453.779 58.6156L451.021 59.795C451.021 59.7941 451.02 59.7938 451.022 59.7964C451.022 59.7981 451.024 59.8029 451.027 59.8081L453.785 58.6287L456.543 57.4493C456.544 57.4502 456.544 57.4505 456.543 57.4479C456.542 57.4462 456.54 57.4414 456.538 57.4362L453.779 58.6156ZM396.705 786.159L396.731 783.159C396.718 783.159 396.707 783.159 396.701 783.159C396.697 783.159 396.694 783.159 396.693 783.159C396.692 783.159 396.691 783.159 396.691 783.159C396.69 783.159 396.69 783.159 396.69 783.159C396.689 783.159 396.69 783.159 396.692 783.159C396.693 783.159 396.696 783.159 396.699 783.159C396.705 783.159 396.715 783.159 396.728 783.159L396.701 786.159L396.675 789.159C396.688 789.159 396.699 789.159 396.705 789.159C396.709 789.159 396.712 789.159 396.713 789.159C396.714 789.159 396.715 789.159 396.715 789.159C396.716 789.159 396.716 789.159 396.716 789.159C396.717 789.159 396.715 789.159 396.714 789.159C396.713 789.159 396.71 789.159 396.707 789.159C396.701 789.159 396.691 789.159 396.678 789.159L396.705 786.159ZM485.115 77.7353L486.097 80.5701C486.096 80.5705 486.095 80.5708 486.096 80.5705C486.096 80.5703 486.099 80.5694 486.102 80.5683L485.12 77.7336L484.138 74.8989C484.139 74.8984 484.14 74.8981 484.139 74.8985C484.139 74.8987 484.136 74.8996 484.133 74.9006L485.115 77.7353Z" fill="black" mask="url(#path-1-inside-1_2_164)"/>
</svg>
