<svg width="1000" height="1000" viewBox="0 0 1000 1000" fill="none" xmlns="http://www.w3.org/2000/svg">
<mask id="path-1-inside-1_2_166" fill="white">
<path d="M689.939 190.448C694.428 188.397 700.38 186.335 705.517 184.556L705.518 184.556C705.52 184.555 705.521 184.554 705.523 184.554L705.525 184.553C706.911 184.073 708.238 183.614 709.46 183.18C711.973 182.289 714.733 181.219 717.664 180.083C732.614 174.288 752.007 166.771 765.6 172.471C795.121 184.848 771.805 212.803 751.866 219.287C728.68 226.827 706.815 225.818 684.163 224.772C674.892 224.344 665.489 223.91 655.81 224.054C608.96 224.759 556.139 232.217 517.825 260.718C507.185 268.633 497.802 278.869 492.369 290.785C490.068 295.903 488.379 301.265 487.336 306.763C487.229 307.334 487.166 308.035 487.099 308.786C486.875 311.309 486.601 314.383 484.389 314.903C456.81 321.388 402.567 317.36 401.981 279.879C401.509 249.716 438.328 221.082 462.823 208.647C515.372 181.971 576.221 181.674 632.693 194.84C637.798 196.015 643.275 197.41 648.903 198.844C661.99 202.178 675.892 205.721 687.841 207.177C707.794 211.336 732.885 214.824 751.44 204.684C749.523 204.677 746.987 205.044 744.396 205.419C742.133 205.746 739.828 206.08 737.855 206.176C725.203 206.79 715.422 204.798 703.598 201.34C696.947 198.673 693.406 197.216 689.939 190.448Z"/>
<path d="M598.629 106.867C604.651 106.603 608.151 107.499 611.75 108.421C614.706 109.177 617.728 109.951 622.268 110.114C624.495 109.939 626.771 109.36 629.02 108.789C630.401 108.438 631.772 108.089 633.115 107.839C649.271 104.824 655.764 120.879 660.79 133.307C661.241 134.424 661.681 135.511 662.114 136.552L672.579 161.667C672.928 162.502 673.491 163.818 674.182 165.436C674.184 165.44 674.186 165.445 674.188 165.449C677.363 172.876 683.255 186.656 683.764 189.709C683.706 189.846 683.657 189.971 683.612 190.086C683.396 190.635 683.266 190.968 682.688 191.436C677.214 195.866 650.454 188.325 633.305 183.493C628.17 182.047 623.897 180.843 621.315 180.275C612.15 178.261 602.885 176.972 593.57 175.827C554.299 172.166 535.2 173.59 497.971 185.028C498.084 183.156 498.162 181.062 498.245 178.833C498.644 168.103 499.159 154.232 504.253 146.736C511.862 135.537 525.771 133.053 539.378 130.622C546.047 129.431 552.644 128.252 558.391 126.067C564.385 123.788 569.884 120.577 575.349 117.386C582.784 113.044 590.156 108.739 598.629 106.867ZM559.442 152.022C549.929 153.83 547.316 153.739 537.799 153.108C544.662 156.008 555.442 157.59 559.442 157.514C563.442 157.437 599.973 149.76 603.738 130.698C604.259 128.06 605.558 118.534 601.694 117.873C600.246 119.189 599.373 123.466 597.856 125.942C589.409 139.736 574.669 147.775 559.442 152.022Z"/>
<path d="M522.469 680.027C604.596 698.227 613.687 793.341 567.72 850.336C559.214 860.888 576.548 862.659 583.328 862.067C587.184 861.732 591.229 861.437 595.142 861.152C595.505 861.125 595.866 861.099 596.226 861.072C596.649 861.042 597.07 861.011 597.488 860.98C601.784 860.65 606.094 860.572 610.399 860.747C624.271 861.456 636.943 866.877 642.409 880.37C644.274 884.976 645.41 891.591 638.63 892.334C631.521 893.107 624.307 893.043 617.108 892.98C617.107 892.98 617.105 892.98 617.104 892.98C615.314 892.964 613.525 892.948 611.738 892.945L503.255 892.897C500.535 892.894 497.58 892.961 494.511 893.03C484.871 893.248 474.11 893.491 465.999 891.698C459.247 890.203 455.689 887.013 451.814 883.537C449.851 881.777 447.807 879.943 445.224 878.22C441.42 875.681 436.721 874.706 432.167 874.817C425.328 874.984 418.138 877.038 411.244 879.008C408.89 879.681 406.571 880.344 404.312 880.918C392.782 883.85 381.097 886.572 369.346 888.519C334.919 894.217 257.761 897.77 228.491 877.045C225.003 874.575 221.015 870.998 220.464 866.595C220.084 863.562 221.529 860.747 223.479 858.485C228.008 853.229 234.5 850.603 241.121 848.87C260.425 843.818 279.61 846.464 298.844 849.116C304.017 849.829 309.194 850.543 314.378 851.108C323.541 852.108 332.84 852.729 342.047 852.001C354.624 851.006 370.394 847.444 378.77 837.334C381.186 834.422 382.397 831.209 381.599 827.466C380.547 822.528 377.891 817.595 375.28 812.743C373.698 809.805 372.132 806.896 370.949 804.034C362.503 783.295 357.059 761.503 354.774 739.293C350.876 699.703 356.501 662.423 368.814 624.663C378.902 593.047 396.138 564.853 414.171 536.936C417.156 532.315 420.329 527.669 423.538 522.97C437.504 502.52 452.14 481.09 454.778 456.546C455.127 453.305 455.315 450.222 455.499 447.207C455.912 440.422 456.305 433.979 458.46 426.84C461.555 416.584 467.241 407.906 472.938 399.211C477.926 391.598 482.923 383.971 486.197 375.261C490.367 363.206 491.869 351.364 493.341 339.755C495.91 319.503 498.389 299.962 514.785 281.244C543.164 248.845 601.967 235.825 643.718 231.116C664.535 228.77 687.632 230.599 704.729 242.54C707.08 244.181 709.266 245.765 711.398 247.309C716.813 251.23 721.879 254.899 728.402 258.616C733.877 261.684 739.402 264.661 744.982 267.545C746.047 268.084 747.214 268.577 748.397 269.077C753.093 271.062 758.055 273.16 758.011 278.666C757.957 285.82 754.763 290.728 750.18 295.903L750.22 296.292C751.207 307.058 745.354 318.365 736.655 324.958C736.409 325.194 735.258 325.788 733.983 326.445C732.121 327.406 729.997 328.502 730.053 328.813C731.412 336.278 724.821 340.659 718.135 345.1C711.607 349.438 702.958 351.837 694.484 354.188C689.849 355.473 685.266 356.745 681.11 358.311C668.185 363.18 658.548 373.267 655.786 386.843C652.854 400.015 657.895 413.355 662.607 425.825C663.236 427.487 663.858 429.135 664.455 430.764C672.669 453.208 675.263 476.8 671.533 500.437C669.063 516.109 664.599 532.898 658.285 547.638C651.639 542.129 639.914 526.176 634.905 518.585C633.958 517.147 632.611 514.639 631.339 512.27C630.498 510.704 629.69 509.199 629.052 508.106C628.284 505.677 627.438 503.436 626.599 501.212C624.974 496.908 623.374 492.669 622.406 487.262C622.069 485.395 621.861 483.345 621.665 481.41C621.474 479.528 621.294 477.756 621.018 476.37C619.156 479.553 619.491 490.22 619.644 495.062C619.653 495.354 619.661 495.624 619.669 495.87C622.563 525.765 639.151 543.387 655.275 560.516C672.172 578.466 688.559 595.875 688.143 626.298C688.034 634.365 685.152 644.261 679.786 650.61C676.775 654.167 667.555 662.049 662.863 659.462C662.614 658.462 663.197 657.024 663.845 655.425C664.773 653.137 665.834 650.519 664.783 648.382C663.827 648.154 662.648 648.237 661.331 648.329C657.56 648.592 652.652 648.935 648.594 642.32C645.853 637.85 645.85 633.455 645.847 629.167C645.843 622.879 645.84 616.822 637.206 611.097C633.898 608.904 629.777 606.617 625.898 605.258C622.74 603.763 619.378 602.619 616.046 601.486C616.043 601.485 616.039 601.484 616.036 601.482C616.032 601.481 616.029 601.48 616.025 601.479C615.449 601.283 614.875 601.087 614.302 600.89L612.08 600.352C610.461 599.849 608.855 599.353 607.261 598.861C575.287 588.992 548.339 580.675 530.374 548.142C529.805 547.114 528.708 544.537 527.632 542.009C526.427 539.179 525.249 536.412 524.871 535.955C523.318 545.517 531.937 565.246 537.948 573.255C557.299 599.036 586.785 606.875 617.154 612.155C617.273 612.176 617.453 612.206 617.682 612.245C619.875 612.609 626.528 613.717 626.627 614.864C628.32 634.152 633.637 652.447 639.009 670.932C639.994 674.322 640.981 677.718 641.948 681.128C649.844 708.992 652.383 738.88 645.648 767.225C638.387 797.792 611.901 840.154 580.233 851.292C581.04 850.179 581.861 849.054 582.689 847.919C587.641 841.134 592.85 833.995 596.784 826.889C610.835 801.495 617.69 772.894 612.631 744.229C608.519 720.583 594.984 699.504 574.996 685.618C553.927 671.421 527.925 666.068 502.792 670.742C502.698 670.759 502.605 670.775 502.511 670.792C501.054 671.049 499.697 671.288 498.258 671.703C489.279 672.703 475.063 677.755 467.293 682.381C469.848 681.998 472.349 681.49 474.85 680.982L474.852 680.982L474.853 680.981C477.233 680.498 479.614 680.015 482.043 679.638C495.447 677.561 509.11 677.692 522.469 680.027ZM661.003 271.748C665.343 270.823 668.889 269.892 671.399 265.809C672.917 263.306 673.289 260.294 672.426 257.509C670.561 251.377 664.321 247.898 657.998 248.081C640.152 252.87 642.27 271.437 661.003 271.748Z"/>
<path d="M676.651 522.943C677.339 523.524 679.471 526.313 681.613 529.115L681.613 529.116L681.614 529.118C683.394 531.446 685.179 533.782 686.149 534.868C688.461 537.455 690.759 539.971 693.045 542.472C693.046 542.473 693.047 542.474 693.048 542.476C697.555 547.407 702.013 552.286 706.425 557.553C720.297 574.123 724.602 598.837 715.685 618.591C713.388 623.678 709.921 627.022 705.527 630.337C702.482 632.314 700.496 632.854 697.239 633.739C697.043 633.793 696.841 633.847 696.634 633.904C696.848 633.243 697.142 632.5 697.45 631.723C698.108 630.064 698.827 628.251 698.945 626.76C699.058 625.363 698.492 625.061 697.863 624.725C697.186 624.365 696.436 623.964 696.371 622.124C696.335 621.086 696.306 620.059 696.276 619.04C696.276 619.038 696.276 619.036 696.276 619.034C696.155 614.783 696.037 610.669 695.429 606.355C692.452 585.289 680.16 571.957 666.324 556.951C666.261 556.883 666.199 556.815 666.137 556.748C669.648 547.949 672.476 537.842 675.135 528.338L675.135 528.336C675.137 528.329 675.139 528.322 675.141 528.316C675.649 526.498 676.152 524.703 676.651 522.943Z"/>
<path d="M632.068 847.046C636.18 846.851 640.296 846.764 644.413 846.788C660.18 846.963 677.99 848.506 685.088 865.256C686.576 868.76 688.763 875.075 685.589 878.064C682.439 879.399 676.273 879.153 671.749 878.972C670.845 878.936 670.007 878.902 669.271 878.885C668.46 878.88 667.648 878.877 666.836 878.874C662.489 878.859 658.131 878.843 653.802 878.569C653.39 877.591 653.02 876.658 652.662 875.756L652.661 875.754C651.29 872.299 650.101 869.3 647.458 866.018C637.757 853.971 626.994 851.948 612.755 849.841C619.331 847.919 625.258 847.444 632.068 847.046Z"/>
<path fill-rule="evenodd" clip-rule="evenodd" d="M705.518 184.556L705.523 184.554L705.525 184.553C706.911 184.073 708.238 183.614 709.46 183.18C711.973 182.289 714.733 181.219 717.664 180.083C732.614 174.288 752.007 166.771 765.6 172.471C795.121 184.848 771.805 212.803 751.866 219.287C728.68 226.827 706.815 225.818 684.163 224.772C674.892 224.344 665.489 223.91 655.81 224.054C608.96 224.759 556.139 232.217 517.825 260.718C507.185 268.633 497.802 278.869 492.369 290.785C490.068 295.903 488.379 301.265 487.336 306.763C487.229 307.334 487.166 308.035 487.099 308.786C486.875 311.309 486.601 314.383 484.389 314.903C456.81 321.388 402.567 317.36 401.981 279.879C401.509 249.716 438.328 221.082 462.823 208.647C515.372 181.971 576.221 181.674 632.693 194.84C637.798 196.015 643.275 197.41 648.903 198.844C661.99 202.178 675.892 205.721 687.841 207.177C707.794 211.336 732.885 214.824 751.44 204.684C749.523 204.677 746.987 205.044 744.396 205.419C742.133 205.746 739.828 206.08 737.855 206.176C725.203 206.79 715.422 204.798 703.598 201.34C696.947 198.673 693.406 197.216 689.939 190.448C694.428 188.397 700.38 186.335 705.517 184.556L705.518 184.556ZM611.75 108.421C614.706 109.177 617.728 109.951 622.268 110.114C624.495 109.939 626.771 109.36 629.02 108.789C630.401 108.438 631.772 108.089 633.115 107.839C649.271 104.824 655.764 120.879 660.79 133.307C661.241 134.424 661.681 135.511 662.114 136.552L672.579 161.667C672.928 162.502 673.491 163.818 674.182 165.436L674.188 165.449C677.363 172.876 683.255 186.656 683.764 189.709C683.706 189.846 683.657 189.971 683.612 190.086C683.396 190.635 683.266 190.968 682.688 191.436C677.214 195.866 650.454 188.325 633.305 183.493C628.17 182.047 623.897 180.843 621.315 180.275C612.15 178.261 602.885 176.972 593.57 175.827C554.299 172.166 535.2 173.59 497.971 185.028C498.084 183.156 498.162 181.062 498.245 178.833C498.644 168.103 499.159 154.232 504.253 146.736C511.862 135.537 525.771 133.053 539.378 130.622C546.047 129.431 552.644 128.252 558.391 126.067C564.385 123.788 569.884 120.577 575.349 117.386C582.784 113.044 590.156 108.739 598.629 106.867C604.651 106.603 608.151 107.499 611.75 108.421ZM522.469 680.027C604.596 698.227 613.687 793.341 567.72 850.336C559.214 860.888 576.548 862.659 583.328 862.067C587.184 861.732 591.229 861.437 595.142 861.152L596.226 861.072C596.649 861.042 597.07 861.011 597.488 860.98C601.784 860.65 606.094 860.572 610.399 860.747C624.271 861.456 636.943 866.877 642.409 880.37C644.274 884.976 645.41 891.591 638.63 892.334C631.521 893.107 624.307 893.043 617.108 892.98H617.104C615.314 892.964 613.525 892.948 611.738 892.945L503.255 892.897C500.535 892.894 497.58 892.961 494.511 893.03C484.871 893.248 474.11 893.491 465.999 891.698C459.247 890.203 455.689 887.013 451.814 883.537C449.851 881.777 447.807 879.943 445.224 878.22C441.42 875.681 436.721 874.706 432.167 874.817C425.328 874.984 418.138 877.038 411.244 879.008C408.89 879.681 406.571 880.344 404.312 880.918C392.782 883.85 381.097 886.572 369.346 888.519C334.919 894.217 257.761 897.77 228.491 877.045C225.003 874.575 221.015 870.998 220.464 866.595C220.084 863.562 221.529 860.747 223.479 858.485C228.008 853.229 234.5 850.603 241.121 848.87C260.425 843.818 279.61 846.464 298.844 849.116C304.017 849.829 309.194 850.543 314.378 851.108C323.541 852.108 332.84 852.729 342.047 852.001C354.624 851.006 370.394 847.444 378.77 837.334C381.186 834.422 382.397 831.209 381.599 827.466C380.547 822.528 377.891 817.595 375.28 812.743C373.698 809.805 372.132 806.896 370.949 804.034C362.503 783.295 357.059 761.503 354.774 739.293C350.876 699.703 356.501 662.423 368.814 624.663C378.902 593.047 396.138 564.853 414.171 536.936C417.156 532.315 420.329 527.669 423.538 522.97C437.504 502.52 452.14 481.09 454.778 456.546C455.127 453.305 455.315 450.222 455.499 447.207C455.912 440.422 456.305 433.979 458.46 426.84C461.555 416.584 467.241 407.906 472.938 399.211C477.926 391.598 482.923 383.971 486.197 375.261C490.367 363.206 491.869 351.364 493.341 339.755C495.91 319.503 498.389 299.962 514.785 281.244C543.164 248.845 601.967 235.825 643.718 231.116C664.535 228.77 687.632 230.599 704.729 242.54C707.08 244.181 709.266 245.765 711.398 247.309C716.813 251.23 721.879 254.899 728.402 258.616C733.877 261.684 739.402 264.661 744.982 267.545C746.047 268.084 747.214 268.577 748.397 269.077C753.093 271.062 758.055 273.16 758.011 278.666C757.957 285.82 754.763 290.728 750.18 295.903L750.22 296.292C751.207 307.058 745.354 318.365 736.655 324.958C736.409 325.194 735.258 325.788 733.983 326.445C732.121 327.406 729.997 328.502 730.053 328.813C731.412 336.278 724.821 340.659 718.135 345.1C711.607 349.438 702.958 351.837 694.484 354.188C689.849 355.473 685.266 356.745 681.11 358.311C668.185 363.18 658.548 373.267 655.786 386.843C652.854 400.015 657.895 413.355 662.607 425.825C663.236 427.487 663.858 429.135 664.455 430.764C672.669 453.208 675.263 476.8 671.533 500.437C669.063 516.109 664.599 532.898 658.285 547.638C651.639 542.129 639.914 526.176 634.905 518.585C633.958 517.147 632.611 514.639 631.339 512.27C630.498 510.704 629.69 509.199 629.052 508.106C628.284 505.677 627.438 503.436 626.599 501.212C624.974 496.908 623.374 492.669 622.406 487.262C622.069 485.395 621.861 483.345 621.665 481.41C621.474 479.528 621.294 477.756 621.018 476.37C619.156 479.553 619.491 490.22 619.644 495.062C619.653 495.354 619.661 495.624 619.669 495.87C622.563 525.765 639.151 543.387 655.275 560.516C672.172 578.466 688.559 595.875 688.143 626.298C688.034 634.365 685.152 644.261 679.786 650.61C676.775 654.167 667.555 662.049 662.863 659.462C662.614 658.462 663.197 657.024 663.845 655.425C664.773 653.137 665.834 650.519 664.783 648.382C663.827 648.154 662.648 648.237 661.331 648.329C657.56 648.592 652.652 648.935 648.594 642.32C645.853 637.85 645.85 633.455 645.847 629.167C645.843 622.879 645.84 616.822 637.206 611.097C633.898 608.904 629.777 606.617 625.898 605.258C622.74 603.763 619.378 602.619 616.046 601.486L616.036 601.482L616.025 601.479C615.449 601.283 614.875 601.087 614.302 600.89L612.08 600.352C610.461 599.849 608.855 599.353 607.261 598.861C575.287 588.992 548.339 580.675 530.374 548.142C529.805 547.114 528.708 544.537 527.632 542.009C526.427 539.179 525.249 536.412 524.871 535.955C523.318 545.517 531.937 565.246 537.948 573.255C557.299 599.036 586.785 606.875 617.154 612.155C617.273 612.176 617.453 612.206 617.682 612.245C619.875 612.609 626.528 613.717 626.627 614.864C628.32 634.152 633.637 652.447 639.009 670.932C639.994 674.322 640.981 677.718 641.948 681.128C649.844 708.992 652.383 738.88 645.648 767.225C638.387 797.792 611.901 840.154 580.233 851.292C581.04 850.179 581.861 849.054 582.689 847.919C587.641 841.134 592.85 833.995 596.784 826.889C610.835 801.495 617.69 772.894 612.631 744.229C608.519 720.583 594.984 699.504 574.996 685.618C553.927 671.421 527.925 666.068 502.792 670.742L502.511 670.792C501.054 671.049 499.697 671.288 498.258 671.703C489.279 672.703 475.063 677.755 467.293 682.381C469.848 681.998 472.349 681.49 474.85 680.982L474.852 680.982L474.853 680.981C477.233 680.498 479.614 680.015 482.043 679.638C495.447 677.561 509.11 677.692 522.469 680.027ZM681.613 529.115L681.613 529.116L681.614 529.118C683.394 531.446 685.179 533.782 686.149 534.868C688.461 537.455 690.759 539.971 693.045 542.472L693.048 542.476C697.555 547.407 702.013 552.286 706.425 557.553C720.297 574.123 724.602 598.837 715.685 618.591C713.388 623.678 709.921 627.022 705.527 630.337C702.482 632.314 700.496 632.854 697.239 633.739C697.043 633.793 696.841 633.847 696.634 633.904C696.848 633.243 697.142 632.5 697.45 631.723C698.108 630.064 698.827 628.251 698.945 626.76C699.058 625.363 698.492 625.061 697.863 624.725C697.186 624.365 696.436 623.964 696.371 622.124C696.335 621.086 696.306 620.059 696.276 619.04L696.276 619.034C696.155 614.783 696.037 610.669 695.429 606.355C692.452 585.289 680.16 571.957 666.324 556.951L666.137 556.748C669.648 547.949 672.476 537.842 675.135 528.338L675.135 528.336L675.141 528.316C675.649 526.498 676.152 524.703 676.651 522.943C677.339 523.524 679.471 526.313 681.613 529.115ZM632.068 847.046C636.18 846.851 640.296 846.764 644.413 846.788C660.18 846.963 677.99 848.506 685.088 865.256C686.576 868.76 688.763 875.075 685.589 878.064C682.439 879.399 676.273 879.153 671.749 878.972C670.845 878.936 670.007 878.902 669.271 878.885C668.46 878.88 667.648 878.877 666.836 878.874C662.489 878.859 658.131 878.843 653.802 878.569C653.39 877.591 653.02 876.658 652.662 875.756L652.661 875.754C651.29 872.299 650.101 869.3 647.458 866.018C637.757 853.971 626.994 851.948 612.755 849.841C619.331 847.919 625.258 847.444 632.068 847.046ZM671.399 265.809C668.889 269.892 665.343 270.823 661.003 271.748C642.27 271.437 640.152 252.87 657.998 248.081C664.321 247.898 670.561 251.377 672.426 257.509C673.289 260.294 672.917 263.306 671.399 265.809Z"/>
</mask>
<path d="M689.939 190.448C694.428 188.397 700.38 186.335 705.517 184.556L705.518 184.556C705.52 184.555 705.521 184.554 705.523 184.554L705.525 184.553C706.911 184.073 708.238 183.614 709.46 183.18C711.973 182.289 714.733 181.219 717.664 180.083C732.614 174.288 752.007 166.771 765.6 172.471C795.121 184.848 771.805 212.803 751.866 219.287C728.68 226.827 706.815 225.818 684.163 224.772C674.892 224.344 665.489 223.91 655.81 224.054C608.96 224.759 556.139 232.217 517.825 260.718C507.185 268.633 497.802 278.869 492.369 290.785C490.068 295.903 488.379 301.265 487.336 306.763C487.229 307.334 487.166 308.035 487.099 308.786C486.875 311.309 486.601 314.383 484.389 314.903C456.81 321.388 402.567 317.36 401.981 279.879C401.509 249.716 438.328 221.082 462.823 208.647C515.372 181.971 576.221 181.674 632.693 194.84C637.798 196.015 643.275 197.41 648.903 198.844C661.99 202.178 675.892 205.721 687.841 207.177C707.794 211.336 732.885 214.824 751.44 204.684C749.523 204.677 746.987 205.044 744.396 205.419C742.133 205.746 739.828 206.08 737.855 206.176C725.203 206.79 715.422 204.798 703.598 201.34C696.947 198.673 693.406 197.216 689.939 190.448Z" fill="black" fill-opacity="0.4"/>
<path d="M598.629 106.867C604.651 106.603 608.151 107.499 611.75 108.421C614.706 109.177 617.728 109.951 622.268 110.114C624.495 109.939 626.771 109.36 629.02 108.789C630.401 108.438 631.772 108.089 633.115 107.839C649.271 104.824 655.764 120.879 660.79 133.307C661.241 134.424 661.681 135.511 662.114 136.552L672.579 161.667C672.928 162.502 673.491 163.818 674.182 165.436C674.184 165.44 674.186 165.445 674.188 165.449C677.363 172.876 683.255 186.656 683.764 189.709C683.706 189.846 683.657 189.971 683.612 190.086C683.396 190.635 683.266 190.968 682.688 191.436C677.214 195.866 650.454 188.325 633.305 183.493C628.17 182.047 623.897 180.843 621.315 180.275C612.15 178.261 602.885 176.972 593.57 175.827C554.299 172.166 535.2 173.59 497.971 185.028C498.084 183.156 498.162 181.062 498.245 178.833C498.644 168.103 499.159 154.232 504.253 146.736C511.862 135.537 525.771 133.053 539.378 130.622C546.047 129.431 552.644 128.252 558.391 126.067C564.385 123.788 569.884 120.577 575.349 117.386C582.784 113.044 590.156 108.739 598.629 106.867ZM559.442 152.022C549.929 153.83 547.316 153.739 537.799 153.108C544.662 156.008 555.442 157.59 559.442 157.514C563.442 157.437 599.973 149.76 603.738 130.698C604.259 128.06 605.558 118.534 601.694 117.873C600.246 119.189 599.373 123.466 597.856 125.942C589.409 139.736 574.669 147.775 559.442 152.022Z" fill="black" fill-opacity="0.4"/>
<path d="M522.469 680.027C604.596 698.227 613.687 793.341 567.72 850.336C559.214 860.888 576.548 862.659 583.328 862.067C587.184 861.732 591.229 861.437 595.142 861.152C595.505 861.125 595.866 861.099 596.226 861.072C596.649 861.042 597.07 861.011 597.488 860.98C601.784 860.65 606.094 860.572 610.399 860.747C624.271 861.456 636.943 866.877 642.409 880.37C644.274 884.976 645.41 891.591 638.63 892.334C631.521 893.107 624.307 893.043 617.108 892.98C617.107 892.98 617.105 892.98 617.104 892.98C615.314 892.964 613.525 892.948 611.738 892.945L503.255 892.897C500.535 892.894 497.58 892.961 494.511 893.03C484.871 893.248 474.11 893.491 465.999 891.698C459.247 890.203 455.689 887.013 451.814 883.537C449.851 881.777 447.807 879.943 445.224 878.22C441.42 875.681 436.721 874.706 432.167 874.817C425.328 874.984 418.138 877.038 411.244 879.008C408.89 879.681 406.571 880.344 404.312 880.918C392.782 883.85 381.097 886.572 369.346 888.519C334.919 894.217 257.761 897.77 228.491 877.045C225.003 874.575 221.015 870.998 220.464 866.595C220.084 863.562 221.529 860.747 223.479 858.485C228.008 853.229 234.5 850.603 241.121 848.87C260.425 843.818 279.61 846.464 298.844 849.116C304.017 849.829 309.194 850.543 314.378 851.108C323.541 852.108 332.84 852.729 342.047 852.001C354.624 851.006 370.394 847.444 378.77 837.334C381.186 834.422 382.397 831.209 381.599 827.466C380.547 822.528 377.891 817.595 375.28 812.743C373.698 809.805 372.132 806.896 370.949 804.034C362.503 783.295 357.059 761.503 354.774 739.293C350.876 699.703 356.501 662.423 368.814 624.663C378.902 593.047 396.138 564.853 414.171 536.936C417.156 532.315 420.329 527.669 423.538 522.97C437.504 502.52 452.14 481.09 454.778 456.546C455.127 453.305 455.315 450.222 455.499 447.207C455.912 440.422 456.305 433.979 458.46 426.84C461.555 416.584 467.241 407.906 472.938 399.211C477.926 391.598 482.923 383.971 486.197 375.261C490.367 363.206 491.869 351.364 493.341 339.755C495.91 319.503 498.389 299.962 514.785 281.244C543.164 248.845 601.967 235.825 643.718 231.116C664.535 228.77 687.632 230.599 704.729 242.54C707.08 244.181 709.266 245.765 711.398 247.309C716.813 251.23 721.879 254.899 728.402 258.616C733.877 261.684 739.402 264.661 744.982 267.545C746.047 268.084 747.214 268.577 748.397 269.077C753.093 271.062 758.055 273.16 758.011 278.666C757.957 285.82 754.763 290.728 750.18 295.903L750.22 296.292C751.207 307.058 745.354 318.365 736.655 324.958C736.409 325.194 735.258 325.788 733.983 326.445C732.121 327.406 729.997 328.502 730.053 328.813C731.412 336.278 724.821 340.659 718.135 345.1C711.607 349.438 702.958 351.837 694.484 354.188C689.849 355.473 685.266 356.745 681.11 358.311C668.185 363.18 658.548 373.267 655.786 386.843C652.854 400.015 657.895 413.355 662.607 425.825C663.236 427.487 663.858 429.135 664.455 430.764C672.669 453.208 675.263 476.8 671.533 500.437C669.063 516.109 664.599 532.898 658.285 547.638C651.639 542.129 639.914 526.176 634.905 518.585C633.958 517.147 632.611 514.639 631.339 512.27C630.498 510.704 629.69 509.199 629.052 508.106C628.284 505.677 627.438 503.436 626.599 501.212C624.974 496.908 623.374 492.669 622.406 487.262C622.069 485.395 621.861 483.345 621.665 481.41C621.474 479.528 621.294 477.756 621.018 476.37C619.156 479.553 619.491 490.22 619.644 495.062C619.653 495.354 619.661 495.624 619.669 495.87C622.563 525.765 639.151 543.387 655.275 560.516C672.172 578.466 688.559 595.875 688.143 626.298C688.034 634.365 685.152 644.261 679.786 650.61C676.775 654.167 667.555 662.049 662.863 659.462C662.614 658.462 663.197 657.024 663.845 655.425C664.773 653.137 665.834 650.519 664.783 648.382C663.827 648.154 662.648 648.237 661.331 648.329C657.56 648.592 652.652 648.935 648.594 642.32C645.853 637.85 645.85 633.455 645.847 629.167C645.843 622.879 645.84 616.822 637.206 611.097C633.898 608.904 629.777 606.617 625.898 605.258C622.74 603.763 619.378 602.619 616.046 601.486C616.043 601.485 616.039 601.484 616.036 601.482C616.032 601.481 616.029 601.48 616.025 601.479C615.449 601.283 614.875 601.087 614.302 600.89L612.08 600.352C610.461 599.849 608.855 599.353 607.261 598.861C575.287 588.992 548.339 580.675 530.374 548.142C529.805 547.114 528.708 544.537 527.632 542.009C526.427 539.179 525.249 536.412 524.871 535.955C523.318 545.517 531.937 565.246 537.948 573.255C557.299 599.036 586.785 606.875 617.154 612.155C617.273 612.176 617.453 612.206 617.682 612.245C619.875 612.609 626.528 613.717 626.627 614.864C628.32 634.152 633.637 652.447 639.009 670.932C639.994 674.322 640.981 677.718 641.948 681.128C649.844 708.992 652.383 738.88 645.648 767.225C638.387 797.792 611.901 840.154 580.233 851.292C581.04 850.179 581.861 849.054 582.689 847.919C587.641 841.134 592.85 833.995 596.784 826.889C610.835 801.495 617.69 772.894 612.631 744.229C608.519 720.583 594.984 699.504 574.996 685.618C553.927 671.421 527.925 666.068 502.792 670.742C502.698 670.759 502.605 670.775 502.511 670.792C501.054 671.049 499.697 671.288 498.258 671.703C489.279 672.703 475.063 677.755 467.293 682.381C469.848 681.998 472.349 681.49 474.85 680.982L474.852 680.982L474.853 680.981C477.233 680.498 479.614 680.015 482.043 679.638C495.447 677.561 509.11 677.692 522.469 680.027ZM661.003 271.748C665.343 270.823 668.889 269.892 671.399 265.809C672.917 263.306 673.289 260.294 672.426 257.509C670.561 251.377 664.321 247.898 657.998 248.081C640.152 252.87 642.27 271.437 661.003 271.748Z" fill="black" fill-opacity="0.4"/>
<path d="M676.651 522.943C677.339 523.524 679.471 526.313 681.613 529.115L681.613 529.116L681.614 529.118C683.394 531.446 685.179 533.782 686.149 534.868C688.461 537.455 690.759 539.971 693.045 542.472C693.046 542.473 693.047 542.474 693.048 542.476C697.555 547.407 702.013 552.286 706.425 557.553C720.297 574.123 724.602 598.837 715.685 618.591C713.388 623.678 709.921 627.022 705.527 630.337C702.482 632.314 700.496 632.854 697.239 633.739C697.043 633.793 696.841 633.847 696.634 633.904C696.848 633.243 697.142 632.5 697.45 631.723C698.108 630.064 698.827 628.251 698.945 626.76C699.058 625.363 698.492 625.061 697.863 624.725C697.186 624.365 696.436 623.964 696.371 622.124C696.335 621.086 696.306 620.059 696.276 619.04C696.276 619.038 696.276 619.036 696.276 619.034C696.155 614.783 696.037 610.669 695.429 606.355C692.452 585.289 680.16 571.957 666.324 556.951C666.261 556.883 666.199 556.815 666.137 556.748C669.648 547.949 672.476 537.842 675.135 528.338L675.135 528.336C675.137 528.329 675.139 528.322 675.141 528.316C675.649 526.498 676.152 524.703 676.651 522.943Z" fill="black" fill-opacity="0.4"/>
<path d="M632.068 847.046C636.18 846.851 640.296 846.764 644.413 846.788C660.18 846.963 677.99 848.506 685.088 865.256C686.576 868.76 688.763 875.075 685.589 878.064C682.439 879.399 676.273 879.153 671.749 878.972C670.845 878.936 670.007 878.902 669.271 878.885C668.46 878.88 667.648 878.877 666.836 878.874C662.489 878.859 658.131 878.843 653.802 878.569C653.39 877.591 653.02 876.658 652.662 875.756L652.661 875.754C651.29 872.299 650.101 869.3 647.458 866.018C637.757 853.971 626.994 851.948 612.755 849.841C619.331 847.919 625.258 847.444 632.068 847.046Z" fill="black" fill-opacity="0.4"/>
<path fill-rule="evenodd" clip-rule="evenodd" d="M705.518 184.556L705.523 184.554L705.525 184.553C706.911 184.073 708.238 183.614 709.46 183.18C711.973 182.289 714.733 181.219 717.664 180.083C732.614 174.288 752.007 166.771 765.6 172.471C795.121 184.848 771.805 212.803 751.866 219.287C728.68 226.827 706.815 225.818 684.163 224.772C674.892 224.344 665.489 223.91 655.81 224.054C608.96 224.759 556.139 232.217 517.825 260.718C507.185 268.633 497.802 278.869 492.369 290.785C490.068 295.903 488.379 301.265 487.336 306.763C487.229 307.334 487.166 308.035 487.099 308.786C486.875 311.309 486.601 314.383 484.389 314.903C456.81 321.388 402.567 317.36 401.981 279.879C401.509 249.716 438.328 221.082 462.823 208.647C515.372 181.971 576.221 181.674 632.693 194.84C637.798 196.015 643.275 197.41 648.903 198.844C661.99 202.178 675.892 205.721 687.841 207.177C707.794 211.336 732.885 214.824 751.44 204.684C749.523 204.677 746.987 205.044 744.396 205.419C742.133 205.746 739.828 206.08 737.855 206.176C725.203 206.79 715.422 204.798 703.598 201.34C696.947 198.673 693.406 197.216 689.939 190.448C694.428 188.397 700.38 186.335 705.517 184.556L705.518 184.556ZM611.75 108.421C614.706 109.177 617.728 109.951 622.268 110.114C624.495 109.939 626.771 109.36 629.02 108.789C630.401 108.438 631.772 108.089 633.115 107.839C649.271 104.824 655.764 120.879 660.79 133.307C661.241 134.424 661.681 135.511 662.114 136.552L672.579 161.667C672.928 162.502 673.491 163.818 674.182 165.436L674.188 165.449C677.363 172.876 683.255 186.656 683.764 189.709C683.706 189.846 683.657 189.971 683.612 190.086C683.396 190.635 683.266 190.968 682.688 191.436C677.214 195.866 650.454 188.325 633.305 183.493C628.17 182.047 623.897 180.843 621.315 180.275C612.15 178.261 602.885 176.972 593.57 175.827C554.299 172.166 535.2 173.59 497.971 185.028C498.084 183.156 498.162 181.062 498.245 178.833C498.644 168.103 499.159 154.232 504.253 146.736C511.862 135.537 525.771 133.053 539.378 130.622C546.047 129.431 552.644 128.252 558.391 126.067C564.385 123.788 569.884 120.577 575.349 117.386C582.784 113.044 590.156 108.739 598.629 106.867C604.651 106.603 608.151 107.499 611.75 108.421ZM522.469 680.027C604.596 698.227 613.687 793.341 567.72 850.336C559.214 860.888 576.548 862.659 583.328 862.067C587.184 861.732 591.229 861.437 595.142 861.152L596.226 861.072C596.649 861.042 597.07 861.011 597.488 860.98C601.784 860.65 606.094 860.572 610.399 860.747C624.271 861.456 636.943 866.877 642.409 880.37C644.274 884.976 645.41 891.591 638.63 892.334C631.521 893.107 624.307 893.043 617.108 892.98H617.104C615.314 892.964 613.525 892.948 611.738 892.945L503.255 892.897C500.535 892.894 497.58 892.961 494.511 893.03C484.871 893.248 474.11 893.491 465.999 891.698C459.247 890.203 455.689 887.013 451.814 883.537C449.851 881.777 447.807 879.943 445.224 878.22C441.42 875.681 436.721 874.706 432.167 874.817C425.328 874.984 418.138 877.038 411.244 879.008C408.89 879.681 406.571 880.344 404.312 880.918C392.782 883.85 381.097 886.572 369.346 888.519C334.919 894.217 257.761 897.77 228.491 877.045C225.003 874.575 221.015 870.998 220.464 866.595C220.084 863.562 221.529 860.747 223.479 858.485C228.008 853.229 234.5 850.603 241.121 848.87C260.425 843.818 279.61 846.464 298.844 849.116C304.017 849.829 309.194 850.543 314.378 851.108C323.541 852.108 332.84 852.729 342.047 852.001C354.624 851.006 370.394 847.444 378.77 837.334C381.186 834.422 382.397 831.209 381.599 827.466C380.547 822.528 377.891 817.595 375.28 812.743C373.698 809.805 372.132 806.896 370.949 804.034C362.503 783.295 357.059 761.503 354.774 739.293C350.876 699.703 356.501 662.423 368.814 624.663C378.902 593.047 396.138 564.853 414.171 536.936C417.156 532.315 420.329 527.669 423.538 522.97C437.504 502.52 452.14 481.09 454.778 456.546C455.127 453.305 455.315 450.222 455.499 447.207C455.912 440.422 456.305 433.979 458.46 426.84C461.555 416.584 467.241 407.906 472.938 399.211C477.926 391.598 482.923 383.971 486.197 375.261C490.367 363.206 491.869 351.364 493.341 339.755C495.91 319.503 498.389 299.962 514.785 281.244C543.164 248.845 601.967 235.825 643.718 231.116C664.535 228.77 687.632 230.599 704.729 242.54C707.08 244.181 709.266 245.765 711.398 247.309C716.813 251.23 721.879 254.899 728.402 258.616C733.877 261.684 739.402 264.661 744.982 267.545C746.047 268.084 747.214 268.577 748.397 269.077C753.093 271.062 758.055 273.16 758.011 278.666C757.957 285.82 754.763 290.728 750.18 295.903L750.22 296.292C751.207 307.058 745.354 318.365 736.655 324.958C736.409 325.194 735.258 325.788 733.983 326.445C732.121 327.406 729.997 328.502 730.053 328.813C731.412 336.278 724.821 340.659 718.135 345.1C711.607 349.438 702.958 351.837 694.484 354.188C689.849 355.473 685.266 356.745 681.11 358.311C668.185 363.18 658.548 373.267 655.786 386.843C652.854 400.015 657.895 413.355 662.607 425.825C663.236 427.487 663.858 429.135 664.455 430.764C672.669 453.208 675.263 476.8 671.533 500.437C669.063 516.109 664.599 532.898 658.285 547.638C651.639 542.129 639.914 526.176 634.905 518.585C633.958 517.147 632.611 514.639 631.339 512.27C630.498 510.704 629.69 509.199 629.052 508.106C628.284 505.677 627.438 503.436 626.599 501.212C624.974 496.908 623.374 492.669 622.406 487.262C622.069 485.395 621.861 483.345 621.665 481.41C621.474 479.528 621.294 477.756 621.018 476.37C619.156 479.553 619.491 490.22 619.644 495.062C619.653 495.354 619.661 495.624 619.669 495.87C622.563 525.765 639.151 543.387 655.275 560.516C672.172 578.466 688.559 595.875 688.143 626.298C688.034 634.365 685.152 644.261 679.786 650.61C676.775 654.167 667.555 662.049 662.863 659.462C662.614 658.462 663.197 657.024 663.845 655.425C664.773 653.137 665.834 650.519 664.783 648.382C663.827 648.154 662.648 648.237 661.331 648.329C657.56 648.592 652.652 648.935 648.594 642.32C645.853 637.85 645.85 633.455 645.847 629.167C645.843 622.879 645.84 616.822 637.206 611.097C633.898 608.904 629.777 606.617 625.898 605.258C622.74 603.763 619.378 602.619 616.046 601.486L616.036 601.482L616.025 601.479C615.449 601.283 614.875 601.087 614.302 600.89L612.08 600.352C610.461 599.849 608.855 599.353 607.261 598.861C575.287 588.992 548.339 580.675 530.374 548.142C529.805 547.114 528.708 544.537 527.632 542.009C526.427 539.179 525.249 536.412 524.871 535.955C523.318 545.517 531.937 565.246 537.948 573.255C557.299 599.036 586.785 606.875 617.154 612.155C617.273 612.176 617.453 612.206 617.682 612.245C619.875 612.609 626.528 613.717 626.627 614.864C628.32 634.152 633.637 652.447 639.009 670.932C639.994 674.322 640.981 677.718 641.948 681.128C649.844 708.992 652.383 738.88 645.648 767.225C638.387 797.792 611.901 840.154 580.233 851.292C581.04 850.179 581.861 849.054 582.689 847.919C587.641 841.134 592.85 833.995 596.784 826.889C610.835 801.495 617.69 772.894 612.631 744.229C608.519 720.583 594.984 699.504 574.996 685.618C553.927 671.421 527.925 666.068 502.792 670.742L502.511 670.792C501.054 671.049 499.697 671.288 498.258 671.703C489.279 672.703 475.063 677.755 467.293 682.381C469.848 681.998 472.349 681.49 474.85 680.982L474.852 680.982L474.853 680.981C477.233 680.498 479.614 680.015 482.043 679.638C495.447 677.561 509.11 677.692 522.469 680.027ZM681.613 529.115L681.613 529.116L681.614 529.118C683.394 531.446 685.179 533.782 686.149 534.868C688.461 537.455 690.759 539.971 693.045 542.472L693.048 542.476C697.555 547.407 702.013 552.286 706.425 557.553C720.297 574.123 724.602 598.837 715.685 618.591C713.388 623.678 709.921 627.022 705.527 630.337C702.482 632.314 700.496 632.854 697.239 633.739C697.043 633.793 696.841 633.847 696.634 633.904C696.848 633.243 697.142 632.5 697.45 631.723C698.108 630.064 698.827 628.251 698.945 626.76C699.058 625.363 698.492 625.061 697.863 624.725C697.186 624.365 696.436 623.964 696.371 622.124C696.335 621.086 696.306 620.059 696.276 619.04L696.276 619.034C696.155 614.783 696.037 610.669 695.429 606.355C692.452 585.289 680.16 571.957 666.324 556.951L666.137 556.748C669.648 547.949 672.476 537.842 675.135 528.338L675.135 528.336L675.141 528.316C675.649 526.498 676.152 524.703 676.651 522.943C677.339 523.524 679.471 526.313 681.613 529.115ZM632.068 847.046C636.18 846.851 640.296 846.764 644.413 846.788C660.18 846.963 677.99 848.506 685.088 865.256C686.576 868.76 688.763 875.075 685.589 878.064C682.439 879.399 676.273 879.153 671.749 878.972C670.845 878.936 670.007 878.902 669.271 878.885C668.46 878.88 667.648 878.877 666.836 878.874C662.489 878.859 658.131 878.843 653.802 878.569C653.39 877.591 653.02 876.658 652.662 875.756L652.661 875.754C651.29 872.299 650.101 869.3 647.458 866.018C637.757 853.971 626.994 851.948 612.755 849.841C619.331 847.919 625.258 847.444 632.068 847.046ZM671.399 265.809C668.889 269.892 665.343 270.823 661.003 271.748C642.27 271.437 640.152 252.87 657.998 248.081C664.321 247.898 670.561 251.377 672.426 257.509C673.289 260.294 672.917 263.306 671.399 265.809Z" fill="black" fill-opacity="0.4"/>
<path d="M689.939 190.448L689.315 189.084L687.888 189.735L688.604 191.132L689.939 190.448ZM709.46 183.18L709.961 184.594L709.962 184.594L709.46 183.18ZM765.6 172.471L765.02 173.854L765.02 173.854L765.6 172.471ZM751.866 219.287L752.33 220.714L752.33 220.714L751.866 219.287ZM655.81 224.054L655.788 222.554L655.788 222.554L655.81 224.054ZM517.825 260.718L516.93 259.514L516.93 259.514L517.825 260.718ZM492.369 290.785L491.004 290.163L491.001 290.17L492.369 290.785ZM487.336 306.763L485.863 306.484L485.863 306.485L487.336 306.763ZM484.389 314.903L484.046 313.443L484.046 313.443L484.389 314.903ZM401.981 279.879L403.481 279.856L403.481 279.856L401.981 279.879ZM462.823 208.647L462.144 207.31L462.144 207.31L462.823 208.647ZM632.693 194.84L632.352 196.301L632.357 196.302L632.693 194.84ZM687.841 207.177L688.147 205.709L688.085 205.696L688.022 205.688L687.841 207.177ZM751.44 204.684L752.159 206L751.445 203.184L751.44 204.684ZM737.855 206.176L737.928 207.674L737.928 207.674L737.855 206.176ZM703.598 201.34L703.04 202.732L703.107 202.759L703.177 202.779L703.598 201.34ZM598.629 106.867L598.564 105.369L598.433 105.374L598.306 105.402L598.629 106.867ZM622.268 110.114L622.214 111.613L622.299 111.616L622.385 111.609L622.268 110.114ZM633.115 107.839L633.39 109.313L633.39 109.313L633.115 107.839ZM662.114 136.552L660.73 137.129L660.73 137.129L662.114 136.552ZM672.579 161.667L671.195 162.244L671.195 162.245L672.579 161.667ZM683.764 189.709L685.147 190.289L685.315 189.889L685.243 189.462L683.764 189.709ZM682.688 191.436L681.744 190.27L681.744 190.27L682.688 191.436ZM621.315 180.275L620.993 181.74L620.993 181.741L621.315 180.275ZM593.57 175.827L593.753 174.338L593.731 174.336L593.71 174.334L593.57 175.827ZM497.971 185.028L496.474 184.938L496.344 187.098L498.412 186.462L497.971 185.028ZM504.253 146.736L505.493 147.579L505.493 147.579L504.253 146.736ZM558.391 126.067L557.858 124.665L557.858 124.665L558.391 126.067ZM522.469 680.027L522.794 678.562L522.761 678.555L522.728 678.549L522.469 680.027ZM567.72 850.336L566.552 849.395L566.552 849.395L567.72 850.336ZM583.328 862.067L583.198 860.573L583.198 860.573L583.328 862.067ZM597.488 860.98L597.598 862.476L597.603 862.476L597.488 860.98ZM610.399 860.747L610.475 859.249L610.467 859.249L610.46 859.248L610.399 860.747ZM642.409 880.37L643.799 879.807L643.799 879.807L642.409 880.37ZM638.63 892.334L638.792 893.825L638.793 893.825L638.63 892.334ZM611.738 892.945L611.74 891.445L611.739 891.445L611.738 892.945ZM503.255 892.897L503.253 894.397L503.254 894.397L503.255 892.897ZM465.999 891.698L465.675 893.162L465.675 893.162L465.999 891.698ZM445.224 878.22L446.057 876.972L446.057 876.972L445.224 878.22ZM432.167 874.817L432.203 876.317L432.204 876.317L432.167 874.817ZM404.312 880.918L404.681 882.372L404.681 882.372L404.312 880.918ZM369.346 888.519L369.591 889.999L369.591 889.999L369.346 888.519ZM228.491 877.045L227.624 878.269L227.624 878.269L228.491 877.045ZM220.464 866.595L221.952 866.409L221.952 866.409L220.464 866.595ZM223.479 858.485L224.615 859.465L224.615 859.464L223.479 858.485ZM241.121 848.87L241.501 850.322L241.501 850.322L241.121 848.87ZM314.378 851.108L314.54 849.617L314.54 849.617L314.378 851.108ZM342.047 852.001L342.165 853.496L342.165 853.496L342.047 852.001ZM378.77 837.334L377.616 836.376L377.615 836.377L378.77 837.334ZM381.599 827.466L383.067 827.154L383.067 827.154L381.599 827.466ZM370.949 804.034L369.56 804.6L369.563 804.607L370.949 804.034ZM354.774 739.293L353.281 739.44L353.281 739.446L354.774 739.293ZM368.814 624.663L370.24 625.128L370.243 625.119L368.814 624.663ZM414.171 536.936L415.431 537.75L415.431 537.75L414.171 536.936ZM454.778 456.546L453.287 456.386L453.287 456.386L454.778 456.546ZM458.46 426.84L459.896 427.273L459.896 427.273L458.46 426.84ZM486.197 375.261L487.601 375.788L487.608 375.77L487.615 375.751L486.197 375.261ZM514.785 281.244L515.913 282.232L515.913 282.232L514.785 281.244ZM643.718 231.116L643.55 229.626L643.55 229.626L643.718 231.116ZM704.729 242.54L703.87 243.77L703.87 243.77L704.729 242.54ZM728.402 258.616L727.659 259.92L727.668 259.925L728.402 258.616ZM744.982 267.545L744.293 268.878L744.305 268.884L744.982 267.545ZM758.011 278.666L756.511 278.654L756.511 278.655L758.011 278.666ZM750.18 295.903L749.057 294.909L748.621 295.401L748.688 296.055L750.18 295.903ZM750.22 296.292L751.713 296.155L751.713 296.148L751.712 296.14L750.22 296.292ZM736.655 324.958L735.749 323.762L735.679 323.815L735.617 323.875L736.655 324.958ZM730.053 328.813L728.577 329.078L728.577 329.081L730.053 328.813ZM718.135 345.1L717.305 343.85L717.305 343.851L718.135 345.1ZM681.11 358.311L681.639 359.714L681.639 359.714L681.11 358.311ZM655.786 386.843L657.25 387.169L657.253 387.156L657.255 387.142L655.786 386.843ZM664.455 430.764L665.864 430.249L665.864 430.248L664.455 430.764ZM671.533 500.437L670.051 500.204L670.051 500.204L671.533 500.437ZM658.285 547.638L657.328 548.793L658.874 550.074L659.664 548.228L658.285 547.638ZM634.905 518.585L633.652 519.41L633.653 519.411L634.905 518.585ZM629.052 508.106L627.622 508.559L627.673 508.717L627.757 508.862L629.052 508.106ZM622.406 487.262L623.883 486.998L623.882 486.996L622.406 487.262ZM621.018 476.37L622.489 476.077L621.717 472.205L619.723 475.613L621.018 476.37ZM619.669 495.87L618.169 495.915L618.171 495.965L618.175 496.015L619.669 495.87ZM688.143 626.298L686.643 626.278L686.643 626.278L688.143 626.298ZM679.786 650.61L680.931 651.579L680.931 651.578L679.786 650.61ZM662.863 659.462L661.408 659.825L661.566 660.46L662.139 660.776L662.863 659.462ZM664.783 648.382L666.129 647.72L665.817 647.086L665.13 646.923L664.783 648.382ZM648.594 642.32L647.315 643.104L647.315 643.104L648.594 642.32ZM637.206 611.097L636.377 612.347L636.377 612.347L637.206 611.097ZM625.898 605.258L625.256 606.614L625.327 606.648L625.402 606.674L625.898 605.258ZM614.302 600.89L614.79 599.472L614.724 599.449L614.656 599.433L614.302 600.89ZM612.08 600.352L611.635 601.784L611.68 601.798L611.727 601.809L612.08 600.352ZM530.374 548.142L531.687 547.417L531.687 547.417L530.374 548.142ZM524.871 535.955L526.027 534.999L523.921 532.455L523.391 535.715L524.871 535.955ZM537.948 573.255L536.748 574.155L536.748 574.155L537.948 573.255ZM617.154 612.155L617.416 610.678L617.411 610.678L617.154 612.155ZM626.627 614.864L625.133 614.992L625.133 614.995L626.627 614.864ZM641.948 681.128L643.391 680.72L643.391 680.719L641.948 681.128ZM645.648 767.225L644.188 766.878L644.188 766.878L645.648 767.225ZM580.233 851.292L579.019 850.412L576.202 854.3L580.731 852.707L580.233 851.292ZM596.784 826.889L598.096 827.616L598.097 827.615L596.784 826.889ZM612.631 744.229L611.153 744.486L611.153 744.49L612.631 744.229ZM574.996 685.618L575.852 684.386L575.843 684.38L575.834 684.374L574.996 685.618ZM498.258 671.703L498.424 673.194L498.551 673.18L498.674 673.144L498.258 671.703ZM467.293 682.381L466.526 681.092L467.515 683.864L467.293 682.381ZM482.043 679.638L482.272 681.121L482.273 681.121L482.043 679.638ZM661.003 271.748L660.978 273.248L661.149 273.251L661.316 273.215L661.003 271.748ZM671.399 265.809L672.677 266.595L672.682 266.587L671.399 265.809ZM672.426 257.509L670.99 257.946L670.993 257.953L672.426 257.509ZM657.998 248.081L657.954 246.582L657.779 246.587L657.609 246.633L657.998 248.081ZM676.651 522.943L677.619 521.797L675.843 520.298L675.208 522.533L676.651 522.943ZM686.149 534.868L685.031 535.867L685.031 535.868L686.149 534.868ZM706.425 557.553L707.575 556.59L707.575 556.59L706.425 557.553ZM715.685 618.591L717.052 619.208L717.052 619.208L715.685 618.591ZM705.527 630.337L706.344 631.595L706.388 631.566L706.43 631.534L705.527 630.337ZM696.634 633.904L695.207 633.443L694.354 636.082L697.029 635.351L696.634 633.904ZM698.945 626.76L697.45 626.639L697.45 626.641L698.945 626.76ZM696.371 622.124L697.87 622.072L697.87 622.072L696.371 622.124ZM695.429 606.355L696.914 606.146L696.914 606.145L695.429 606.355ZM632.068 847.046L631.997 845.547L631.989 845.548L631.98 845.548L632.068 847.046ZM644.413 846.788L644.429 845.288L644.422 845.288L644.413 846.788ZM685.088 865.256L683.707 865.841L683.707 865.842L685.088 865.256ZM685.589 878.064L686.174 879.445L686.422 879.34L686.617 879.156L685.589 878.064ZM669.271 878.885L669.307 877.385L669.294 877.385L669.28 877.385L669.271 878.885ZM653.802 878.569L652.419 879.151L652.78 880.007L653.707 880.066L653.802 878.569ZM647.458 866.018L648.627 865.077L648.626 865.077L647.458 866.018ZM612.755 849.841L612.334 848.401L612.535 851.325L612.755 849.841ZM705.525 184.553L706.012 185.972L706.016 185.971L705.525 184.553ZM717.664 180.083L717.122 178.684L717.122 178.684L717.664 180.083ZM684.163 224.772L684.232 223.274L684.232 223.274L684.163 224.772ZM487.099 308.786L488.594 308.919L488.594 308.919L487.099 308.786ZM648.903 198.844L648.533 200.298L648.533 200.298L648.903 198.844ZM744.396 205.419L744.181 203.934L744.181 203.934L744.396 205.419ZM705.517 184.556L705.036 183.135L705.026 183.139L705.517 184.556ZM611.75 108.421L612.122 106.968L612.122 106.968L611.75 108.421ZM629.02 108.789L629.389 110.243L629.389 110.243L629.02 108.789ZM660.79 133.307L662.18 132.745L662.18 132.745L660.79 133.307ZM683.612 190.086L685.008 190.634L685.008 190.634L683.612 190.086ZM633.305 183.493L632.898 184.937L632.898 184.937L633.305 183.493ZM498.245 178.833L496.746 178.778L496.746 178.778L498.245 178.833ZM539.378 130.622L539.114 129.145L539.114 129.145L539.378 130.622ZM575.349 117.386L574.592 116.09L574.592 116.09L575.349 117.386ZM494.511 893.03L494.545 894.53L494.545 894.53L494.511 893.03ZM451.814 883.537L450.813 884.654L450.813 884.654L451.814 883.537ZM411.244 879.008L410.831 877.566L410.831 877.566L411.244 879.008ZM298.844 849.116L298.639 850.602L298.639 850.602L298.844 849.116ZM375.28 812.743L376.601 812.033L376.601 812.032L375.28 812.743ZM423.538 522.97L424.776 523.816L424.776 523.816L423.538 522.97ZM455.499 447.207L456.996 447.298L456.996 447.298L455.499 447.207ZM472.938 399.211L474.192 400.033L474.192 400.033L472.938 399.211ZM493.341 339.755L491.853 339.566L491.853 339.566L493.341 339.755ZM711.398 247.309L712.278 246.094L712.278 246.094L711.398 247.309ZM748.397 269.077L747.813 270.459L747.813 270.459L748.397 269.077ZM733.983 326.445L733.296 325.112L733.296 325.112L733.983 326.445ZM694.484 354.188L694.083 352.742L694.083 352.742L694.484 354.188ZM662.607 425.825L664.01 425.294L664.01 425.294L662.607 425.825ZM631.339 512.27L632.661 511.561L632.661 511.561L631.339 512.27ZM626.599 501.212L628.002 500.683L628.002 500.683L626.599 501.212ZM621.665 481.41L623.157 481.259L623.157 481.258L621.665 481.41ZM619.644 495.062L621.143 495.015L621.143 495.015L619.644 495.062ZM655.275 560.516L654.182 561.544L654.182 561.544L655.275 560.516ZM663.845 655.425L662.455 654.862L662.455 654.862L663.845 655.425ZM661.331 648.329L661.435 649.825L661.435 649.825L661.331 648.329ZM645.847 629.167L644.347 629.168L644.347 629.168L645.847 629.167ZM607.261 598.861L607.703 597.427L607.261 598.861ZM527.632 542.009L526.252 542.597L526.252 542.597L527.632 542.009ZM617.682 612.245L617.436 613.724L617.436 613.724L617.682 612.245ZM639.009 670.932L637.568 671.351L637.568 671.351L639.009 670.932ZM582.689 847.919L583.901 848.803L583.901 848.803L582.689 847.919ZM474.85 680.982L474.613 679.501L474.583 679.506L474.552 679.512L474.85 680.982ZM474.852 680.982L475.089 682.463L475.125 682.457L475.161 682.45L474.852 680.982ZM474.853 680.981L474.555 679.511L474.544 679.514L474.853 680.981ZM681.613 529.115L680.421 530.026L680.431 530.04L680.441 530.053L681.613 529.115ZM681.613 529.116L682.802 528.202L682.794 528.191L682.785 528.179L681.613 529.116ZM681.614 529.118L682.806 528.207L682.803 528.203L681.614 529.118ZM697.239 633.739L697.633 635.187L697.633 635.187L697.239 633.739ZM697.45 631.723L698.845 632.276L698.845 632.276L697.45 631.723ZM697.863 624.725L698.568 623.402L698.568 623.402L697.863 624.725ZM675.135 528.338L676.579 528.742L676.581 528.735L676.583 528.728L675.135 528.338ZM671.749 878.972L671.689 880.471L671.689 880.471L671.749 878.972ZM666.836 878.874L666.842 877.374L666.842 877.374L666.836 878.874ZM652.662 875.756L654.056 875.203L654.047 875.179L654.036 875.155L652.662 875.756ZM652.661 875.754L651.267 876.308L651.277 876.332L651.287 876.356L652.661 875.754ZM765.6 172.471L765.02 173.854C772.161 176.848 775.842 180.669 777.305 184.617C778.771 188.572 778.134 192.986 775.936 197.423C771.507 206.362 761.039 214.727 751.402 217.861L751.866 219.287L752.33 220.714C762.632 217.363 773.791 208.508 778.624 198.755C781.057 193.845 781.961 188.545 780.118 183.574C778.274 178.597 773.799 174.282 766.18 171.087L765.6 172.471ZM655.81 224.054L655.788 222.554C608.866 223.26 555.639 230.72 516.93 259.514L517.825 260.718L518.72 261.921C556.639 233.714 609.055 226.258 655.833 225.553L655.81 224.054ZM517.825 260.718L516.93 259.514C506.146 267.537 496.568 277.957 491.004 290.163L492.369 290.785L493.734 291.408C499.035 279.78 508.225 269.729 518.721 261.921L517.825 260.718ZM492.369 290.785L491.001 290.17C488.652 295.395 486.927 300.87 485.863 306.484L487.336 306.763L488.81 307.043C489.831 301.661 491.484 296.411 493.737 291.4L492.369 290.785ZM484.389 314.903L484.046 313.443C470.468 316.636 450.275 317.237 433.474 312.436C425.084 310.038 417.643 306.322 412.282 301.01C406.953 295.731 403.621 288.822 403.481 279.856L401.981 279.879L400.481 279.903C400.634 289.676 404.301 297.326 410.17 303.141C416.006 308.923 423.959 312.837 432.65 315.32C450.012 320.282 470.731 319.656 484.733 316.364L484.389 314.903ZM401.981 279.879L403.481 279.856C403.254 265.376 412.001 251.048 424.112 238.664C436.185 226.318 451.373 216.142 463.502 209.985L462.823 208.647L462.144 207.31C449.778 213.587 434.309 223.946 421.967 236.566C409.663 249.148 400.236 264.218 400.481 279.903L401.981 279.879ZM462.823 208.647L463.502 209.985C515.632 183.521 576.091 183.184 632.352 196.301L632.693 194.84L633.034 193.38C576.351 180.164 515.111 180.421 462.144 207.31L462.823 208.647ZM687.841 207.177L687.535 208.645C697.541 210.731 708.915 212.667 720.148 212.793C731.376 212.918 742.573 211.239 752.159 206L751.44 204.684L750.721 203.367C741.752 208.269 731.126 209.915 720.182 209.793C709.242 209.67 698.094 207.782 688.147 205.709L687.841 207.177ZM737.855 206.176L737.782 204.677C725.361 205.281 715.76 203.334 704.019 199.9L703.598 201.34L703.177 202.779C715.084 206.262 725.044 208.3 737.928 207.674L737.855 206.176ZM703.598 201.34L704.156 199.947C700.789 198.597 698.423 197.631 696.449 196.213C694.533 194.838 692.924 192.985 691.274 189.764L689.939 190.448L688.604 191.132C690.421 194.679 692.315 196.939 694.699 198.65C697.025 200.32 699.756 201.415 703.04 202.732L703.598 201.34ZM662.114 136.552L660.73 137.129L671.195 162.244L672.579 161.667L673.964 161.09L663.499 135.975L662.114 136.552ZM621.315 180.275L621.637 178.81C612.4 176.781 603.079 175.485 593.753 174.338L593.57 175.827L593.387 177.316C602.691 178.46 611.899 179.742 620.993 181.74L621.315 180.275ZM593.57 175.827L593.71 174.334C574.039 172.5 559.34 171.931 544.866 173.272C530.387 174.613 516.197 177.86 497.531 183.595L497.971 185.028L498.412 186.462C516.974 180.759 530.947 177.574 545.143 176.259C559.344 174.943 573.83 175.493 593.431 177.321L593.57 175.827ZM556.476 157.79L556.61 156.296C549.256 155.639 545.107 154.568 538.383 151.726L537.799 153.108L537.215 154.49C544.217 157.448 548.668 158.598 556.343 159.284L556.476 157.79ZM522.469 680.027L522.145 681.491C562.584 690.453 584.976 718.288 591.66 750.935C598.36 783.657 589.266 821.232 566.552 849.395L567.72 850.336L568.887 851.278C592.141 822.446 601.485 783.966 594.599 750.333C587.698 716.623 564.482 687.801 522.794 678.562L522.469 680.027ZM567.72 850.336L566.552 849.395C564.294 852.196 563.424 854.819 564.191 857.169C564.933 859.447 567.033 860.871 569.223 861.768C573.647 863.582 579.944 863.868 583.459 863.561L583.328 862.067L583.198 860.573C579.933 860.858 574.172 860.555 570.361 858.993C568.433 858.202 567.37 857.242 567.043 856.239C566.739 855.308 566.893 853.752 568.888 851.278L567.72 850.336ZM597.488 860.98L597.603 862.476C601.84 862.15 606.091 862.073 610.338 862.246L610.399 860.747L610.46 859.248C606.096 859.071 601.727 859.15 597.373 859.484L597.488 860.98ZM610.399 860.747L610.322 862.245C623.888 862.938 635.86 868.197 641.019 880.933L642.409 880.37L643.799 879.807C638.027 865.557 624.654 859.973 610.475 859.249L610.399 860.747ZM642.409 880.37L641.019 880.933C641.924 883.169 642.549 885.669 642.276 887.589C642.145 888.51 641.82 889.214 641.296 889.724C640.774 890.233 639.915 890.684 638.466 890.843L638.63 892.334L638.793 893.825C640.734 893.612 642.276 892.957 643.389 891.873C644.501 890.79 645.047 889.414 645.246 888.012C645.634 885.287 644.759 882.177 643.799 879.807L642.409 880.37ZM445.224 878.22L446.057 876.972C441.93 874.218 436.903 873.201 432.13 873.318L432.167 874.817L432.204 876.317C436.539 876.211 440.91 877.144 444.392 879.467L445.224 878.22ZM404.312 880.918L403.942 879.464C392.429 882.392 380.791 885.103 369.101 887.039L369.346 888.519L369.591 889.999C381.403 888.042 393.135 885.308 404.681 882.372L404.312 880.918ZM369.346 888.519L369.101 887.039C351.985 889.872 324.189 892.178 297.039 891.191C283.467 890.698 270.092 889.383 258.314 886.914C246.513 884.44 236.433 880.83 229.358 875.821L228.491 877.045L227.624 878.269C235.184 883.622 245.725 887.34 257.699 889.85C269.696 892.366 283.251 893.692 296.93 894.189C324.284 895.183 352.28 892.864 369.591 889.999L369.346 888.519ZM228.491 877.045L229.358 875.821C227.662 874.62 225.904 873.19 224.515 871.569C223.124 869.944 222.178 868.215 221.952 866.409L220.464 866.595L218.976 866.782C219.301 869.378 220.625 871.639 222.237 873.52C223.852 875.406 225.832 877 227.624 878.269L228.491 877.045ZM220.464 866.595L221.952 866.409C221.648 863.979 222.794 861.577 224.615 859.465L223.479 858.485L222.343 857.506C220.265 859.916 218.52 863.145 218.976 866.782L220.464 866.595ZM223.479 858.485L224.615 859.464C228.843 854.559 234.969 852.031 241.501 850.322L241.121 848.87L240.742 847.419C234.03 849.176 227.174 851.899 222.343 857.506L223.479 858.485ZM314.378 851.108L314.215 852.599C323.412 853.603 332.82 854.235 342.165 853.496L342.047 852.001L341.929 850.506C332.861 851.223 323.669 850.613 314.54 849.617L314.378 851.108ZM342.047 852.001L342.165 853.496C348.534 852.992 355.756 851.836 362.476 849.502C369.187 847.172 375.501 843.631 379.925 838.291L378.77 837.334L377.615 836.377C373.663 841.147 367.904 844.442 361.492 846.668C355.089 848.892 348.137 850.015 341.928 850.506L342.047 852.001ZM378.77 837.334L379.925 838.291C382.546 835.132 383.985 831.464 383.067 827.154L381.599 827.466L380.132 827.779C380.809 830.953 379.826 833.711 377.616 836.376L378.77 837.334ZM370.949 804.034L372.338 803.468C363.946 782.861 358.537 761.207 356.266 739.139L354.774 739.293L353.281 739.446C355.582 761.798 361.061 783.729 369.56 804.6L370.949 804.034ZM354.774 739.293L356.266 739.146C352.393 699.801 357.978 662.732 370.24 625.128L368.814 624.663L367.388 624.198C355.024 662.114 349.359 699.604 353.281 739.44L354.774 739.293ZM368.814 624.663L370.243 625.119C380.264 593.712 397.399 565.665 415.431 537.75L414.171 536.936L412.911 536.122C394.877 564.041 377.539 592.382 367.385 624.207L368.814 624.663ZM514.785 281.244L515.913 282.232C529.85 266.321 551.356 255.075 574.715 247.218C598.049 239.369 623.075 234.954 643.887 232.607L643.718 231.116L643.55 229.626C622.611 231.987 597.36 236.436 573.759 244.374C550.184 252.304 528.099 263.767 513.656 280.255L514.785 281.244ZM643.718 231.116L643.886 232.607C664.56 230.276 687.214 232.137 703.87 243.77L704.729 242.54L705.587 241.31C688.05 229.062 664.509 227.263 643.55 229.626L643.718 231.116ZM728.402 258.616L727.668 259.925C733.158 263.001 738.698 265.986 744.293 268.878L744.982 267.545L745.671 266.213C740.106 263.336 734.596 260.368 729.135 257.308L728.402 258.616ZM758.011 278.666L756.511 278.655C756.461 285.268 753.552 289.833 749.057 294.909L750.18 295.903L751.303 296.898C755.973 291.624 759.453 286.372 759.511 278.678L758.011 278.666ZM750.18 295.903L748.688 296.055L748.727 296.444L750.22 296.292L751.712 296.14L751.672 295.751L750.18 295.903ZM750.22 296.292L748.726 296.429C749.658 306.598 744.104 317.43 735.749 323.762L736.655 324.958L737.561 326.153C746.604 319.3 752.755 307.517 751.713 296.155L750.22 296.292ZM730.053 328.813L728.577 329.081C729.152 332.237 728.091 334.747 725.993 337.09C723.833 339.502 720.692 341.601 717.305 343.85L718.135 345.1L718.965 346.349C722.263 344.158 725.761 341.846 728.228 339.091C730.758 336.266 732.313 332.854 731.529 328.544L730.053 328.813ZM681.11 358.311L680.581 356.907C667.24 361.934 657.195 372.397 654.316 386.544L655.786 386.843L657.255 387.142C659.902 374.137 669.13 364.427 681.639 359.714L681.11 358.311ZM664.455 430.764L663.047 431.28C671.177 453.496 673.739 476.83 670.051 500.204L671.533 500.437L673.015 500.671C676.786 476.769 674.16 452.92 665.864 430.249L664.455 430.764ZM671.533 500.437L670.051 500.204C667.597 515.775 663.163 532.44 656.906 547.047L658.285 547.638L659.664 548.228C666.035 533.355 670.529 516.444 673.015 500.671L671.533 500.437ZM658.285 547.638L659.243 546.483C656.059 543.844 651.556 538.6 647.164 532.969C642.799 527.373 638.638 521.519 636.157 517.758L634.905 518.585L633.653 519.411C636.181 523.241 640.388 529.159 644.799 534.815C649.183 540.436 653.865 545.922 657.328 548.793L658.285 547.638ZM688.143 626.298L686.643 626.278C686.538 634.087 683.73 643.62 678.64 649.641L679.786 650.61L680.931 651.578C686.574 644.903 689.53 634.643 689.643 626.319L688.143 626.298ZM679.786 650.61L678.641 649.641C677.228 651.31 674.283 654.069 671.146 656.077C669.579 657.08 668.036 657.849 666.667 658.224C665.283 658.604 664.278 658.53 663.587 658.149L662.863 659.462L662.139 660.776C663.794 661.689 665.701 661.6 667.46 661.117C669.233 660.631 671.063 659.692 672.764 658.604C676.163 656.428 679.333 653.467 680.931 651.579L679.786 650.61ZM637.206 611.097L638.035 609.847C634.666 607.613 630.43 605.257 626.394 603.843L625.898 605.258L625.402 606.674C629.123 607.978 633.13 610.194 636.377 612.347L637.206 611.097ZM614.302 600.89L614.656 599.433L612.433 598.894L612.08 600.352L611.727 601.809L613.949 602.348L614.302 600.89ZM524.871 535.955L523.391 535.715C522.96 538.366 523.246 541.598 523.945 544.993C524.648 548.412 525.795 552.104 527.171 555.721C529.915 562.933 533.633 570.004 536.748 574.155L537.948 573.255L539.148 572.354C536.252 568.497 532.655 561.699 529.975 554.654C528.639 551.142 527.546 547.609 526.883 544.388C526.215 541.145 526.006 538.325 526.352 536.196L524.871 535.955ZM537.948 573.255L536.748 574.155C556.48 600.444 586.51 608.349 616.897 613.633L617.154 612.155L617.411 610.678C587.061 605.4 558.119 597.629 539.148 572.354L537.948 573.255ZM641.948 681.128L640.505 681.537C648.35 709.223 650.85 738.844 644.188 766.878L645.648 767.225L647.107 767.572C653.916 738.917 651.337 708.762 643.391 680.72L641.948 681.128ZM645.648 767.225L644.188 766.878C640.609 781.947 632.265 800 620.88 815.662C609.481 831.344 595.166 844.45 579.736 849.877L580.233 851.292L580.731 852.707C596.969 846.996 611.73 833.352 623.307 817.426C634.897 801.482 643.426 783.07 647.107 767.571L645.648 767.225ZM596.784 826.889L598.097 827.615C612.275 801.991 619.239 773.042 614.108 743.968L612.631 744.229L611.153 744.49C616.14 772.745 609.395 801 595.472 826.163L596.784 826.889ZM612.631 744.229L614.108 743.972C609.927 719.924 596.164 698.497 575.852 684.386L574.996 685.618L574.14 686.85C593.804 700.511 607.111 721.241 611.153 744.486L612.631 744.229ZM574.996 685.618L575.834 684.374C554.436 669.956 528.035 664.522 502.518 669.267L502.792 670.742L503.067 672.217C527.816 667.614 553.417 672.887 574.158 686.862L574.996 685.618ZM498.258 671.703L498.092 670.212C488.879 671.238 474.459 676.369 466.526 681.092L467.293 682.381L468.06 683.67C475.666 679.142 489.68 674.167 498.424 673.194L498.258 671.703ZM482.043 679.638L482.273 681.121C495.515 679.069 509.013 679.198 522.211 681.504L522.469 680.027L522.728 678.549C509.207 676.186 495.379 676.054 481.813 678.156L482.043 679.638ZM661.003 271.748L661.316 273.215C665.663 272.289 669.807 271.264 672.677 266.595L671.399 265.809L670.121 265.024C667.972 268.521 665.023 269.358 660.691 270.281L661.003 271.748ZM671.399 265.809L672.682 266.587C674.421 263.718 674.849 260.262 673.858 257.065L672.426 257.509L670.993 257.953C671.728 260.327 671.412 262.894 670.116 265.031L671.399 265.809ZM672.426 257.509L673.861 257.073C671.753 250.144 664.784 246.384 657.954 246.582L657.998 248.081L658.041 249.581C663.859 249.412 669.368 252.611 670.99 257.946L672.426 257.509ZM657.998 248.081L657.609 246.633C648.239 249.147 643.534 255.504 644.294 261.775C645.056 268.055 651.155 273.085 660.978 273.248L661.003 271.748L661.028 270.248C652.118 270.1 647.792 265.692 647.273 261.413C646.753 257.126 649.911 251.804 658.386 249.53L657.998 248.081ZM706.425 557.553L705.275 558.516C718.809 574.682 722.979 598.788 714.318 617.974L715.685 618.591L717.052 619.208C726.226 598.887 721.786 573.564 707.575 556.59L706.425 557.553ZM715.685 618.591L714.318 617.974C712.17 622.731 708.928 625.892 704.624 629.139L705.527 630.337L706.43 631.534C710.915 628.151 714.607 624.624 717.052 619.208L715.685 618.591ZM632.068 847.046L632.139 848.544C636.224 848.351 640.315 848.264 644.404 848.288L644.413 846.788L644.422 845.288C640.278 845.264 636.135 845.352 631.997 845.547L632.068 847.046ZM644.413 846.788L644.396 848.288C652.273 848.376 660.453 848.809 667.516 851.226C674.51 853.619 680.357 857.936 683.707 865.841L685.088 865.256L686.469 864.671C682.721 855.826 676.114 850.997 668.487 848.387C660.928 845.801 652.32 845.376 644.429 845.288L644.413 846.788ZM685.088 865.256L683.707 865.842C684.437 867.562 685.293 869.871 685.601 872.062C685.918 874.313 685.6 875.993 684.56 876.972L685.589 878.064L686.617 879.156C688.752 877.145 688.928 874.174 688.572 871.644C688.208 869.055 687.226 866.454 686.469 864.67L685.088 865.256ZM647.458 866.018L648.626 865.077C638.535 852.546 627.24 850.468 612.974 848.357L612.755 849.841L612.535 851.325C626.748 853.428 636.979 855.397 646.29 866.959L647.458 866.018ZM612.755 849.841L613.175 851.281C619.577 849.41 625.357 848.94 632.155 848.543L632.068 847.046L631.98 845.548C625.159 845.947 619.086 846.428 612.334 848.401L612.755 849.841ZM611.738 892.945L611.739 891.445L503.255 891.397L503.255 892.897L503.254 894.397L611.737 894.445L611.738 892.945ZM498.258 671.703L498.674 673.144C500.025 672.755 501.305 672.528 502.772 672.269L502.511 670.792L502.251 669.314C500.803 669.57 499.37 669.821 497.843 670.262L498.258 671.703ZM666.324 556.951L665.221 557.968C679.095 573.015 691.041 586.026 693.944 606.565L695.429 606.355L696.914 606.145C693.863 584.553 681.225 570.9 667.427 555.934L666.324 556.951ZM705.523 184.554L706.011 185.972L706.012 185.972L705.525 184.553L705.037 183.135L705.036 183.135L705.523 184.554ZM705.525 184.553L706.016 185.971C707.401 185.491 708.733 185.029 709.961 184.594L709.46 183.18L708.959 181.766C707.743 182.198 706.421 182.655 705.034 183.136L705.525 184.553ZM709.46 183.18L709.962 184.594C712.499 183.694 715.281 182.616 718.207 181.482L717.664 180.083L717.122 178.684C714.186 179.823 711.447 180.884 708.959 181.767L709.46 183.18ZM717.664 180.083L718.207 181.482C725.701 178.577 734.182 175.293 742.47 173.43C750.783 171.562 758.655 171.185 765.02 173.854L765.6 172.471L766.18 171.087C758.952 168.057 750.331 168.589 741.812 170.503C733.268 172.423 724.578 175.795 717.122 178.684L717.664 180.083ZM751.866 219.287L751.403 217.861C728.513 225.304 706.914 224.321 684.232 223.274L684.163 224.772L684.093 226.271C706.716 227.315 728.847 228.351 752.33 220.714L751.866 219.287ZM684.163 224.772L684.232 223.274C674.968 222.846 665.52 222.41 655.788 222.554L655.81 224.054L655.833 225.553C665.459 225.411 674.816 225.842 684.093 226.271L684.163 224.772ZM487.336 306.763L485.863 306.485C485.738 307.143 485.67 307.926 485.605 308.653L487.099 308.786L488.594 308.919C488.662 308.145 488.719 307.525 488.81 307.041L487.336 306.763ZM487.099 308.786L485.605 308.653C485.489 309.958 485.373 311.176 485.063 312.133C484.755 313.08 484.397 313.361 484.046 313.443L484.389 314.903L484.733 316.364C486.594 315.926 487.478 314.409 487.916 313.059C488.352 311.717 488.485 310.136 488.594 308.919L487.099 308.786ZM632.693 194.84L632.357 196.302C637.442 197.472 642.901 198.863 648.533 200.298L648.903 198.844L649.273 197.391C643.649 195.958 638.155 194.558 633.029 193.379L632.693 194.84ZM648.903 198.844L648.533 200.298C661.593 203.625 675.596 207.196 687.659 208.666L687.841 207.177L688.022 205.688C676.189 204.246 662.386 200.732 649.273 197.391L648.903 198.844ZM751.44 204.684L751.445 203.184C749.393 203.176 746.731 203.565 744.181 203.934L744.396 205.419L744.611 206.903C747.244 206.522 749.654 206.177 751.434 206.184L751.44 204.684ZM744.396 205.419L744.181 203.934C741.898 204.265 739.669 204.586 737.782 204.677L737.855 206.176L737.928 207.674C739.986 207.574 742.368 207.228 744.611 206.903L744.396 205.419ZM689.939 190.448L690.562 191.812C694.973 189.797 700.85 187.76 706.008 185.974L705.517 184.556L705.026 183.139C699.91 184.911 693.883 186.997 689.315 189.084L689.939 190.448ZM705.517 184.556L705.997 185.977L705.999 185.977L705.518 184.556L705.037 183.135L705.036 183.135L705.517 184.556ZM611.75 108.421L611.378 109.874C614.353 110.636 617.505 111.444 622.214 111.613L622.268 110.114L622.321 108.615C617.95 108.458 615.058 107.719 612.122 106.968L611.75 108.421ZM622.268 110.114L622.385 111.609C624.763 111.423 627.166 110.808 629.389 110.243L629.02 108.789L628.65 107.335C626.376 107.913 624.227 108.455 622.15 108.618L622.268 110.114ZM629.02 108.789L629.389 110.243C630.78 109.889 632.103 109.553 633.39 109.313L633.115 107.839L632.84 106.364C631.441 106.625 630.023 106.986 628.65 107.335L629.02 108.789ZM633.115 107.839L633.39 109.313C637.158 108.61 640.289 109.027 642.954 110.176C645.636 111.332 647.938 113.268 649.967 115.735C654.065 120.714 656.865 127.604 659.399 133.87L660.79 133.307L662.18 132.745C659.688 126.583 656.729 119.23 652.284 113.829C650.043 111.105 647.378 108.816 644.141 107.421C640.888 106.019 637.149 105.56 632.839 106.364L633.115 107.839ZM660.79 133.307L659.399 133.87C659.85 134.985 660.292 136.079 660.73 137.129L662.114 136.552L663.499 135.975C663.069 134.943 662.632 133.863 662.18 132.745L660.79 133.307ZM672.579 161.667L671.195 162.245C671.547 163.088 672.113 164.411 672.803 166.026L674.182 165.436L675.562 164.846C674.869 163.225 674.309 161.917 673.964 161.089L672.579 161.667ZM674.188 165.449L672.809 166.039C674.397 169.754 676.659 175.044 678.586 179.784C679.55 182.155 680.426 184.378 681.091 186.191C681.774 188.054 682.184 189.355 682.284 189.955L683.764 189.709L685.243 189.462C685.089 188.537 684.572 186.97 683.908 185.158C683.226 183.297 682.335 181.038 681.365 178.654C679.426 173.885 677.154 168.57 675.567 164.859L674.188 165.449ZM683.764 189.709L682.38 189.129C682.315 189.284 682.261 189.424 682.216 189.538L683.612 190.086L685.008 190.634C685.054 190.518 685.097 190.408 685.147 190.289L683.764 189.709ZM683.612 190.086L682.216 189.538C682.098 189.837 682.059 189.923 682.015 189.994C681.989 190.036 681.933 190.116 681.744 190.27L682.688 191.436L683.631 192.602C684.02 192.287 684.319 191.967 684.556 191.588C684.776 191.239 684.91 190.884 685.008 190.634L683.612 190.086ZM682.688 191.436L681.744 190.27C681.352 190.586 680.633 190.894 679.458 191.084C678.307 191.27 676.858 191.322 675.141 191.245C671.71 191.09 667.404 190.43 662.673 189.468C653.22 187.546 642.298 184.469 633.712 182.05L633.305 183.493L632.898 184.937C641.46 187.35 652.493 190.459 662.076 192.408C666.863 193.381 671.345 194.077 675.007 194.242C676.837 194.324 678.509 194.276 679.937 194.045C681.34 193.818 682.654 193.392 683.631 192.602L682.688 191.436ZM633.305 183.493L633.712 182.05C628.601 180.61 624.273 179.389 621.637 178.81L621.315 180.275L620.993 181.741C623.521 182.296 627.74 183.484 632.898 184.937L633.305 183.493ZM497.971 185.028L499.468 185.119C499.582 183.225 499.661 181.113 499.744 178.889L498.245 178.833L496.746 178.778C496.663 181.011 496.585 183.086 496.474 184.938L497.971 185.028ZM498.245 178.833L499.744 178.889C499.944 173.51 500.171 167.438 500.973 161.782C501.781 156.093 503.146 151.034 505.493 147.579L504.253 146.736L503.012 145.893C500.266 149.934 498.827 155.558 498.003 161.361C497.175 167.197 496.945 173.426 496.746 178.778L498.245 178.833ZM504.253 146.736L505.493 147.579C509.072 142.312 514.155 139.048 520.098 136.793C526.073 134.527 532.808 133.319 539.641 132.099L539.378 130.622L539.114 129.145C532.34 130.355 525.318 131.605 519.034 133.988C512.719 136.384 507.043 139.961 503.012 145.893L504.253 146.736ZM539.378 130.622L539.641 132.099C546.278 130.913 553.021 129.714 558.924 127.469L558.391 126.067L557.858 124.665C552.266 126.791 545.816 127.948 539.114 129.145L539.378 130.622ZM558.391 126.067L558.924 127.469C565.053 125.139 570.658 121.862 576.105 118.681L575.349 117.386L574.592 116.09C569.11 119.292 563.717 122.437 557.858 124.665L558.391 126.067ZM575.349 117.386L576.105 118.681C583.574 114.319 590.747 110.144 598.953 108.332L598.629 106.867L598.306 105.402C589.565 107.333 581.993 111.768 574.592 116.09L575.349 117.386ZM598.629 106.867L598.695 108.366C604.495 108.112 607.826 108.964 611.378 109.874L611.75 108.421L612.122 106.968C608.476 106.034 604.807 105.095 598.564 105.369L598.629 106.867ZM583.328 862.067L583.458 863.562C587.302 863.227 591.336 862.933 595.251 862.648L595.142 861.152L595.033 859.656C591.122 859.941 587.066 860.236 583.198 860.573L583.328 862.067ZM596.226 861.072L596.335 862.568C596.758 862.538 597.18 862.507 597.598 862.476L597.488 860.98L597.378 859.484C596.96 859.515 596.539 859.546 596.117 859.576L596.226 861.072ZM638.63 892.334L638.467 890.842C631.461 891.605 624.335 891.543 617.121 891.48L617.108 892.98L617.095 894.48C624.278 894.543 631.581 894.609 638.792 893.825L638.63 892.334ZM617.104 892.98L617.118 891.48C615.328 891.464 613.533 891.448 611.74 891.445L611.738 892.945L611.735 894.445C613.516 894.448 615.3 894.464 617.091 894.48L617.104 892.98ZM503.255 892.897L503.256 891.397C500.515 891.394 497.542 891.461 494.477 891.531L494.511 893.03L494.545 894.53C497.618 894.461 500.555 894.394 503.253 894.397L503.255 892.897ZM494.511 893.03L494.477 891.531C484.776 891.75 474.219 891.979 466.323 890.233L465.999 891.698L465.675 893.162C474.001 895.003 484.966 894.746 494.545 894.53L494.511 893.03ZM465.999 891.698L466.323 890.233C459.979 888.829 456.671 885.878 452.816 882.42L451.814 883.537L450.813 884.654C454.708 888.147 458.514 891.577 465.675 893.162L465.999 891.698ZM451.814 883.537L452.816 882.42C450.858 880.665 448.74 878.762 446.057 876.972L445.224 878.22L444.392 879.467C446.874 881.123 448.845 882.889 450.813 884.654L451.814 883.537ZM432.167 874.817L432.13 873.318C425.064 873.49 417.683 875.608 410.831 877.566L411.244 879.008L411.656 880.451C418.592 878.468 425.591 876.478 432.203 876.317L432.167 874.817ZM411.244 879.008L410.831 877.566C408.474 878.24 406.176 878.896 403.942 879.464L404.312 880.918L404.681 882.372C406.966 881.791 409.306 881.122 411.656 880.451L411.244 879.008ZM241.121 848.87L241.501 850.322C260.469 845.357 279.356 847.943 298.639 850.602L298.844 849.116L299.049 847.63C279.863 844.984 260.38 842.279 240.742 847.419L241.121 848.87ZM298.844 849.116L298.639 850.602C303.809 851.315 309.007 852.032 314.215 852.599L314.378 851.108L314.54 849.617C309.381 849.055 304.226 848.344 299.049 847.63L298.844 849.116ZM381.599 827.466L383.067 827.154C381.961 821.966 379.187 816.837 376.601 812.033L375.28 812.743L373.959 813.454C376.596 818.353 379.133 823.09 380.132 827.779L381.599 827.466ZM375.28 812.743L376.601 812.032C375.011 809.079 373.484 806.239 372.335 803.461L370.949 804.034L369.563 804.607C370.781 807.552 372.385 810.53 373.959 813.454L375.28 812.743ZM414.171 536.936L415.431 537.75C418.403 533.148 421.566 528.517 424.776 523.816L423.538 522.97L422.299 522.124C419.092 526.82 415.908 531.482 412.911 536.122L414.171 536.936ZM423.538 522.97L424.776 523.816C438.696 503.435 453.584 481.691 456.27 456.706L454.778 456.546L453.287 456.386C450.696 480.488 436.313 501.605 422.299 522.124L423.538 522.97ZM454.778 456.546L456.27 456.706C456.623 453.425 456.812 450.309 456.996 447.298L455.499 447.207L454.001 447.115C453.817 450.135 453.631 453.184 453.287 456.386L454.778 456.546ZM455.499 447.207L456.996 447.298C457.41 440.5 457.798 434.223 459.896 427.273L458.46 426.84L457.024 426.406C454.811 433.735 454.414 440.344 454.001 447.115L455.499 447.207ZM458.46 426.84L459.896 427.273C462.918 417.258 468.477 408.756 474.192 400.033L472.938 399.211L471.683 398.389C466.004 407.056 460.191 415.91 457.024 426.406L458.46 426.84ZM472.938 399.211L474.192 400.033C479.166 392.441 484.259 384.679 487.601 375.788L486.197 375.261L484.793 374.733C481.587 383.263 476.685 390.754 471.683 398.389L472.938 399.211ZM486.197 375.261L487.615 375.751C491.843 363.527 493.359 351.535 494.829 339.944L493.341 339.755L491.853 339.566C490.379 351.193 488.891 362.885 484.78 374.77L486.197 375.261ZM493.341 339.755L494.829 339.944C497.4 319.675 499.851 300.569 515.913 282.232L514.785 281.244L513.656 280.255C496.927 299.354 494.42 319.33 491.853 339.566L493.341 339.755ZM704.729 242.54L703.87 243.77C706.209 245.403 708.385 246.979 710.519 248.524L711.398 247.309L712.278 246.094C710.147 244.551 707.951 242.96 705.587 241.31L704.729 242.54ZM711.398 247.309L710.519 248.524C715.931 252.443 721.056 256.156 727.659 259.919L728.402 258.616L729.144 257.313C722.701 253.641 717.696 250.018 712.278 246.094L711.398 247.309ZM744.982 267.545L744.305 268.884C745.424 269.45 746.64 269.963 747.813 270.459L748.397 269.077L748.981 267.696C747.788 267.191 746.67 266.718 745.659 266.207L744.982 267.545ZM748.397 269.077L747.813 270.459C750.21 271.472 752.415 272.416 754.043 273.721C755.588 274.96 756.529 276.455 756.511 278.654L758.011 278.666L759.511 278.678C759.538 275.37 758.019 273.064 755.92 271.381C753.904 269.765 751.28 268.667 748.981 267.696L748.397 269.077ZM736.655 324.958L735.617 323.875C735.687 323.808 735.7 323.814 735.531 323.917C735.4 323.997 735.218 324.101 734.987 324.226C734.527 324.476 733.938 324.781 733.296 325.112L733.983 326.445L734.671 327.778C735.303 327.452 735.926 327.131 736.422 326.861C736.669 326.726 736.901 326.596 737.094 326.478C737.25 326.383 737.499 326.226 737.693 326.041L736.655 324.958ZM733.983 326.445L733.296 325.112C732.374 325.587 731.345 326.118 730.554 326.571C730.165 326.794 729.786 327.024 729.495 327.237C729.357 327.338 729.179 327.478 729.023 327.648C728.946 327.732 728.829 327.872 728.732 328.063C728.64 328.243 728.493 328.611 728.577 329.078L730.053 328.813L731.529 328.547C731.607 328.975 731.469 329.299 731.403 329.428C731.332 329.568 731.256 329.652 731.236 329.674C731.193 329.72 731.186 329.717 731.268 329.657C731.418 329.547 731.677 329.385 732.044 329.175C732.766 328.761 733.731 328.263 734.671 327.778L733.983 326.445ZM718.135 345.1L717.305 343.851C711.015 348.03 702.621 350.374 694.083 352.742L694.484 354.188L694.885 355.633C703.296 353.3 712.199 350.845 718.965 346.349L718.135 345.1ZM694.484 354.188L694.083 352.742C689.462 354.024 684.812 355.313 680.581 356.907L681.11 358.311L681.639 359.714C685.72 358.176 690.236 356.923 694.885 355.633L694.484 354.188ZM655.786 386.843L654.321 386.517C651.275 400.204 656.529 413.983 661.204 426.355L662.607 425.825L664.01 425.294C659.261 412.728 654.432 399.826 657.25 387.169L655.786 386.843ZM662.607 425.825L661.204 426.355C661.833 428.019 662.453 429.659 663.047 431.28L664.455 430.764L665.864 430.248C665.264 428.61 664.638 426.956 664.01 425.294L662.607 425.825ZM634.905 518.585L636.158 517.76C635.258 516.393 633.949 513.959 632.661 511.561L631.339 512.27L630.018 512.98C631.274 515.319 632.659 517.902 633.652 519.41L634.905 518.585ZM631.339 512.27L632.661 511.561C631.825 510.004 631.002 508.472 630.348 507.35L629.052 508.106L627.757 508.862C628.378 509.927 629.172 511.405 630.018 512.98L631.339 512.27ZM629.052 508.106L630.483 507.653C629.7 505.18 628.84 502.902 628.002 500.683L626.599 501.212L625.195 501.742C626.036 503.97 626.868 506.175 627.622 508.559L629.052 508.106ZM626.599 501.212L628.002 500.683C626.376 496.375 624.824 492.253 623.883 486.998L622.406 487.262L620.93 487.526C621.925 493.085 623.572 497.441 625.195 501.742L626.599 501.212ZM622.406 487.262L623.882 486.996C623.558 485.196 623.355 483.205 623.157 481.259L621.665 481.41L620.173 481.561C620.368 483.484 620.581 485.594 620.93 487.528L622.406 487.262ZM621.665 481.41L623.157 481.258C622.969 479.402 622.782 477.549 622.489 476.077L621.018 476.37L619.547 476.664C619.806 477.964 619.979 479.655 620.173 481.562L621.665 481.41ZM621.018 476.37L619.723 475.613C619.104 476.671 618.745 478.178 618.512 479.731C618.273 481.333 618.142 483.178 618.076 485.041C617.944 488.768 618.068 492.694 618.144 495.109L619.644 495.062L621.143 495.015C621.066 492.589 620.946 488.76 621.074 485.147C621.138 483.34 621.263 481.619 621.479 480.175C621.703 478.681 622 477.661 622.312 477.128L621.018 476.37ZM619.644 495.062L618.144 495.109C618.153 495.401 618.162 495.67 618.169 495.915L619.669 495.87L621.168 495.826C621.16 495.578 621.152 495.306 621.143 495.015L619.644 495.062ZM619.669 495.87L618.175 496.015C621.124 526.473 638.073 544.43 654.182 561.544L655.275 560.516L656.367 559.487C640.228 542.343 624.001 525.056 621.162 495.726L619.669 495.87ZM655.275 560.516L654.182 561.544C671.103 579.519 687.05 596.524 686.643 626.278L688.143 626.298L689.643 626.319C690.068 595.226 673.241 577.413 656.367 559.487L655.275 560.516ZM662.863 659.462L664.319 659.1C664.292 658.994 664.283 658.699 664.46 658.081C664.629 657.489 664.903 656.809 665.235 655.989L663.845 655.425L662.455 654.862C662.139 655.64 661.798 656.479 661.576 657.256C661.361 658.006 661.185 658.931 661.408 659.825L662.863 659.462ZM663.845 655.425L665.235 655.989C665.688 654.87 666.242 653.515 666.525 652.151C666.81 650.772 666.859 649.205 666.129 647.72L664.783 648.382L663.437 649.044C663.757 649.696 663.801 650.506 663.587 651.543C663.37 652.593 662.929 653.692 662.455 654.862L663.845 655.425ZM664.783 648.382L665.13 646.923C663.903 646.631 662.466 646.746 661.226 646.832L661.331 648.329L661.435 649.825C662.831 649.728 663.751 649.678 664.435 649.841L664.783 648.382ZM661.331 648.329L661.226 646.832C659.312 646.966 657.421 647.083 655.529 646.475C653.707 645.89 651.738 644.577 649.873 641.536L648.594 642.32L647.315 643.104C649.507 646.677 652.022 648.5 654.611 649.332C657.13 650.141 659.579 649.955 661.435 649.825L661.331 648.329ZM648.594 642.32L649.873 641.536C647.378 637.469 647.35 633.479 647.347 629.166L645.847 629.167L644.347 629.168C644.35 633.431 644.327 638.232 647.315 643.104L648.594 642.32ZM645.847 629.167L647.347 629.166C647.345 626.063 647.357 622.715 646.175 619.415C644.968 616.046 642.575 612.857 638.035 609.847L637.206 611.097L636.377 612.347C640.471 615.062 642.397 617.764 643.351 620.427C644.33 623.159 644.345 625.983 644.347 629.168L645.847 629.167ZM625.898 605.258L626.54 603.903C623.292 602.364 619.847 601.194 616.53 600.066L616.046 601.486L615.563 602.906C618.91 604.044 622.189 605.162 625.256 606.614L625.898 605.258ZM616.025 601.479L616.508 600.059C615.932 599.863 615.36 599.668 614.79 599.472L614.302 600.89L613.814 602.309C614.39 602.507 614.967 602.703 615.542 602.899L616.025 601.479ZM612.08 600.352L612.525 598.919C610.905 598.416 609.297 597.919 607.703 597.427L607.261 598.861L606.818 600.294C608.413 600.786 610.018 601.282 611.635 601.784L612.08 600.352ZM607.261 598.861L607.703 597.427C575.69 587.547 549.328 579.362 531.687 547.417L530.374 548.142L529.061 548.868C547.35 581.987 574.884 590.437 606.818 600.294L607.261 598.861ZM530.374 548.142L531.687 547.417C531.166 546.476 530.11 544 529.012 541.422L527.632 542.009L526.252 542.597C527.306 545.073 528.445 547.753 529.061 548.868L530.374 548.142ZM527.632 542.009L529.012 541.422C528.412 540.011 527.81 538.598 527.311 537.48C527.062 536.923 526.832 536.424 526.637 536.029C526.471 535.696 526.253 535.271 526.027 534.999L524.871 535.955L523.716 536.912C523.679 536.867 523.75 536.96 523.949 537.362C524.118 537.703 524.329 538.159 524.572 538.704C525.058 539.792 525.648 541.177 526.252 542.597L527.632 542.009ZM617.154 612.155L616.892 613.632C617.021 613.655 617.211 613.687 617.436 613.724L617.682 612.245L617.929 610.765C617.696 610.726 617.525 610.698 617.416 610.678L617.154 612.155ZM617.682 612.245L617.436 613.724C618.538 613.908 620.7 614.268 622.591 614.72C623.546 614.948 624.369 615.185 624.935 615.413C625.226 615.53 625.375 615.616 625.428 615.654C625.553 615.744 625.18 615.542 625.133 614.992L626.627 614.864L628.122 614.735C628.05 613.899 627.447 613.411 627.18 613.219C626.842 612.976 626.438 612.784 626.057 612.631C625.28 612.317 624.284 612.04 623.288 611.802C621.28 611.322 619.019 610.946 617.929 610.765L617.682 612.245ZM626.627 614.864L625.133 614.995C626.841 634.454 632.203 652.888 637.568 671.351L639.009 670.932L640.449 670.514C635.071 652.005 629.8 633.851 628.121 614.732L626.627 614.864ZM639.009 670.932L637.568 671.351C638.554 674.741 639.539 678.133 640.505 681.538L641.948 681.128L643.391 680.719C642.423 677.304 641.434 673.903 640.449 670.514L639.009 670.932ZM580.233 851.292L581.448 852.172C582.253 851.061 583.072 849.939 583.901 848.803L582.689 847.919L581.477 847.035C580.649 848.169 579.827 849.297 579.019 850.412L580.233 851.292ZM582.689 847.919L583.901 848.803C588.84 842.034 594.108 834.819 598.096 827.616L596.784 826.889L595.472 826.162C591.591 833.172 586.441 840.233 581.477 847.035L582.689 847.919ZM467.293 682.381L467.515 683.864C470.115 683.474 472.653 682.959 475.149 682.452L474.85 680.982L474.552 679.512C472.044 680.021 469.581 680.521 467.071 680.897L467.293 682.381ZM474.85 680.982L475.087 682.463L475.089 682.463L474.852 680.982L474.615 679.501L474.613 679.501L474.85 680.982ZM474.852 680.982L475.161 682.45L475.162 682.449L474.853 680.981L474.544 679.514L474.543 679.514L474.852 680.982ZM474.853 680.981L475.152 682.451C477.537 681.967 479.884 681.491 482.272 681.121L482.043 679.638L481.813 678.156C479.344 678.539 476.929 679.029 474.555 679.511L474.853 680.981ZM681.613 529.115L680.441 530.053L680.442 530.053L681.613 529.116L682.785 528.179L682.784 528.178L681.613 529.115ZM681.613 529.116L680.425 530.031L680.425 530.032L681.614 529.118L682.803 528.203L682.802 528.202L681.613 529.116ZM681.614 529.118L680.423 530.028C682.18 532.328 684.012 534.727 685.031 535.867L686.149 534.868L687.268 533.869C686.347 532.838 684.607 530.564 682.806 528.207L681.614 529.118ZM686.149 534.868L685.031 535.868C687.349 538.462 689.653 540.983 691.938 543.484L693.045 542.472L694.153 541.46C691.866 538.958 689.573 536.448 687.268 533.869L686.149 534.868ZM693.048 542.476L691.941 543.487C696.45 548.422 700.887 553.278 705.275 558.517L706.425 557.553L707.575 556.59C703.139 551.294 698.659 546.392 694.156 541.464L693.048 542.476ZM705.527 630.337L704.71 629.079C701.872 630.922 700.077 631.413 696.846 632.292L697.239 633.739L697.633 635.187C700.915 634.294 703.093 633.706 706.344 631.595L705.527 630.337ZM697.239 633.739L696.846 632.292C696.649 632.345 696.447 632.4 696.239 632.457L696.634 633.904L697.029 635.351C697.235 635.295 697.436 635.24 697.633 635.187L697.239 633.739ZM696.634 633.904L698.062 634.365C698.257 633.76 698.532 633.065 698.845 632.276L697.45 631.723L696.056 631.17C695.753 631.934 695.438 632.726 695.207 633.443L696.634 633.904ZM697.45 631.723L698.845 632.276C699.474 630.69 700.301 628.643 700.441 626.878L698.945 626.76L697.45 626.641C697.354 627.858 696.743 629.438 696.056 631.17L697.45 631.723ZM698.945 626.76L700.441 626.88C700.513 625.982 700.389 625.162 699.908 624.48C699.464 623.85 698.831 623.542 698.568 623.402L697.863 624.725L697.157 626.049C697.329 626.141 697.402 626.182 697.456 626.219C697.496 626.247 697.481 626.243 697.457 626.209C697.388 626.111 697.491 626.14 697.45 626.639L698.945 626.76ZM697.863 624.725L698.568 623.402C698.212 623.211 698.144 623.156 698.089 623.082C698.048 623.027 697.896 622.796 697.87 622.072L696.371 622.124L694.872 622.177C694.911 623.293 695.166 624.182 695.686 624.877C696.191 625.554 696.837 625.878 697.157 626.049L697.863 624.725ZM696.371 622.124L697.87 622.072C697.834 621.039 697.805 620.017 697.776 618.998L696.276 619.04L694.777 619.083C694.806 620.101 694.836 621.132 694.872 622.177L696.371 622.124ZM696.276 619.034L697.776 618.991C697.654 614.751 697.536 610.555 696.914 606.146L695.429 606.355L693.944 606.565C694.538 610.782 694.655 614.815 694.777 619.077L696.276 619.034ZM666.137 556.748L667.53 557.304C671.077 548.416 673.925 538.228 676.579 528.742L675.135 528.338L673.69 527.934C671.026 537.456 668.22 547.481 664.744 556.192L666.137 556.748ZM675.135 528.338L676.583 528.728L676.584 528.726L675.135 528.336L673.687 527.946L673.686 527.948L675.135 528.338ZM675.141 528.316L676.585 528.72C677.094 526.902 677.595 525.109 678.094 523.353L676.651 522.943L675.208 522.533C674.708 524.296 674.205 526.095 673.696 527.912L675.141 528.316ZM676.651 522.943L675.684 524.09C675.75 524.145 675.939 524.339 676.274 524.732C676.587 525.098 676.972 525.573 677.411 526.127C678.288 527.235 679.348 528.622 680.421 530.026L681.613 529.115L682.805 528.205C681.736 526.807 680.659 525.398 679.763 524.265C679.315 523.699 678.904 523.192 678.557 522.785C678.232 522.404 677.897 522.031 677.619 521.797L676.651 522.943ZM685.589 878.064L685.004 876.683C683.704 877.234 681.619 877.505 679.135 877.587C676.698 877.668 674.081 877.564 671.809 877.473L671.749 878.972L671.689 880.471C673.941 880.561 676.669 880.671 679.234 880.586C681.75 880.503 684.323 880.23 686.174 879.445L685.589 878.064ZM671.749 878.972L671.809 877.473C670.908 877.437 670.057 877.403 669.307 877.385L669.271 878.885L669.235 880.384C669.956 880.402 670.782 880.435 671.689 880.471L671.749 878.972ZM669.271 878.885L669.28 877.385C668.467 877.38 667.654 877.377 666.842 877.374L666.836 878.874L666.831 880.374C667.643 880.377 668.453 880.38 669.263 880.385L669.271 878.885ZM666.836 878.874L666.842 877.374C662.487 877.359 658.174 877.343 653.896 877.072L653.802 878.569L653.707 880.066C658.089 880.343 662.491 880.359 666.831 880.374L666.836 878.874ZM653.802 878.569L655.184 877.987C654.779 877.026 654.415 876.107 654.056 875.203L652.662 875.756L651.268 876.309C651.625 877.21 652.001 878.157 652.419 879.151L653.802 878.569ZM652.662 875.756L654.036 875.155L654.035 875.153L652.661 875.754L651.287 876.356L651.288 876.357L652.662 875.756ZM652.661 875.754L654.055 875.201C652.685 871.748 651.426 868.555 648.627 865.077L647.458 866.018L646.29 866.959C648.775 870.046 649.895 872.85 651.267 876.308L652.661 875.754ZM559.442 152.022L560.002 154.969L560.126 154.946L560.248 154.912L559.442 152.022ZM537.799 153.108L537.997 150.115L536.631 155.871L537.799 153.108ZM603.738 130.698L606.681 131.28L606.681 131.279L603.738 130.698ZM601.694 117.873L602.2 114.916L600.759 114.669L599.677 115.653L601.694 117.873ZM597.856 125.942L595.298 124.374L595.297 124.375L597.856 125.942ZM502.792 670.742L503.315 673.696L502.271 667.788L502.792 670.742ZM666.137 556.748L668.342 554.714L663.931 558.781L666.137 556.748ZM502.511 670.792L501.99 667.837L503.032 673.746L502.511 670.792ZM666.324 556.951L664.118 558.984L668.529 554.917L666.324 556.951ZM705.518 184.556L704.536 181.721L706.498 187.391L705.518 184.556ZM705.523 184.554L706.505 187.389L704.544 181.718L705.523 184.554ZM674.182 165.436L676.941 164.257L671.423 166.612L674.182 165.436ZM674.188 165.449L671.43 166.628L676.948 164.273L674.188 165.449ZM595.142 861.152L594.924 858.16L595.36 864.144L595.142 861.152ZM596.226 861.072L596.445 864.064L596.008 858.08L596.226 861.072ZM617.108 892.98V895.98L617.134 889.98L617.108 892.98ZM617.104 892.98V889.98L617.078 895.98L617.104 892.98ZM616.046 601.486L615.08 604.326L617.017 598.647L616.046 601.486ZM616.025 601.479L616.991 598.639L615.055 604.317L616.025 601.479ZM693.045 542.472L695.259 540.448L690.831 544.496L693.045 542.472ZM693.048 542.476L690.834 544.5L695.263 540.452L693.048 542.476ZM696.276 619.04L693.278 619.131L699.275 618.955L696.276 619.04ZM696.276 619.034L699.275 618.943L693.278 619.12L696.276 619.034ZM675.135 528.336L672.246 527.527L678.023 529.147L675.135 528.336ZM675.141 528.316L678.03 529.124L672.253 527.504L675.141 528.316ZM559.442 152.022L558.882 149.075C554.175 149.969 551.312 150.367 548.499 150.482C545.655 150.599 542.785 150.432 537.997 150.115L537.799 153.108L537.6 156.101C542.329 156.415 545.524 156.609 548.745 156.477C551.996 156.344 555.196 155.883 560.002 154.969L559.442 152.022ZM537.799 153.108L536.631 155.871C540.346 157.441 544.995 158.61 549.149 159.377C553.282 160.14 557.205 160.557 559.499 160.513L559.442 157.514L559.385 154.514C557.68 154.547 554.213 154.211 550.239 153.477C546.288 152.747 542.115 151.675 538.966 150.345L537.799 153.108ZM559.442 157.514L559.499 160.513C560.88 160.487 564.213 159.908 568.26 158.88C572.42 157.823 577.631 156.214 582.856 153.985C588.062 151.763 593.402 148.874 597.73 145.209C602.054 141.546 605.563 136.94 606.681 131.28L603.738 130.698L600.795 130.117C600.03 133.988 597.561 137.489 593.852 140.63C590.147 143.768 585.398 146.377 580.501 148.466C575.622 150.548 570.715 152.065 566.782 153.064C562.737 154.093 560.004 154.502 559.385 154.514L559.442 157.514ZM603.738 130.698L606.681 131.279C606.965 129.843 607.462 126.555 607.359 123.445C607.308 121.914 607.106 120.171 606.5 118.665C605.884 117.134 604.603 115.327 602.2 114.916L601.694 117.873L601.188 120.83C600.717 120.749 600.723 120.381 600.934 120.905C601.155 121.454 601.32 122.381 601.362 123.644C601.444 126.122 601.032 128.915 600.795 130.117L603.738 130.698ZM601.694 117.873L599.677 115.653C598.89 116.367 598.364 117.292 598.008 118.01C597.63 118.775 597.294 119.629 596.998 120.403C596.348 122.105 595.871 123.439 595.298 124.374L597.856 125.942L600.413 127.51C601.358 125.968 602.076 123.926 602.604 122.542C602.897 121.773 603.146 121.156 603.386 120.672C603.649 120.141 603.774 120.037 603.712 120.093L601.694 117.873ZM597.856 125.942L595.297 124.375C587.401 137.271 573.477 144.993 558.636 149.133L559.442 152.022L560.248 154.912C575.86 150.558 591.418 142.2 600.414 127.509L597.856 125.942ZM502.511 670.792L503.033 673.746L503.314 673.696L502.792 670.742L502.271 667.788L501.99 667.837L502.511 670.792ZM666.137 556.748L663.931 558.781L664.118 558.984L666.324 556.951L668.529 554.917L668.342 554.714L666.137 556.748ZM666.324 556.951L668.529 554.917C668.464 554.846 668.407 554.785 668.342 554.714L666.137 556.748L663.931 558.781C663.991 558.846 664.059 558.92 664.118 558.984L666.324 556.951ZM502.792 670.742L502.27 667.788C502.177 667.804 502.083 667.821 501.99 667.837L502.511 670.792L503.032 673.746C503.126 673.73 503.22 673.713 503.315 673.696L502.792 670.742ZM705.518 184.556L706.498 187.391L706.503 187.389L705.523 184.554L704.544 181.718L704.539 181.72L705.518 184.556ZM674.182 165.436L671.423 166.612L671.428 166.625L674.188 165.449L676.948 164.273L676.942 164.26L674.182 165.436ZM595.142 861.152L595.361 864.144L596.445 864.064L596.226 861.072L596.008 858.08L594.924 858.16L595.142 861.152ZM617.108 892.98V889.98H617.104V892.98V895.98H617.108V892.98ZM616.046 601.486L617.017 598.647L617.006 598.644L616.036 601.482L615.065 604.321L615.076 604.325L616.046 601.486ZM616.036 601.482L617.006 598.644L616.996 598.64L616.025 601.479L615.055 604.317L615.065 604.321L616.036 601.482ZM693.045 542.472L690.831 544.497L690.834 544.5L693.048 542.476L695.262 540.451L695.259 540.448L693.045 542.472ZM696.276 619.04L699.275 618.95L699.275 618.943L696.276 619.034L693.278 619.125L693.278 619.131L696.276 619.04ZM675.135 528.336L678.023 529.147L678.029 529.128L675.141 528.316L672.253 527.504L672.247 527.524L675.135 528.336ZM693.045 542.472L690.831 544.496C690.832 544.497 690.833 544.498 690.833 544.499C690.834 544.499 690.834 544.499 690.834 544.499L693.048 542.476L695.263 540.452C695.262 540.451 695.261 540.45 695.261 540.449C695.26 540.449 695.26 540.449 695.26 540.449L693.045 542.472ZM595.142 861.152L595.36 864.144C595.723 864.117 596.085 864.091 596.445 864.064L596.226 861.072L596.008 858.08C595.648 858.107 595.287 858.133 594.924 858.159L595.142 861.152ZM675.135 528.336L678.024 529.144C678.024 529.144 678.024 529.144 678.025 529.143C678.025 529.142 678.025 529.141 678.026 529.139C678.026 529.136 678.028 529.13 678.03 529.124L675.141 528.316L672.252 527.507C672.252 527.507 672.252 527.508 672.252 527.508C672.251 527.509 672.251 527.51 672.251 527.512C672.25 527.515 672.248 527.521 672.246 527.527L675.135 528.336ZM696.276 619.04L699.275 618.955C699.275 618.949 699.275 618.944 699.275 618.944C699.275 618.942 699.275 618.945 699.275 618.949L696.276 619.034L693.278 619.12C693.278 619.126 693.278 619.13 693.278 619.131C693.278 619.132 693.278 619.13 693.278 619.126L696.276 619.04ZM616.046 601.486L617.013 598.646C617.015 598.647 617.016 598.647 617.014 598.646C617.013 598.646 617.007 598.644 617.002 598.642L616.036 601.482L615.07 604.323C615.068 604.322 615.066 604.321 615.068 604.322C615.07 604.323 615.075 604.324 615.08 604.326L616.046 601.486ZM616.036 601.482L617.002 598.642C617.004 598.643 617.005 598.643 617.003 598.643C617.002 598.642 616.997 598.64 616.991 598.639L616.025 601.479L615.059 604.319C615.057 604.318 615.055 604.318 615.058 604.318C615.059 604.319 615.064 604.321 615.07 604.323L616.036 601.482ZM674.182 165.436L671.424 166.615C671.424 166.614 671.424 166.614 671.425 166.617C671.425 166.618 671.427 166.623 671.43 166.628L674.188 165.449L676.947 164.27C676.947 164.27 676.947 164.271 676.946 164.268C676.945 164.266 676.943 164.262 676.941 164.257L674.182 165.436ZM617.108 892.98L617.134 889.98C617.121 889.98 617.11 889.98 617.104 889.98C617.1 889.98 617.097 889.98 617.096 889.98C617.095 889.98 617.094 889.98 617.094 889.98C617.093 889.98 617.093 889.98 617.093 889.98C617.092 889.98 617.094 889.98 617.095 889.98C617.096 889.98 617.099 889.98 617.102 889.98C617.108 889.98 617.118 889.98 617.131 889.98L617.104 892.98L617.078 895.98C617.091 895.98 617.102 895.98 617.109 895.98C617.112 895.98 617.115 895.98 617.116 895.98C617.117 895.98 617.118 895.98 617.118 895.98C617.119 895.98 617.119 895.98 617.119 895.98C617.12 895.98 617.119 895.98 617.117 895.98C617.116 895.98 617.113 895.98 617.11 895.98C617.104 895.98 617.094 895.98 617.081 895.98L617.108 892.98ZM705.518 184.556L706.5 187.39C706.499 187.391 706.498 187.391 706.499 187.391C706.5 187.391 706.502 187.39 706.505 187.389L705.523 184.554L704.541 181.719C704.542 181.719 704.543 181.718 704.542 181.719C704.542 181.719 704.539 181.72 704.536 181.721L705.518 184.556Z" fill="black" mask="url(#path-1-inside-1_2_166)"/>
</svg>
