<svg width="874" height="344" viewBox="0 0 874 344" fill="none" xmlns="http://www.w3.org/2000/svg">
<path d="M486.665 60.594C491.689 35.904 503.501 16.426 527.14 5.6C561.236 -10.014 598.406 8.61098 612.676 41.804C613.992 44.213 615.173 46.282 616.231 48.833C690.211 50.172 775.489 91.3499 825.956 144.537C857.285 177.554 898.266 230.005 854.894 271.41C841.15 284.552 821.068 292.183 802.196 294.379C798.701 296.897 789.73 309.051 785.083 313.569C762.652 335.547 731.489 346.215 700.292 342.594C670.94 339.242 646.202 324.392 627.967 301.392C627.178 300.396 626.407 299.387 625.653 298.365C614.374 297.876 552.78 296.118 545.046 298.225C542.961 299.367 541.204 298.475 539.118 297.81L246.904 297.76C244.398 301.444 239.31 307.245 236.177 310.48C216.274 331.353 188.82 343.362 159.979 343.811C122.389 344.334 92.8167 327.153 70.2217 297.919C70.1147 297.818 70.0077 297.717 69.8997 297.615C57.4147 297.758 44.9287 297.82 32.4417 297.8C-0.566719 297.89 -0.131014 298.476 0.025786 265.655L0.102683 223.853C22.0172 208.05 50.0547 187.295 70.6497 170.379C73.1387 168.269 79.8287 158.876 83.7677 155.366C110.333 131.694 133.75 123.756 168.55 125.486C176.725 123.694 220.848 124.682 231.404 124.684L375.792 124.443C381.745 119.885 400.198 98.491 406.428 91.513C424.457 100.967 448.02 116.685 466.645 124.624C469.589 125.879 491.905 124.622 497.058 124.459C497.043 120.485 496.541 111.621 497.401 108.369L499.001 108.093C509.394 108.113 523.827 109.272 530.465 101.884C548.039 82.326 531.956 56.0999 506.332 60.5839C502.916 61.1819 490.355 60.608 486.665 60.594Z" fill="#7C8F82"/>
<path d="M70.6497 170.379C73.1387 168.269 79.8287 158.876 83.7677 155.366C110.333 131.694 133.75 123.756 168.55 125.486C182.691 127.905 194.078 130.195 206.833 136.97C245.696 157.612 266.906 194.346 266.932 237.762C266.612 242.172 266.354 246.799 265.808 251.169C262.508 270.3 257.445 281.4 246.904 297.76C244.398 301.444 239.31 307.245 236.177 310.48C216.274 331.353 188.82 343.362 159.979 343.811C122.389 344.334 92.8167 327.153 70.2217 297.919C70.1147 297.818 70.0077 297.717 69.8997 297.615C57.4147 297.758 44.9287 297.82 32.4417 297.8C-0.566719 297.89 -0.131014 298.476 0.025786 265.655L0.102683 223.853C22.0172 208.05 50.0547 187.295 70.6497 170.379Z" fill="#0F2A23"/>
<path d="M70.6497 170.379C49.3027 205.967 43.0877 238.268 59.1007 277.861C60.9307 282.385 69.2887 294.674 69.8997 297.615C57.4147 297.758 44.9287 297.82 32.4417 297.8C-0.566719 297.89 -0.131014 298.476 0.025786 265.655L0.102683 223.853C22.0172 208.05 50.0547 187.295 70.6497 170.379Z" fill="#6B6760"/>
<path d="M150.097 178.32C180.929 173.769 209.604 195.09 214.116 225.92C218.628 256.75 197.264 285.391 166.421 289.861C135.634 294.323 107.051 273.012 102.548 242.239C98.0437 211.467 119.323 182.862 150.097 178.32Z" fill="#E7E3D9"/>
<path d="M152.047 200.976C170.398 197.386 188.203 209.288 191.897 227.615C195.59 245.941 183.785 263.808 165.475 267.603C147.02 271.428 128.975 259.511 125.252 241.039C121.529 222.568 133.55 204.594 152.047 200.976Z" fill="#111418"/>
<path d="M625.653 298.365C621.689 292.949 618.146 287.238 615.056 281.281C601.898 255.806 600.223 228.384 608.942 201.179C617.696 173.194 637.282 149.873 663.337 136.411C688.405 123.516 717.578 121.133 744.407 129.789C771.957 138.919 794.749 158.619 807.768 184.553C821.119 210.968 823.533 242.124 813.468 270.094C810.634 277.97 804.265 287.425 802.196 294.379C798.701 296.897 789.73 309.051 785.083 313.569C762.652 335.547 731.489 346.215 700.292 342.594C670.94 339.242 646.202 324.392 627.967 301.392C627.178 300.396 626.407 299.387 625.653 298.365Z" fill="#0F2A23"/>
<path d="M704.734 178.207C735.548 174.497 763.517 196.511 767.142 227.327C770.768 258.143 748.671 286.044 717.837 289.583C687.125 293.108 659.35 271.122 655.739 240.427C652.128 209.732 674.042 181.903 704.734 178.207Z" fill="#E7E3D9"/>
<path d="M705.402 201.03C723.612 197.68 741.083 209.749 744.389 227.963C747.696 246.178 735.581 263.614 717.354 266.875C699.19 270.125 681.822 258.064 678.527 239.913C675.233 221.761 687.254 204.368 705.402 201.03Z" fill="#111418"/>
<path d="M267.058 230.098C297.451 230.496 328.191 229.84 358.601 230.136C372.169 230.268 388.775 229.626 402.108 230.478C413.005 237.241 431.48 244.682 443.562 251.118C464.797 260.054 487.705 272.941 508.922 282.59C512.587 284.257 537.303 296.323 539.118 297.81L246.904 297.76C257.445 281.4 262.508 270.3 265.808 251.169C266.354 246.799 266.612 242.172 266.932 237.762C267.091 236.367 267.04 231.718 267.058 230.098Z" fill="#6B6760"/>
<path d="M267.058 230.098C297.451 230.496 328.191 229.84 358.601 230.136C372.169 230.268 388.775 229.626 402.108 230.478C413.005 237.241 431.48 244.682 443.562 251.118C423.965 251.572 402.772 251.178 383.073 251.178L265.808 251.169C266.354 246.799 266.612 242.172 266.932 237.762C267.091 236.367 267.04 231.718 267.058 230.098Z" fill="#A8A39B"/>
<path d="M486.665 60.594C491.689 35.904 503.501 16.426 527.14 5.6C561.236 -10.014 598.406 8.61098 612.676 41.804C618.374 60.593 621.473 77.805 611.831 96.143C605.169 108.813 592.845 117.711 579.319 121.869C561.754 127.269 518.418 124.777 497.499 124.668C497.456 120.881 497.061 112.143 497.938 108.868L499.001 108.093C509.394 108.113 523.827 109.272 530.465 101.884C548.039 82.326 531.956 56.0999 506.332 60.5839C502.916 61.1819 490.355 60.608 486.665 60.594Z" fill="#0F0F0F"/>
<path d="M374.609 221.659L517.862 153.061L517.842 243.953C517.849 255.578 518.56 279.086 517.547 289.406C515.462 290.548 513.705 289.656 511.619 288.991C509.804 287.504 485.088 275.438 481.423 273.771C460.206 264.122 437.298 251.235 416.063 242.299C403.981 235.863 385.506 228.422 374.609 221.659Z" fill="#7C8F82"/>
</svg>
