<svg width="876" height="233" viewBox="0 0 876 233" fill="none" xmlns="http://www.w3.org/2000/svg">
<path d="M419.837 1.21306C462.759 -0.529939 510.039 2.16905 552.673 7.67205C569.683 9.86805 590.112 15.5511 606.804 20.1271C622.872 24.5191 638.854 29.225 654.739 34.241C664.153 37.226 674.731 40.9141 684.203 43.2691C688.891 44.4351 700.874 43.2 706.573 43.511C724.681 44.501 750.068 46.595 767.201 52.198C771.249 46.053 776.804 38.381 781.332 32.572C768.7 32.03 744.944 32.8181 761.598 13.3161C769.582 3.96706 769.002 3.82104 781.758 3.81804C808.131 3.83004 834.664 2.66206 861.017 3.05806C875.331 3.21706 867.356 17.005 863.05 23.676C860.652 27.756 853.224 36.8351 848.202 37.4701C840.043 38.5021 827.49 36.045 818.934 35.357C816.819 43.058 810.74 55.637 807.214 62.972C819.716 66.205 842.875 64.2111 855.692 61.7991C869.676 67.2561 855.832 78.206 849.835 84.46C853.897 93.881 862.406 108.505 867.346 118.288C869.888 118.831 873.159 119.468 873.994 122.44C877.005 133.169 876.044 146.49 873.018 157.113C872.154 160.148 867.964 162.125 865.361 163.097C862.684 173.855 861.24 188.916 856.21 198.681C852.571 205.747 829.38 203.729 821.758 204.219C809.74 204.99 797.005 205.176 784.939 205.392C772.298 205.618 772.193 199.876 771.931 189.218C753.755 226.237 708.79 241.931 671.08 225.659C652.466 217.779 637.831 202.704 630.507 183.865C630.541 188.058 631.379 202.45 628.937 205.089C624.106 207.744 599.645 206.559 592.75 206.504L368.927 206.2L299.329 206.264C286.999 206.277 274.562 206.343 262.231 206.194C260.727 206.058 258.331 206.321 257.376 204.835C254.468 200.311 255.817 190.175 255.884 184.763C240.47 222.022 198.737 239.737 161.002 225.585C142.799 218.786 128.114 204.922 120.282 187.139C118.408 191.54 122.549 201.705 117.775 205.223C104.536 208.167 32.1261 203.83 14.9587 201.582C12.653 201.042 9.51501 197.958 8.66591 195.909C5.74571 188.862 13.3778 184.814 18.6238 182.491C17.9964 179.923 15.0545 164.082 15.1721 161.56C15.9016 145.912 2.9827 145.325 0.867002 132.037C0.510002 129.795 3.468 126.581 5.1205 125.36C19.4032 114.806 35.7441 107.171 51.5311 99.149C105.148 71.652 155.89 56.3711 216.869 60.4411C225.476 61.0151 234.428 60.7791 243.537 61.6351C271.22 48.3831 301.123 36.4391 329.534 24.4921C344.348 18.2631 364.207 10.313 379.44 5.81905C389.35 2.89505 409.21 1.84306 419.837 1.21306ZM375.783 16.067C396.995 15.514 419.701 16.4261 441.158 17.5091C469.791 18.9531 502.865 20.111 530.567 27.404C540.697 30.072 557.713 40.3631 567.346 45.4971C574.306 49.6081 582.149 52.882 588.177 58.343C591.204 61.086 593.483 65.255 593.348 69.387C593.118 76.377 587.073 82.463 582.797 87.401C577.125 93.951 571.481 100.256 565.82 106.792C555.81 117.903 546.708 130.027 535.943 140.399C528.921 147.221 518.845 153.575 510.417 158.579C507.622 164.424 504.658 174.61 503.251 181.16C503.737 181.117 504.223 181.073 504.708 181.03C516.366 179.985 527.822 178.959 539.558 178.697C551.21 178.436 556.016 183.218 565.065 189.494C572.528 189.877 580.372 189.672 587.884 189.641C599.052 189.595 610.822 190.037 621.942 189.858C621.76 157.389 619.998 130.633 642.596 103.854C673.589 69.2261 720.566 66.382 755.819 96.586C770.948 92.067 786.478 89.019 802.192 87.483C802.995 84.328 803.634 82.8671 805.672 80.2901C815.1 76.4751 834.336 76.097 845.09 76.365L849.407 71.856C840.321 72.827 828.904 74.4551 819.985 73.8761C802.125 72.7151 784.784 65.257 767.663 61.024C751.535 57.036 733 54.569 716.495 52.991C702.983 51.6984 689.152 52.6287 675.658 53.5363C675.455 53.5499 675.253 53.5635 675.051 53.577C663.395 54.361 650.573 55.9571 639.093 53.6961C624.927 50.9054 612.084 44.3092 599.361 37.7739C599.126 37.6536 598.892 37.5333 598.658 37.413C598.46 37.3115 598.261 37.2093 598.061 37.1065C594.223 35.1375 589.948 32.944 586.506 30.55C583.859 28.709 584.259 25.928 583.736 23.736C583.656 23.401 575.094 21.4061 574.072 21.1731C539.471 13.3041 503.943 11.1911 468.561 10.4111C457.183 10.1611 441.124 9.42005 430.008 10.3241C411.35 10.6801 393.904 11.182 375.783 16.067ZM350.61 74.841C351.915 77.234 352.958 79.667 352.265 82.469C348.177 86.642 341.509 77.812 339.277 74.854L307.586 74.416C304.577 79.502 299.305 88.478 298.073 94.029C293.609 114.148 296.024 145.668 298.384 165.88C298.679 169.511 299.054 173.352 299.206 176.97C303.247 172.261 309.162 166.023 315.22 164.186C330.722 159.486 349.238 157.699 365.338 155.174C412.441 147.744 459.696 141.324 507.073 135.917C515.696 105.268 517.481 102.449 510.803 71.3241C509.943 70.9961 510.289 70.998 509.807 71.035C492.866 76.44 470.626 74.951 452.424 74.96L385.663 74.934C375.525 74.897 360.278 74.291 350.61 74.841ZM708.245 223.176C746.371 220.005 774.683 186.488 771.435 148.368C768.187 110.248 734.612 82.005 696.499 85.33C658.495 88.646 630.35 122.104 633.589 160.114C636.828 198.124 670.228 226.337 708.245 223.176ZM194.251 221.599C230.079 217.774 255.977 185.562 252.017 149.749C248.058 113.936 215.748 88.159 179.95 92.253C144.342 96.325 118.732 128.426 122.67 164.049C126.609 199.673 158.613 225.403 194.251 221.599ZM126.737 78.422C127.022 91.116 118.489 96.587 109.446 103.925C103.516 108.736 95.5651 112.093 88.0461 113.471C76.1761 115.646 49.2081 122.826 38.5571 116.529C28.5285 120.48 18.2923 126.118 9.96141 132.997C14.7512 140.123 21.0989 146.7 26.587 153.459C33.7471 162.277 38.8581 170.715 45.0441 180.036C54.2711 180.015 64.5131 180.206 73.6591 179.792C69.5401 170.559 59.9921 150.646 58.8111 141.865C51.6311 142.557 44.3791 143.156 37.1561 143.004C33.1091 142.919 18.3845 143.851 22.8295 136.061C24.8004 134.466 29.7803 134.218 32.3261 134.302C38.9151 134.521 67.5131 129.267 68.6711 139.549C67.8261 141.201 66.8031 142.149 67.3031 143.654C71.0731 155.009 83.7001 173.693 82.0121 185.121C81.7751 186.196 79.7001 187.702 78.6641 187.744C68.1421 188.177 56.9801 187.966 46.4361 187.575C43.1661 187.454 38.5191 185.34 36.9191 182.423C32.4731 174.315 27.375 167.102 21.9393 159.622C24.8486 176.56 32.0371 183.483 15.6574 193.305C24.4632 193.807 33.6441 194.607 42.3761 194.979C65.1891 196.39 88.0461 196.988 110.902 196.77C110.972 161.05 108.084 131.396 136.066 103.515C150.145 89.4861 168.073 82.481 187.976 82.66C209.042 82.85 226.469 90.4201 241.17 105.449C264.266 129.063 264.924 164.491 264.235 195.495C264.22 196.195 264.173 196.825 264.105 197.523L283.215 197.48C286.143 194.488 288.877 190.856 291.163 187.349C288.833 159.946 285.73 132.52 287.647 104.994C288.585 91.529 290.654 85.131 298.203 74.024C279.268 73.198 261.301 72.563 242.327 71.319C229.248 70.346 216.147 69.6791 203.036 69.3201C199.17 69.2391 192.174 68.964 188.485 69.304C173.763 69.732 159.107 71.449 144.684 74.435C138.679 75.633 132.585 77.322 126.737 78.422ZM851.265 145.86C846.145 146.544 839.976 146.914 835.192 147.719C832.618 151.965 830.671 156.387 828.161 160.548C822.585 169.79 816.842 179.07 811.042 188.172C815.795 187.062 820.828 185.762 825.017 183.191C837.213 175.703 844.713 162.152 856.281 153.795C857.18 153.146 862.935 153.358 864.319 153.408C867.919 147.247 867.077 134.449 866.583 127.361C856.335 127.316 846.229 127.453 836.015 126.255C828.322 125.353 823.716 123.338 818.332 117.707C812.045 111.135 806.834 103.805 802.934 95.551C801.646 95.453 801.606 95.4071 800.358 95.6611C789.838 97.2911 771.896 100.031 761.634 102.921C777.975 121.332 782.233 145.425 781.722 169.28C781.573 176.236 780.464 187.805 781.482 194.312C787.32 193.595 793.257 192.215 798.952 190.722C808.988 173.873 819.587 157.354 830.08 140.797C832.557 136.889 851.497 138.249 854.69 139.937C856.902 143.036 854.322 145.147 851.265 145.86ZM501.986 151.834C502.302 150.154 503.005 147.633 502.666 146.132L501.851 146.286C492.941 146.954 352.316 165.553 352.503 165.402L353.408 165.651C373.37 165.09 399.177 162.733 419.287 161.265C439.471 159.791 483.467 157.608 501.986 151.834ZM388.234 25.024C376.962 24.999 370.052 25.0091 358.868 23.0221C325.951 35.5431 293.348 48.879 261.091 63.016C270.387 63.733 282.067 64.4561 291.375 64.6651C295.568 64.7771 319.847 65.7491 321.902 64.6961C336.191 57.3781 350.303 47.1551 364.282 38.9961C370.854 35.0391 383.027 28.652 388.234 25.024ZM118.739 80.981C110.745 83.87 52.0871 106.995 49.7331 110.84L50.4271 111.029C63.4471 111.121 77.7261 107.426 90.3711 104.596C99.0141 102.661 117.552 89.851 119.41 81.309L118.739 80.981ZM775.884 54.684C782.708 55.904 791.167 58.269 797.782 60.503L798.606 60.5311C801.868 54.9411 807.749 40.6451 810.121 34.4701C803.58 33.9851 797.035 33.554 790.487 33.176C785.449 41.509 781.822 46.943 775.884 54.684ZM849.512 195.264C851.484 190.478 858.189 167.435 857.287 162.938C845.165 175.04 834.286 192.495 816.342 194.905C814.768 195.116 811.881 195.332 810.792 196.261L811.125 196.696C823.925 195.613 836.922 196.669 849.512 195.264ZM518.666 66.943C520.1 74.298 522.268 83.0231 523.306 90.1781C525.358 104.334 520.687 121.722 516.858 135.549C520.784 135.147 525.339 134.568 529.231 134.377C532.195 131.417 535.093 128.391 537.922 125.301C549.165 112.886 560.188 100.273 570.985 87.469C575.525 82.032 582.069 74.745 585.229 68.746C580.221 62.601 558.048 50.0251 550.163 46.9111C539.152 54.7841 528.583 60.047 518.666 66.943ZM840.708 114.934L841.671 114.728C842.997 111.184 843.653 89.8821 843.494 85.1961C840.627 85.0971 837.661 84.934 834.802 85.029C828.466 95.129 830.551 108.258 840.708 114.934ZM364.985 49.425C360.929 51.8 346.386 59.3881 344.859 62.6951C345.539 66.2591 351.284 65.6431 354.125 65.5921C360.873 65.6261 364.795 66.288 370.989 63.366C374.744 56.685 374.239 49.037 364.985 49.425ZM313.983 197.506L533.483 197.502C541.856 197.494 552.99 197.883 561.033 197.456C555.765 193.834 547.829 187.176 541.783 187.265C491.66 188.381 440.904 193.183 390.539 193.827C380.309 193.958 297.594 194.91 295.755 195.65L295.068 196.505C296.205 198.016 311.468 197.528 313.983 197.506ZM850.165 99.826C850.192 106.487 850.557 111.927 848.946 118.424L858.381 118.592C858.309 117.359 850.905 100.475 850.165 99.826ZM821.138 86.198C817.494 86.558 814.91 86.405 812.029 88.608C810.581 92.479 821.929 108.871 825.175 112.169C826.941 114.29 827.677 114.92 829.815 116.696C824.86 109.019 821.491 102.039 823.686 92.547C824.177 90.425 824.892 88.307 824.757 86.18C823.042 85.889 822.829 85.998 821.138 86.198ZM518.953 56.839C522.554 54.275 525.948 51.8751 529.674 49.4751C533.253 47.0881 537.193 44.698 540.172 41.637C535.054 39.636 529.801 37.2091 524.568 35.8071C521.926 43.0011 520.604 49.39 518.953 56.839ZM495.87 181.472C496.363 176.002 500.438 164.953 500.4 162.156C491.808 164.872 479.944 165.904 470.83 166.776C455.548 168.139 440.246 169.26 424.929 170.139C404.821 171.463 383.691 173.483 363.656 173.771C351.597 173.881 339.539 174.072 327.483 174.344C325.059 174.402 318.553 174.267 316.715 174.654C312.86 175.466 304.235 183.407 302.597 186.95L303.069 187.482C344.807 187.129 386.539 186.189 428.252 184.662C442.791 184.095 457.326 183.425 471.856 182.653C478.997 182.277 488.888 181.441 495.87 181.472ZM484.068 65.625C493.447 65.418 500.896 64.2931 509.424 60.2421C510.958 52.3611 512.862 40.292 515.495 33.198C490.724 28.214 458.068 28.099 432.486 26.412C424.215 25.866 413.72 26.45 405.805 25.668C400.856 27.493 380.203 39.8561 375.229 43.3631C384.011 49.3111 383.361 56.797 380.217 65.861C414.832 65.495 449.45 65.417 484.068 65.625ZM597.629 27.486C617.655 38.098 639.546 48.7231 662.533 45.7821C658.729 43.9731 650.13 41.743 645.842 40.564L620.028 33.5061C615.628 32.2921 601.335 27.878 597.629 27.486ZM859.502 11.856L805.509 12.4451C795.802 12.5271 784.038 12.28 774.498 13.067C771.532 14.926 767.368 20.106 764.912 22.909L771.104 22.998C790.954 25.279 812.265 24.6621 832.108 27.5531C850.035 30.1641 850.436 26.841 859.699 12.24L859.502 11.856Z" fill="black"/>
<path d="M498.764 95.2041C500.475 95.0211 504.005 94.6331 505.535 95.1501C508.073 96.0081 510.816 99.1361 508.592 101.725C507.731 102.727 505.988 103.383 504.71 103.469C498.132 103.911 491.551 104.216 484.972 104.63L442.028 107.445C407.584 109.859 369.929 113.452 335.774 115.091C333.668 115.332 330.205 115.909 328.199 115.565C325.084 115.031 324.275 111.553 325.365 108.929C327.656 106.384 340.579 106.429 344.563 106.143L372.038 103.905C414.254 100.636 456.497 97.7361 498.764 95.2041Z" fill="black"/>
<path d="M697.638 100.616C727.339 97.8771 753.62 119.776 756.284 149.484C758.949 179.191 736.984 205.417 707.27 208.007C677.661 210.588 651.548 188.718 648.893 159.115C646.238 129.513 668.042 103.345 697.638 100.616ZM706.495 135.519C712.553 137.5 714.939 138.881 718.58 144.358C724.829 141.974 731.021 139.53 737.394 137.498L744.24 135.332C734.858 119.51 725.421 111.393 706.827 108.87L706.495 135.519ZM721.599 152.387C721.001 158.816 720.72 160.25 718.166 166.143C721.406 170.812 724.596 175.515 727.735 180.253C729.535 182.753 731.462 185.553 733.325 187.97C743.043 178.16 748.278 167.857 748.261 153.777C748.233 150.758 747.95 147.747 747.415 144.776C746.49 144.488 746.873 144.465 746.281 144.579C738.024 147.088 729.796 149.69 721.599 152.387ZM678.251 193.264C689.445 199.193 698.669 201.293 711.231 198.936C717.524 197.613 720.278 196.443 726.107 193.619C720.46 186.33 716.355 179.301 711.254 171.866C704.877 174.179 700.216 174.588 693.9 171.579C688.728 178.839 683.511 186.067 678.251 193.264ZM702.385 144.128C698.985 144.804 696.757 145.354 694.769 148.485C693.104 151.126 692.582 154.33 693.324 157.363C694.469 162.168 698.32 164.915 703.186 165C706.701 164.193 709.22 163.157 711.176 159.854C712.577 157.459 712.96 154.602 712.238 151.923C711.444 149.042 709.48 146.624 706.823 145.257C705.533 144.605 703.806 144.338 702.385 144.128ZM687.42 143.982C690.558 139.083 691.822 138.147 697.285 135.617C697.098 131.213 698.114 111.334 696.884 109.213L696.19 109.104C679.783 111.636 667.945 121.639 660.324 136.049C663.475 136.788 666.719 137.476 669.792 138.471C675.607 140.248 681.691 142.007 687.42 143.982ZM677.361 179.747L687 165.811C684.26 160.006 684.219 158.914 683.881 152.624L683.857 152.119C675.138 149.678 666.402 147.298 657.65 144.98C655.654 158.994 657.779 171.044 666.522 182.517C668.054 184.501 669.743 186.357 671.575 188.067C673.479 185.277 675.408 182.503 677.361 179.747Z" fill="black"/>
<path d="M180.97 105.744C209.249 102.187 235.031 122.297 238.465 150.591C241.9 178.886 221.678 204.58 193.369 207.892C165.233 211.184 139.73 191.112 136.317 162.991C132.903 134.87 152.864 109.28 180.97 105.744ZM179.146 173.338C174.376 180.134 169.514 187.262 164.545 193.88C169.357 196.329 174.524 198.485 179.88 199.393C191.489 200.728 198.921 199.674 209.531 194.538C207.015 190.995 196.784 174.532 194.929 173.119C188.435 175.3 185.714 175.213 179.146 173.338ZM203.992 154.647C204.612 160.211 204.233 162 201.792 167.303C205.194 171.876 207.935 176.009 211.048 180.771C212.838 183.389 214.861 186.503 216.782 188.97C228.643 175.58 231.029 166.808 229.973 148.648C229.917 147.677 229.884 147.553 229.515 146.63L228.736 146.424C222.03 149.282 211.19 153.053 203.992 154.647ZM201.446 146.364C207.358 144.48 213.244 142.512 219.1 140.462C222.049 139.465 223.709 138.866 226.556 137.535C217.822 123.211 207.827 116.014 191.18 113.861C190.249 119.323 191.061 132.109 190.741 138.792C196.112 140.486 197.781 142.047 201.446 146.364ZM177.581 157.119C179.713 162.716 181.179 166.219 187.827 166.254C191.025 165.287 193.237 164.349 194.859 161.155C196.153 158.635 196.304 155.681 195.274 153.043C193.513 148.518 190.2 147.272 185.727 146.959C180.353 149.314 178.448 151.174 177.581 157.119ZM181.656 113.61C166.341 117.023 154.955 123.892 148.066 138.673C151.213 139.698 154.072 140.634 157.281 141.464C162.19 142.988 167.278 144.651 172.201 146.066C176.394 141.87 177.027 140.967 182.434 138.718C182.046 134.214 182.504 115.612 182.043 113.77L181.656 113.61ZM157.442 188.29L163.298 180.267L172.424 167.101C170.161 162.891 169.937 159.48 169.759 154.777C161.42 152.323 153.11 149.773 144.831 147.126C142.804 164.608 145.417 175.124 157.442 188.29Z" fill="black"/>
</svg>
