<svg width="167" height="130" viewBox="0 0 167 130" fill="none" xmlns="http://www.w3.org/2000/svg">
<path d="M8.21108 16.0347C4.60512 21.274 2.25435 27.8941 2.50352 34.9243C2.77761 39.1408 4.23122 42.8582 6.68343 45.7171C8.78613 47.8925 11.5943 49.1295 14.3152 48.9718C17.5004 48.4381 20.173 46.3721 22.2132 43.259C23.282 41.4073 24.0398 39.3642 24.8 37.2911C26.0255 34.034 27.6552 31.92 30.3361 30.5319C32.8279 29.6295 35.5885 30.1731 37.8627 31.6387C40.0416 33.3276 41.3826 35.7976 42.0673 38.8833C42.454 40.9513 42.6599 42.9799 42.8033 45.0947C43.2581 50.991 44.4173 56.1617 47.2827 60.9187L47.6226 61.4961C49.4885 64.4296 52.3246 66.9236 55.1831 67.9718C55.7828 68.0689 55.7828 68.0689 56.2188 67.6155L56.6558 67.0288C57.609 65.8593 58.6163 64.9235 59.724 63.9983L60.1907 63.6055C61.2461 62.7305 62.329 61.9381 63.4396 61.1808C63.1537 60.1919 62.7859 59.3641 62.3391 58.4779C59.743 52.8779 59.8379 46.3223 59.9287 40.0403L59.9309 39.8874C60.0603 30.0251 58.4872 20.9326 53.0826 13.4793C47.7902 6.70744 40.4496 2.75008 32.9257 2.68345C23.2233 2.6943 14.9169 7.06104 8.21108 16.0347Z" fill="#7C8F82"/>
<path fill-rule="evenodd" clip-rule="evenodd" d="M31.3521 0.514305C31.8919 0.521951 32.4313 0.519676 32.9711 0.516289C40.2357 0.527695 46.9772 3.80739 52.4612 9.80995C52.6853 10.0343 52.9097 10.2582 53.1344 10.4816C58.3102 16.2864 61.1443 25.3355 61.5753 33.9228C61.5926 35.0482 61.5804 36.1719 61.5664 37.2973C61.5618 37.946 61.5573 38.5948 61.5531 39.2436C61.5454 40.2498 61.5365 41.256 61.5242 42.2621C61.4505 48.5802 61.6462 54.6501 65.0967 59.6082C66.2236 59.3085 67.3186 58.959 68.4191 58.5319C79.8746 54.1178 91.0849 56.8143 102.385 60.4185C104.231 61.0053 106.077 61.5632 107.943 62.0377L108.447 62.1664C114.843 63.75 121.165 62.2657 126.619 57.6858C127.332 57.0506 128.017 56.3792 128.688 55.6768L128.585 54.825C128.238 51.233 128.508 48.2287 130.138 45.1929C130.896 44.153 131.763 43.2299 132.893 42.9989C134.254 42.9523 135.112 43.2719 136.145 44.4067C136.659 45.0768 137.137 45.7722 137.595 46.5034L137.793 45.8523L138.061 44.9964L138.324 44.1486C138.638 43.3413 138.899 42.8594 139.46 42.3099C140.3 42.0961 141.058 42.3626 141.777 42.9283C143.504 44.7323 144.318 46.8611 144.638 49.6486C144.7 50.9596 144.676 52.2681 144.638 53.58L145.276 53.965C151.261 57.6287 154.688 62.8709 158.019 69.998C158.277 70.5467 158.541 71.0892 158.808 71.6309C159.499 73.1032 159.996 74.2667 159.725 75.9974C158.708 79.7987 156.484 82.1568 153.752 83.9832C149.851 86.167 145.339 86.9703 141.117 86.0799C142.585 90.1288 145.49 92.6073 148.718 94.1265C151.866 95.4919 155.77 97.1045 159.101 97.1248L159.799 97.1402C160.278 97.149 160.756 97.1539 161.235 97.1545C162.922 97.2013 164.476 97.5278 165.705 99.1169C166.625 100.583 166.951 102.316 166.802 104.165C166.352 106.397 165.462 107.728 163.925 108.925C162.892 109.443 161.583 109.366 160.53 108.964C159.631 108.423 158.874 107.657 158.091 106.888C156.886 105.798 155.558 105.441 154.096 105.445L153.443 105.445L152.745 105.449L152.025 105.451C151.267 105.452 150.51 105.455 149.752 105.459C149.238 105.46 148.723 105.461 148.209 105.462C146.95 105.465 145.69 105.47 144.431 105.475C146.346 106.826 148.241 107.988 150.309 108.931C154.545 110.881 154.545 110.881 155.824 112.814L156.116 113.243C156.916 114.587 157.016 115.822 156.958 117.482C156.743 119.302 156.104 120.473 154.969 121.594C153.744 122.68 152.518 122.706 151.059 122.511C149.668 121.949 148.965 120.553 148.21 119.057L148.171 118.979C147.135 117.369 145.522 117.236 143.994 116.9L143.248 116.73C140.773 116.176 138.291 115.686 135.808 115.204C118.84 111.9 118.84 111.9 115.639 106.786V106.261C113.932 105.98 112.225 105.716 110.512 105.503L110.039 105.443C109.404 105.363 108.769 105.283 108.134 105.207C102.431 104.519 96.8041 103.176 91.1896 101.77C90.4783 101.592 89.7667 101.416 89.0551 101.239L88.9383 101.21C88.0657 100.994 87.1931 100.778 86.3206 100.56C84.5212 100.112 82.7208 99.6711 80.9186 99.2412C80.2191 99.0741 79.5215 98.9028 78.8248 98.7176C78.1888 98.5566 77.7456 98.4893 77.1108 98.6606C76.5162 99.213 76.0661 99.8224 75.5799 100.524C70.7817 107.25 61.9172 111.302 54.9469 111.765C51.3695 111.96 47.9523 111.753 44.4281 110.946L43.3471 110.717L42.6544 110.553C41.5759 110.874 41.1293 112.267 40.5774 113.394C40.2869 114.005 40.0042 114.621 39.7221 115.238C34.07 127.355 34.07 127.355 29.6759 128.802C28.1471 129.023 26.7884 128.954 25.5331 127.753C24.4707 126.571 24.0186 125.272 23.6688 123.56L23.0911 124.117C17.3209 129.615 17.3209 129.615 13.7262 129.064C11.8855 128.352 10.7668 126.849 9.80346 124.805C9.41437 123.067 9.3146 121.213 9.90703 119.53C10.7844 117.692 11.9074 116.958 13.4543 116.172C15.8422 114.942 17.375 112.777 19.0543 110.348C19.4858 109.727 19.9268 109.118 20.3721 108.512C21.3641 107.16 22.3027 105.772 23.2173 104.335C23.8015 103.437 24.4191 102.582 25.0391 101.723L25.0662 101.686C25.5571 100.985 26.0175 100.262 26.4782 99.5288C27.5824 97.8108 28.7499 96.0975 30.5044 95.5154C31.4018 95.4163 32.2969 95.4207 33.1972 95.4171C36.9019 95.3203 39.9026 94.1807 42.6698 90.9062C44.3981 88.5801 45.5747 85.8368 46.7569 83.0397C48.2552 79.4973 49.8762 76.1361 51.8398 72.9751C52.1294 72.4993 52.418 72.0225 52.7067 71.5457C53.107 70.8852 53.509 70.2265 53.9112 69.5679L53.3634 69.356C48.9691 67.3817 45.5299 62.4907 43.5228 57.3245C41.8845 52.9348 41.4093 48.2833 40.9221 43.5134L40.9083 43.3787C40.427 38.6366 40.427 38.6366 38.3757 34.7091C36.4272 32.8568 34.3893 31.9996 31.9544 32.3502C29.7602 33.0055 28.0943 34.5158 26.7759 36.8059C26.4639 37.5439 26.2184 38.3061 25.9733 39.0828C24.2952 44.0742 21.6327 48.1638 17.5922 50.2711C14.2575 51.6614 10.8958 51.1943 7.77091 49.2063C6.57458 48.3225 5.59087 47.2114 4.61204 45.9792L4.21879 45.5093C1.64391 42.1702 0.76937 37.4697 0.781932 32.9513C0.941441 26.0597 3.39855 19.9364 6.89057 14.7898L7.37443 14.0711C8.55732 12.3666 9.82079 10.9285 11.2405 9.54786L11.8279 8.96019C17.4482 3.45031 24.2257 0.404663 31.3521 0.514305ZM2.50352 34.9243C2.25435 27.8941 4.60512 21.274 8.21108 16.0347C14.9169 7.06104 23.2233 2.6943 32.9257 2.68345C40.4496 2.75008 47.7902 6.70744 53.0826 13.4793C58.4872 20.9326 60.0603 30.0251 59.9309 39.8874L59.9287 40.0403C59.8379 46.3223 59.743 52.8779 62.3391 58.4779C62.7859 59.3641 63.1537 60.1919 63.4396 61.1808C62.329 61.9381 61.2461 62.7305 60.1907 63.6055L59.724 63.9983C58.6163 64.9235 57.609 65.8593 56.6558 67.0288L56.2188 67.6155C55.7828 68.0689 55.7828 68.0689 55.1831 67.9718C52.3246 66.9236 49.4885 64.4296 47.6226 61.4961L47.2827 60.9187C44.4173 56.1617 43.2581 50.991 42.8033 45.0947C42.6599 42.9799 42.454 40.9513 42.0673 38.8833C41.3826 35.7976 40.0416 33.3276 37.8627 31.6387C35.5885 30.1731 32.8279 29.6295 30.3361 30.5319C27.6552 31.92 26.0255 34.034 24.8 37.2911C24.0398 39.3642 23.282 41.4073 22.2132 43.259C20.173 46.3721 17.5004 48.4381 14.3152 48.9718C11.5943 49.1295 8.78613 47.8925 6.68343 45.7171C4.23122 42.8582 2.77761 39.1408 2.50352 34.9243ZM130.067 52.8142C130.007 50.3022 130.438 48.1251 131.796 46.2413C132.81 45.125 133.768 44.7649 134.916 45.8646L135.317 46.5034L135.607 46.9191C137.429 49.6926 137.821 52.7213 137.595 56.201C137.379 57.0223 137.402 57.2467 137.595 58.0357H138.631C138.86 57.4553 138.86 57.4553 139.045 56.1846C139.108 55.7517 139.176 55.3198 139.253 54.8905C139.475 54.5516 139.475 54.5516 139.999 54.5874C143.977 54.8189 148.44 57.8032 151.131 61.4664L151.474 61.9671C153.461 64.8352 155.139 67.9697 156.672 71.2496L157.015 71.9923L157.352 72.7114L157.659 73.3888L157.934 73.99C158.132 74.6451 158.083 74.9479 157.895 75.5961L157.313 75.5869L156.562 75.5797L155.812 75.5705C155.202 75.5961 155.202 75.5961 154.995 75.8582C155.054 76.2973 155.123 76.7346 155.202 77.1687L156.859 77.6929C156.902 78.2424 156.902 78.2424 156.584 78.6624C153.379 82.8584 148.873 84.1484 144.413 84.3006L143.961 84.3139C143.2 84.3367 142.44 84.3588 141.679 84.3615C140.728 84.3631 139.786 84.3848 138.838 84.5074C137.467 84.9815 136.224 85.7144 135.317 87.1283C133.888 89.772 133.586 92.1076 133.867 95.2533C134.295 97.6907 135.444 99.9222 137.01 101.453L137.388 101.806C138.66 103.106 139.963 104.321 141.346 105.426L141.738 105.737C144.337 107.833 146.981 109.423 149.873 110.744C151.339 111.41 152.721 112.079 154.011 113.205C154.838 114.105 155.338 115.142 155.513 116.499C155.327 117.879 154.993 118.82 154.244 119.858C153.378 120.548 152.702 120.784 151.681 120.677C150.943 120.285 150.56 119.856 150.113 119.02C149.877 118.555 149.636 118.094 149.39 117.637C148.014 115.482 148.014 115.482 137.927 113.634L137.71 113.594L137.709 113.594C134.558 113.018 131.407 112.442 128.268 111.769L127.475 111.597C124.645 110.991 122.018 110.263 119.521 108.397C116.344 105.88 114.902 101.619 114.081 97.1412L113.982 96.5638C113.535 96.5638 113.169 96.6808 112.739 96.8259C112.641 98.1514 112.907 99.1719 113.254 100.4L113.464 101.118C113.66 101.807 113.856 102.496 114.056 103.184L114.189 103.64C96.2438 101.623 96.2438 101.623 78.5607 96.5638L78.8174 96.1339L79.1552 95.5666C80.3142 93.6224 81.4227 91.7272 81.4607 89.2251H80.6321L80.2996 89.8025C78.4924 94.2063 75.9611 97.685 72.8984 100.745L72.3466 101.282C70.7874 102.834 69.158 104.097 67.3848 105.211L66.9609 105.475C62.2879 108.441 57.4797 109.694 52.2766 109.717L51.8398 109.718C50.4999 109.721 49.1527 109.761 47.8208 109.553C47.4365 109.477 47.0519 109.403 46.666 109.341C45.01 109.083 43.3693 108.757 41.7423 108.284L41.3218 108.161C40.616 107.953 39.9105 107.745 39.2071 107.525C37.8517 107.099 36.5393 106.728 35.1392 106.682C34.0134 106.675 33.3464 107.131 32.5467 108.121L32.1098 108.751C31.6203 109.456 31.1412 110.169 30.6711 110.895C29.695 112.422 28.6922 113.902 27.6336 115.338C27.2888 115.805 26.9456 116.273 26.6048 116.744C25.643 118.076 24.6747 119.398 23.6688 120.677C21.148 123.741 17.8557 127.393 14.1874 127.317C13.1435 127.118 12.5408 126.382 11.8619 125.394C11.127 123.989 10.9009 122.877 11.0334 121.201C11.4995 119.767 12.3575 118.883 13.4656 118.261C15.3018 117.365 16.8635 116.279 18.2055 114.419C18.6722 113.621 18.6722 113.621 19.1215 112.994L19.2763 112.778C19.8295 112.008 20.3826 111.238 20.9242 110.455C21.4561 109.678 21.9918 108.91 22.5425 108.154C23.4584 106.904 24.3601 105.653 25.2094 104.328L25.2449 104.273C25.8556 103.319 26.4663 102.365 27.0887 101.423L27.4103 100.938C27.7028 100.485 27.9979 100.043 28.3094 99.6114C29.469 98.1157 30.3037 97.4436 31.9898 97.421C32.4065 97.4285 32.8233 97.4276 33.24 97.4194L33.8761 97.4003C35.0747 97.3648 36.1614 97.1783 37.3271 96.8095C42.1786 94.9303 45.1719 90.8792 47.628 85.4148C47.8886 84.8258 48.151 84.2382 48.4149 83.6517L48.8201 82.7526C50.7111 78.5347 52.6088 74.4177 55.4016 71.0391L55.9826 70.3542C56.7926 69.3642 57.6061 68.3887 58.4682 67.4711C65.9317 59.8405 76.0774 57.3185 85.4675 58.4523L86.2249 58.5598C86.8547 58.6453 87.4844 58.7316 88.1139 58.8211L88.8012 58.9202C91.6902 59.3263 94.4719 60.1763 97.2899 61.0502C102.605 62.6991 107.914 64.6561 113.42 64.7164L113.839 64.7191C119.565 64.7585 124.51 62.2198 129.116 58.0684L129.724 57.5115C130.148 58.0517 130.575 58.5878 131.005 59.1209L131.472 59.6738L131.937 60.2348C132.495 60.7255 132.787 60.7457 133.453 60.6566L133.66 59.3461L133.129 58.8219C131.619 57.2138 130.305 55.3758 130.067 52.8142Z" fill="#6B6760"/>
<path d="M147.745 66.4227C148.41 67.1382 148.552 67.5609 148.69 68.6505C148.541 69.8272 148.297 70.1841 147.538 70.8784C146.826 71.1568 146.826 71.1568 146.088 71.1405C145.403 70.675 145.132 70.491 144.955 70.2408C144.839 70.0772 144.764 69.8853 144.638 69.5679C144.557 68.4824 144.548 67.9136 145.014 66.9797C145.826 65.9806 146.701 66.04 147.745 66.4227Z" fill="#111418"/>
</svg>
